NewsreaderDisplay-ExtraBoldItalic.ufo
<glyph name="exclam" format="2">
	<unicode hex="0021"/>
	<advance width="626"/>
	<outline>
		<contour>
			<point x="779" y="1248" type="line" smooth="yes"/>
			<point x="806" y="1383"/>
			<point x="698" y="1460"/>
			<point x="576" y="1460" type="curve" smooth="yes"/>
			<point x="436" y="1460"/>
			<point x="320" y="1381"/>
			<point x="293" y="1248" type="curve" smooth="yes"/>
			<point x="289" y="1228" type="line" smooth="yes"/>
			<point x="268" y="1125"/>
			<point x="338" y="928"/>
			<point x="306" y="553" type="curve"/>
			<point x="348" y="553" type="line"/>
			<point x="545" y="928"/>
			<point x="744" y="1075"/>
			<point x="775" y="1228" type="curve" smooth="yes"/>
		</contour>
		<contour>
			<point x="258" y="396" type="curve" smooth="yes"/>
			<point x="112" y="396"/>
			<point x="2" y="284"/>
			<point x="2" y="138" type="curve" smooth="yes"/>
			<point x="2" y="42"/>
			<point x="67" y="-24"/>
			<point x="170" y="-24" type="curve" smooth="yes"/>
			<point x="316" y="-24"/>
			<point x="426" y="88"/>
			<point x="426" y="234" type="curve" smooth="yes"/>
			<point x="426" y="330"/>
			<point x="361" y="396"/>
		</contour>
	</outline>
</glyph>
<glyph name="quotesingle" format="2">
	<unicode hex="0027"/>
	<advance width="432"/>
	<outline>
		<contour>
			<point x="273" y="832" type="line"/>
			<point x="318" y="832" type="line"/>
			<point x="667" y="1402" type="line"/>
			<point x="675" y="1430" type="line"/>
			<point x="306" y="1430" type="line"/>
			<point x="298" y="1402" type="line"/>
		</contour>
	</outline>
</glyph>
<glyph name="parenleft" format="2">
	<unicode hex="0028"/>
	<advance width="567"/>
	<outline>
		<contour>
			<point x="820" y="1469" type="curve"/>
			<point x="794" y="1494" type="line"/>
			<point x="108" y="952"/>
			<point x="77" y="678"/>
			<point x="77" y="455" type="curve" smooth="yes"/>
			<point x="77" y="291"/>
			<point x="132" y="117"/>
			<point x="271" y="-218" type="curve"/>
			<point x="308" y="-206" type="line"/>
			<point x="281" y="-63"/>
			<point x="268" y="64"/>
			<point x="268" y="183" type="curve" smooth="yes"/>
			<point x="268" y="526"/>
			<point x="370" y="984"/>
		</contour>
	</outline>
</glyph>
<glyph name="parenright" format="2">
	<unicode hex="0029"/>
	<advance width="566"/>
	<outline>
		<contour>
			<point x="-177" y="-193" type="curve"/>
			<point x="-151" y="-218" type="line"/>
			<point x="535" y="324"/>
			<point x="566" y="598"/>
			<point x="566" y="821" type="curve" smooth="yes"/>
			<point x="566" y="985"/>
			<point x="511" y="1159"/>
			<point x="372" y="1494" type="curve"/>
			<point x="335" y="1482" type="line"/>
			<point x="362" y="1339"/>
			<point x="375" y="1212"/>
			<point x="375" y="1093" type="curve" smooth="yes"/>
			<point x="375" y="750"/>
			<point x="273" y="292"/>
		</contour>
	</outline>
</glyph>
<glyph name="asterisk" format="2">
	<unicode hex="002A"/>
	<advance width="821"/>
	<outline>
		<contour>
			<point x="744" y="812" type="line"/>
			<point x="697" y="1060" type="line"/>
			<point x="933" y="1132" type="line"/>
			<point x="931" y="1168" type="line"/>
			<point x="686" y="1198" type="line"/>
			<point x="696" y="1451" type="line"/>
			<point x="662" y="1459" type="line"/>
			<point x="554" y="1231" type="line"/>
			<point x="313" y="1318" type="line"/>
			<point x="293" y="1284" type="line"/>
			<point x="481" y="1114" type="line"/>
			<point x="322" y="915" type="line"/>
			<point x="348" y="888" type="line"/>
			<point x="570" y="1008" type="line"/>
			<point x="712" y="799" type="line"/>
		</contour>
	</outline>
</glyph>
<glyph name="plus" format="2">
	<unicode hex="002B"/>
	<advance width="1150"/>
	<outline>
		<contour>
			<point x="401" y="101" type="line"/>
			<point x="497" y="101" type="line"/>
			<point x="749" y="923" type="line"/>
			<point x="653" y="923" type="line"/>
		</contour>
		<contour>
			<point x="179" y="560" type="line"/>
			<point x="149" y="464" type="line"/>
			<point x="971" y="464" type="line"/>
			<point x="1001" y="560" type="line"/>
		</contour>
	</outline>
</glyph>
<glyph name="comma" format="2">
	<unicode hex="002C"/>
	<advance width="541"/>
	<outline>
		<contour>
			<point x="-158" y="-309" type="curve"/>
			<point x="-141" y="-348" type="line"/>
			<point x="254" y="-150"/>
			<point x="389" y="36"/>
			<point x="389" y="217" type="curve" smooth="yes"/>
			<point x="389" y="328"/>
			<point x="320" y="396"/>
			<point x="214" y="396" type="curve" smooth="yes"/>
			<point x="64" y="396"/>
			<point x="-18" y="284"/>
			<point x="-18" y="194" type="curve" smooth="yes"/>
			<point x="-18" y="164"/>
			<point x="110" y="100"/>
			<point x="110" y="-16" type="curve" smooth="yes"/>
			<point x="110" y="-104"/>
			<point x="43" y="-200"/>
		</contour>
	</outline>
</glyph>
<glyph name="hyphen" format="2">
	<unicode hex="002D"/>
	<advance width="652"/>
	<outline>
		<contour>
			<point x="135" y="610" type="line"/>
			<point x="82" y="434" type="line"/>
			<point x="522" y="434" type="line"/>
			<point x="576" y="610" type="line"/>
		</contour>
	</outline>
</glyph>
<glyph name="period" format="2">
	<unicode hex="002E"/>
	<advance width="544"/>
	<outline>
		<contour>
			<point x="234" y="396" type="curve" smooth="yes"/>
			<point x="88" y="396"/>
			<point x="-22" y="284"/>
			<point x="-22" y="138" type="curve" smooth="yes"/>
			<point x="-22" y="42"/>
			<point x="43" y="-24"/>
			<point x="146" y="-24" type="curve" smooth="yes"/>
			<point x="292" y="-24"/>
			<point x="402" y="88"/>
			<point x="402" y="234" type="curve" smooth="yes"/>
			<point x="402" y="330"/>
			<point x="337" y="396"/>
		</contour>
	</outline>
</glyph>
<glyph name="slash" format="2">
	<unicode hex="002F"/>
	<advance width="801"/>
	<outline>
		<contour>
			<point x="-84" y="0" type="line"/>
			<point x="2" y="0" type="line"/>
			<point x="1011" y="1430" type="line"/>
			<point x="925" y="1430" type="line"/>
		</contour>
	</outline>
</glyph>
<glyph name="zero" format="2">
	<unicode hex="0030"/>
	<advance width="1400"/>
	<outline>
		<contour>
			<point x="481" y="223" type="curve" smooth="yes"/>
			<point x="481" y="622"/>
			<point x="760" y="1381"/>
			<point x="975" y="1381" type="curve" smooth="yes"/>
			<point x="1025" y="1381"/>
			<point x="1043" y="1341"/>
			<point x="1043" y="1207" type="curve" smooth="yes"/>
			<point x="1043" y="808"/>
			<point x="764" y="49"/>
			<point x="549" y="49" type="curve" smooth="yes"/>
			<point x="499" y="49"/>
			<point x="481" y="89"/>
		</contour>
		<contour>
			<point x="982" y="1460" type="curve" smooth="yes"/>
			<point x="444" y="1460"/>
			<point x="114" y="922"/>
			<point x="114" y="422" type="curve" smooth="yes"/>
			<point x="114" y="181"/>
			<point x="244" y="-30"/>
			<point x="542" y="-30" type="curve" smooth="yes"/>
			<point x="1080" y="-30"/>
			<point x="1410" y="508"/>
			<point x="1410" y="1008" type="curve" smooth="yes"/>
			<point x="1410" y="1249"/>
			<point x="1280" y="1460"/>
		</contour>
	</outline>
</glyph>
<glyph name="one" format="2">
	<unicode hex="0031"/>
	<advance width="1400"/>
	<outline>
		<contour>
			<point x="423" y="84" type="line"/>
			<point x="188" y="25" type="line"/>
			<point x="181" y="0" type="line"/>
			<point x="1061" y="0" type="line"/>
			<point x="1069" y="25" type="line"/>
			<point x="873" y="85" type="line"/>
			<point x="1283" y="1430" type="line"/>
			<point x="1036" y="1430" type="line"/>
			<point x="366" y="1093" type="line"/>
			<point x="387" y="1040" type="line"/>
			<point x="825" y="1153" type="line"/>
			<point x="749" y="1153" type="line"/>
		</contour>
	</outline>
</glyph>
<glyph name="colon" format="2">
	<unicode hex="003A"/>
	<advance width="596"/>
	<outline>
		<contour>
			<point x="242" y="396" type="curve" smooth="yes"/>
			<point x="96" y="396"/>
			<point x="-14" y="284"/>
			<point x="-14" y="138" type="curve" smooth="yes"/>
			<point x="-14" y="42"/>
			<point x="51" y="-24"/>
			<point x="154" y="-24" type="curve" smooth="yes"/>
			<point x="300" y="-24"/>
			<point x="410" y="88"/>
			<point x="410" y="234" type="curve" smooth="yes"/>
			<point x="410" y="330"/>
			<point x="345" y="396"/>
		</contour>
		<contour>
			<point x="441" y="1048" type="curve" smooth="yes"/>
			<point x="295" y="1048"/>
			<point x="185" y="936"/>
			<point x="185" y="790" type="curve" smooth="yes"/>
			<point x="185" y="694"/>
			<point x="250" y="628"/>
			<point x="353" y="628" type="curve" smooth="yes"/>
			<point x="499" y="628"/>
			<point x="609" y="740"/>
			<point x="609" y="886" type="curve" smooth="yes"/>
			<point x="609" y="982"/>
			<point x="544" y="1048"/>
		</contour>
	</outline>
</glyph>
<glyph name="semicolon" format="2">
	<unicode hex="003B"/>
	<advance width="595"/>
	<outline>
		<contour>
			<point x="-139" y="-309" type="curve"/>
			<point x="-122" y="-348" type="line"/>
			<point x="273" y="-150"/>
			<point x="408" y="36"/>
			<point x="408" y="217" type="curve" smooth="yes"/>
			<point x="408" y="328"/>
			<point x="339" y="396"/>
			<point x="233" y="396" type="curve" smooth="yes"/>
			<point x="83" y="396"/>
			<point x="1" y="284"/>
			<point x="1" y="194" type="curve" smooth="yes"/>
			<point x="1" y="164"/>
			<point x="129" y="100"/>
			<point x="129" y="-16" type="curve" smooth="yes"/>
			<point x="129" y="-104"/>
			<point x="62" y="-200"/>
		</contour>
		<contour>
			<point x="430" y="1048" type="curve" smooth="yes"/>
			<point x="284" y="1048"/>
			<point x="174" y="936"/>
			<point x="174" y="790" type="curve" smooth="yes"/>
			<point x="174" y="694"/>
			<point x="239" y="628"/>
			<point x="342" y="628" type="curve" smooth="yes"/>
			<point x="488" y="628"/>
			<point x="598" y="740"/>
			<point x="598" y="886" type="curve" smooth="yes"/>
			<point x="598" y="982"/>
			<point x="533" y="1048"/>
		</contour>
	</outline>
</glyph>
<glyph name="less" format="2">
	<unicode hex="003C"/>
	<advance width="1150"/>
	<outline>
		<contour>
			<point x="132" y="468" type="line"/>
			<point x="860" y="115" type="line"/>
			<point x="888" y="207" type="line"/>
			<point x="240" y="515" type="line"/>
			<point x="234" y="495" type="line"/>
			<point x="1068" y="797" type="line"/>
			<point x="1102" y="909" type="line"/>
			<point x="158" y="556" type="line"/>
		</contour>
	</outline>
</glyph>
<glyph name="greater" format="2">
  <advance width="1150"/>
  <unicode hex="003E"/>
  <outline>
    <contour>
      <point x="1017.0" y="556.0" type="line"/>
      <point x="289.0" y="909.0" type="line"/>
      <point x="261.0" y="817.0" type="line"/>
      <point x="909.0" y="509.0" type="line"/>
      <point x="915.0" y="529.0" type="line"/>
      <point x="81.0" y="227.0" type="line"/>
      <point x="47.0" y="115.0" type="line"/>
      <point x="991.0" y="468.0" type="line"/>
    </contour>
  </outline>
</glyph>
<glyph name="question" format="2">
  <advance width="1056"/>
  <unicode hex="003F"/>
  <outline>
    <contour>
      <point x="428.0" y="396.0" type="curve" smooth="yes"/>
      <point x="282.0" y="396.0"/>
      <point x="172.0" y="284.0"/>
      <point x="172.0" y="138.0" type="curve" smooth="yes"/>
      <point x="172.0" y="42.0"/>
      <point x="237.0" y="-24.0"/>
      <point x="340.0" y="-24.0" type="curve" smooth="yes"/>
      <point x="486.0" y="-24.0"/>
      <point x="596.0" y="88.0"/>
      <point x="596.0" y="234.0" type="curve" smooth="yes"/>
      <point x="596.0" y="330.0"/>
      <point x="531.0" y="396.0"/>
    </contour>
    <contour>
      <point x="619.0" y="1460.0" type="curve" smooth="yes"/>
      <point x="369.0" y="1460.0"/>
      <point x="289.0" y="1371.0"/>
      <point x="289.0" y="1268.0" type="curve" smooth="yes"/>
      <point x="289.0" y="1193.0"/>
      <point x="336.0" y="1134.0"/>
      <point x="410.0" y="1134.0" type="curve" smooth="yes"/>
      <point x="447.0" y="1134.0"/>
      <point x="632.0" y="1348.0"/>
      <point x="805.0" y="1348.0" type="curve" smooth="yes"/>
      <point x="904.0" y="1348.0"/>
      <point x="972.0" y="1289.0"/>
      <point x="972.0" y="1201.0" type="curve" smooth="yes"/>
      <point x="972.0" y="1049.0"/>
      <point x="877.0" y="967.0"/>
      <point x="526.0" y="985.0" type="curve"/>
      <point x="450.0" y="553.0" type="line"/>
      <point x="495.0" y="553.0" type="line"/>
      <point x="635.0" y="876.0" type="line"/>
      <point x="512.0" y="674.0" type="line"/>
      <point x="962.0" y="642.0"/>
      <point x="1104.0" y="795.0"/>
      <point x="1104.0" y="1053.0" type="curve" smooth="yes"/>
      <point x="1104.0" y="1268.0"/>
      <point x="949.0" y="1460.0"/>
    </contour>
  </outline>
</glyph>
<glyph name="at" format="2">
  <advance width="1831"/>
  <unicode hex="0040"/>
  <outline>
    <contour>
      <point x="1403.0" y="292.0" type="curve" smooth="yes"/>
      <point x="1352.0" y="292.0"/>
      <point x="1333.0" y="314.0"/>
      <point x="1333.0" y="366.0" type="curve" smooth="yes"/>
      <point x="1333.0" y="399.0"/>
      <point x="1340.0" y="443.0"/>
      <point x="1355.0" y="500.0" type="curve" smooth="yes"/>
      <point x="1495.0" y="1039.0" type="line"/>
      <point x="1185.0" y="1039.0" type="line"/>
      <point x="1158.0" y="940.0" type="line"/>
      <point x="1064.0" y="629.0" type="line"/>
      <point x="1008.0" y="505.0"/>
      <point x="947.0" y="456.0"/>
      <point x="899.0" y="456.0" type="curve" smooth="yes"/>
      <point x="869.0" y="456.0"/>
      <point x="859.0" y="469.0"/>
      <point x="859.0" y="522.0" type="curve" smooth="yes"/>
      <point x="859.0" y="668.0"/>
      <point x="987.0" y="943.0"/>
      <point x="1101.0" y="943.0" type="curve" smooth="yes"/>
      <point x="1159.0" y="943.0"/>
      <point x="1181.0" y="903.0"/>
      <point x="1208.0" y="817.0" type="curve"/>
      <point x="1224.0" y="844.0" type="line"/>
      <point x="1186.0" y="996.0"/>
      <point x="1088.0" y="1062.0"/>
      <point x="1003.0" y="1062.0" type="curve" smooth="yes"/>
      <point x="759.0" y="1062.0"/>
      <point x="527.0" y="694.0"/>
      <point x="527.0" y="437.0" type="curve" smooth="yes"/>
      <point x="527.0" y="297.0"/>
      <point x="586.0" y="237.0"/>
      <point x="700.0" y="237.0" type="curve" smooth="yes"/>
      <point x="818.0" y="237.0"/>
      <point x="933.0" y="288.0"/>
      <point x="1111.0" y="638.0" type="curve"/>
      <point x="1084.0" y="643.0" type="line"/>
      <point x="1061.0" y="530.0" type="line" smooth="yes"/>
      <point x="1054.0" y="497.0"/>
      <point x="1051.0" y="467.0"/>
      <point x="1051.0" y="440.0" type="curve" smooth="yes"/>
      <point x="1051.0" y="296.0"/>
      <point x="1146.0" y="237.0"/>
      <point x="1304.0" y="237.0" type="curve" smooth="yes"/>
      <point x="1676.0" y="237.0"/>
      <point x="1872.0" y="526.0"/>
      <point x="1872.0" y="873.0" type="curve" smooth="yes"/>
      <point x="1872.0" y="1235.0"/>
      <point x="1614.0" y="1460.0"/>
      <point x="1183.0" y="1460.0" type="curve" smooth="yes"/>
      <point x="503.0" y="1460.0"/>
      <point x="82.0" y="965.0"/>
      <point x="82.0" y="454.0" type="curve" smooth="yes"/>
      <point x="82.0" y="45.0"/>
      <point x="385.0" y="-218.0"/>
      <point x="852.0" y="-218.0" type="curve" smooth="yes"/>
      <point x="1118.0" y="-218.0"/>
      <point x="1343.0" y="-146.0"/>
      <point x="1545.0" y="-25.0" type="curve"/>
      <point x="1524.0" y="17.0" type="line"/>
      <point x="1281.0" y="-118.0"/>
      <point x="1089.0" y="-151.0"/>
      <point x="890.0" y="-151.0" type="curve" smooth="yes"/>
      <point x="498.0" y="-151.0"/>
      <point x="259.0" y="101.0"/>
      <point x="259.0" y="466.0" type="curve" smooth="yes"/>
      <point x="259.0" y="953.0"/>
      <point x="583.0" y="1398.0"/>
      <point x="1163.0" y="1398.0" type="curve" smooth="yes"/>
      <point x="1537.0" y="1398.0"/>
      <point x="1716.0" y="1170.0"/>
      <point x="1716.0" y="863.0" type="curve" smooth="yes"/>
      <point x="1716.0" y="515.0"/>
      <point x="1550.0" y="292.0"/>
    </contour>
  </outline>
</glyph>
<glyph name="A" format="2">
	<unicode hex="0041"/>
	<advance width="1570"/>
	<outline>
		<contour>
			<point x="311" y="447" type="line"/>
			<point x="996" y="447" type="line"/>
			<point x="1019" y="525" type="line"/>
			<point x="334" y="525" type="line"/>
		</contour>
		<contour>
			<point x="1350" y="90" type="line"/>
			<point x="1178" y="1430" type="line"/>
			<point x="892" y="1430" type="line"/>
			<point x="-2" y="89" type="line"/>
			<point x="-160" y="27" type="line"/>
			<point x="-170" y="0" type="line"/>
			<point x="235" y="0" type="line"/>
			<point x="245" y="27" type="line"/>
			<point x="92" y="86" type="line"/>
			<point x="828" y="1208" type="line"/>
			<point x="799" y="1208" type="line"/>
			<point x="923" y="85" type="line"/>
			<point x="754" y="27" type="line"/>
			<point x="743" y="0" type="line"/>
			<point x="1461" y="0" type="line"/>
			<point x="1471" y="27" type="line"/>
		</contour>
	</outline>
	<anchor name="UCtop" x="1022" y="1430"/>
	<anchor name="bottom" x="524" y="0"/>
	<anchor name="right" x="1284" y="0"/>
</glyph>
<glyph name="B" format="2">
	<unicode hex="0042"/>
	<advance width="1513"/>
	<outline>
		<contour>
			<point x="571" y="1352" type="line"/>
			<point x="963" y="1352" type="line" smooth="yes"/>
			<point x="1074" y="1352"/>
			<point x="1121" y="1307"/>
			<point x="1121" y="1215" type="curve" smooth="yes"/>
			<point x="1121" y="1007"/>
			<point x="1022" y="805"/>
			<point x="839" y="805" type="curve" smooth="yes"/>
			<point x="414" y="805" type="line"/>
			<point x="393" y="727" type="line"/>
			<point x="804" y="727" type="line" smooth="yes"/>
			<point x="947" y="727"/>
			<point x="1003" y="665"/>
			<point x="1003" y="551" type="curve" smooth="yes"/>
			<point x="1003" y="287"/>
			<point x="856" y="78"/>
			<point x="624" y="78" type="curve" smooth="yes"/>
			<point x="206" y="78" type="line"/>
			<point x="294" y="0" type="line"/>
			<point x="723" y="0" type="line" smooth="yes"/>
			<point x="1199" y="0"/>
			<point x="1435" y="218"/>
			<point x="1435" y="463" type="curve" smooth="yes"/>
			<point x="1435" y="647"/>
			<point x="1286" y="765"/>
			<point x="1021" y="784" type="curve"/>
			<point x="1001" y="767" type="line"/>
			<point x="1364.6974734546" y="791.3878772287"/>
			<point x="1526" y="951"/>
			<point x="1526" y="1156" type="curve" smooth="yes"/>
			<point x="1526" y="1306"/>
			<point x="1418" y="1430"/>
			<point x="1082" y="1430" type="curve" smooth="yes"/>
			<point x="730" y="1430" type="line"/>
		</contour>
		<contour>
			<point x="449" y="1353" type="line"/>
			<point x="57" y="81" type="line"/>
			<point x="-104" y="27" type="line"/>
			<point x="-111" y="0" type="line"/>
			<point x="493" y="0" type="line"/>
			<point x="931" y="1430" type="line"/>
			<point x="320" y="1430" type="line"/>
			<point x="313" y="1403" type="line"/>
		</contour>
	</outline>
	<anchor name="UCtop" x="978" y="1430"/>
	<anchor name="bottom" x="590" y="0"/>
</glyph>
<glyph name="C" format="2">
	<unicode hex="0043"/>
	<advance width="1428"/>
	<outline>
		<contour>
			<point x="1043" y="106" type="line"/>
			<point x="982" y="75"/>
			<point x="905" y="57"/>
			<point x="818" y="57" type="curve" smooth="yes"/>
			<point x="637" y="57"/>
			<point x="528" y="198"/>
			<point x="528" y="468" type="curve" smooth="yes"/>
			<point x="528" y="879"/>
			<point x="741" y="1378"/>
			<point x="1123" y="1378" type="curve" smooth="yes"/>
			<point x="1219" y="1378"/>
			<point x="1301" y="1347"/>
			<point x="1376" y="1216" type="curve"/>
			<point x="1314" y="1342" type="line"/>
			<point x="1443" y="930" type="line"/>
			<point x="1483" y="930" type="line"/>
			<point x="1533" y="1510" type="line"/>
			<point x="1518" y="1510" type="line"/>
			<point x="1310" y="1395" type="line"/>
			<point x="1511" y="1405" type="line"/>
			<point x="1388" y="1442"/>
			<point x="1265" y="1460"/>
			<point x="1132" y="1460" type="curve" smooth="yes"/>
			<point x="480" y="1460"/>
			<point x="101" y="977"/>
			<point x="101" y="503" type="curve" smooth="yes"/>
			<point x="101" y="200"/>
			<point x="291" y="-30"/>
			<point x="798" y="-30" type="curve" smooth="yes"/>
			<point x="929" y="-30"/>
			<point x="1031" y="-15"/>
			<point x="1166" y="16" type="curve"/>
			<point x="1362" y="417" type="line"/>
			<point x="1325" y="417" type="line"/>
			<point x="959" y="55" type="line"/>
		</contour>
	</outline>
	<anchor name="UCtop" x="1018" y="1430"/>
	<anchor name="bottom" x="660" y="0"/>
	<anchor name="right" x="1206" y="0"/>
</glyph>
<glyph name="D" format="2">
	<unicode hex="0044"/>
	<advance width="1597"/>
	<outline>
		<contour>
			<point x="584" y="78" type="curve" smooth="yes"/>
			<point x="278" y="78" type="line"/>
			<point x="253" y="0" type="line"/>
			<point x="574" y="0" type="line" smooth="yes"/>
			<point x="1201" y="0"/>
			<point x="1607" y="379"/>
			<point x="1607" y="886" type="curve" smooth="yes"/>
			<point x="1607" y="1225"/>
			<point x="1375" y="1430"/>
			<point x="966" y="1430" type="curve" smooth="yes"/>
			<point x="691" y="1430" type="line"/>
			<point x="758" y="1352" type="line"/>
			<point x="964" y="1352" type="line" smooth="yes"/>
			<point x="1106" y="1352"/>
			<point x="1194" y="1267"/>
			<point x="1194" y="1055" type="curve" smooth="yes"/>
			<point x="1194" y="522"/>
			<point x="935" y="78"/>
		</contour>
		<contour>
			<point x="449" y="1353" type="line"/>
			<point x="57" y="81" type="line"/>
			<point x="-104" y="27" type="line"/>
			<point x="-111" y="0" type="line"/>
			<point x="493" y="0" type="line"/>
			<point x="931" y="1430" type="line"/>
			<point x="320" y="1430" type="line"/>
			<point x="313" y="1403" type="line"/>
		</contour>
	</outline>
	<anchor name="UCtop" x="1019" y="1430"/>
	<anchor name="bottom" x="621" y="0"/>
</glyph>
<glyph name="E" format="2">
	<unicode hex="0045"/>
	<advance width="1456"/>
	<outline>
		<contour>
			<point x="449" y="1353" type="line"/>
			<point x="57" y="81" type="line"/>
			<point x="-104" y="27" type="line"/>
			<point x="-111" y="0" type="line"/>
			<point x="493" y="0" type="line"/>
			<point x="931" y="1430" type="line"/>
			<point x="320" y="1430" type="line"/>
			<point x="313" y="1403" type="line"/>
		</contour>
		<contour>
			<point x="1351" y="1383" type="line"/>
			<point x="1468" y="984" type="line"/>
			<point x="1512" y="984" type="line"/>
			<point x="1574" y="1517" type="line"/>
			<point x="1548" y="1517" type="line"/>
			<point x="1361" y="1430" type="line"/>
			<point x="692" y="1430" type="line"/>
			<point x="659" y="1352" type="line"/>
			<point x="1480" y="1352" type="line"/>
		</contour>
		<contour>
			<point x="1101" y="-81" type="line"/>
			<point x="1132" y="-81" type="line"/>
			<point x="1423" y="453" type="line"/>
			<point x="1383" y="477" type="line"/>
			<point x="942" y="55" type="line"/>
			<point x="1130" y="78" type="line"/>
			<point x="290" y="78" type="line"/>
			<point x="255" y="0" type="line"/>
			<point x="962" y="0" type="line"/>
		</contour>
		<contour>
			<point x="1015" y="455" type="line"/>
			<point x="1072" y="746" type="line"/>
			<point x="1194" y="1039" type="line"/>
			<point x="1155" y="1039" type="line"/>
			<point x="979" y="803" type="line"/>
			<point x="633" y="766" type="line"/>
			<point x="611" y="727" type="line"/>
			<point x="950" y="694" type="line"/>
			<point x="976" y="455" type="line"/>
		</contour>
	</outline>
	<anchor name="UCtop" x="982" y="1430"/>
	<anchor name="right" x="1147" y="0"/>
	<anchor name="bottom" x="614" y="0"/>
</glyph>
<glyph name="F" format="2">
	<unicode hex="0046"/>
	<advance width="1317"/>
	<outline>
		<contour>
			<point x="1154" y="999" type="line"/>
			<point x="1115" y="999" type="line"/>
			<point x="939" y="763" type="line"/>
			<point x="593" y="726" type="line"/>
			<point x="571" y="687" type="line"/>
			<point x="910" y="654" type="line"/>
			<point x="936" y="415" type="line"/>
			<point x="975" y="415" type="line"/>
			<point x="1032" y="706" type="line"/>
		</contour>
		<contour>
			<point x="1461" y="984" type="line"/>
			<point x="1523" y="1517" type="line"/>
			<point x="1497" y="1517" type="line"/>
			<point x="1310" y="1430" type="line"/>
			<point x="692" y="1430" type="line"/>
			<point x="659" y="1352" type="line"/>
			<point x="1429" y="1352" type="line"/>
			<point x="1300" y="1383" type="line"/>
			<point x="1417" y="984" type="line"/>
		</contour>
		<contour>
			<point x="516" y="77" type="line"/>
			<point x="931" y="1430" type="line"/>
			<point x="320" y="1430" type="line"/>
			<point x="313" y="1403" type="line"/>
			<point x="449" y="1353" type="line"/>
			<point x="57" y="81" type="line"/>
			<point x="-104" y="27" type="line"/>
			<point x="-111" y="0" type="line"/>
			<point x="645" y="0" type="line"/>
			<point x="651" y="27" type="line"/>
		</contour>
	</outline>
	<anchor name="UCtop" x="937" y="1430"/>
	<anchor name="bottom" x="263" y="0"/>
</glyph>
<glyph name="G" format="2">
	<unicode hex="0047"/>
	<advance width="1569"/>
	<outline>
		<contour>
			<point x="817" y="50" type="curve" smooth="yes"/>
			<point x="636" y="50"/>
			<point x="527" y="193"/>
			<point x="527" y="468" type="curve" smooth="yes"/>
			<point x="527" y="879"/>
			<point x="751" y="1378"/>
			<point x="1152" y="1378" type="curve" smooth="yes"/>
			<point x="1248" y="1378"/>
			<point x="1330" y="1347"/>
			<point x="1405" y="1216" type="curve"/>
			<point x="1343" y="1342" type="line"/>
			<point x="1472" y="930" type="line"/>
			<point x="1512" y="930" type="line"/>
			<point x="1562" y="1510" type="line"/>
			<point x="1547" y="1510" type="line"/>
			<point x="1339" y="1395" type="line"/>
			<point x="1540" y="1405" type="line"/>
			<point x="1417" y="1442"/>
			<point x="1294" y="1460"/>
			<point x="1161" y="1460" type="curve" smooth="yes"/>
			<point x="490" y="1460"/>
			<point x="100" y="977"/>
			<point x="100" y="503" type="curve" smooth="yes"/>
			<point x="100" y="200"/>
			<point x="290" y="-30"/>
			<point x="797" y="-30" type="curve" smooth="yes"/>
			<point x="1009.1630434783" y="-30"/>
			<point x="1201" y="-5"/>
			<point x="1416" y="59" type="curve"/>
			<point x="1429" y="101" type="line"/>
			<point x="1299" y="101" type="line"/>
			<point x="1437" y="559" type="line"/>
			<point x="1563" y="609" type="line"/>
			<point x="1573" y="639" type="line"/>
			<point x="851" y="639" type="line"/>
			<point x="841" y="609" type="line"/>
			<point x="969" y="553" type="line"/>
			<point x="801" y="-1" type="line"/>
			<point x="900" y="55" type="line"/>
			<point x="874" y="52"/>
			<point x="846" y="50"/>
		</contour>
	</outline>
	<anchor name="UCtop" x="1067" y="1430"/>
	<anchor name="bottom" x="709" y="0"/>
</glyph>
<glyph name="H" format="2">
	<unicode hex="0048"/>
	<advance width="1757"/>
	<outline>
		<contour>
			<point x="464" y="702" type="line"/>
			<point x="1398" y="702" type="line"/>
			<point x="1430" y="780" type="line"/>
			<point x="495" y="780" type="line"/>
		</contour>
		<contour>
			<point x="449" y="1353" type="line"/>
			<point x="57" y="81" type="line"/>
			<point x="-104" y="27" type="line"/>
			<point x="-111" y="0" type="line"/>
			<point x="645" y="0" type="line"/>
			<point x="651" y="27" type="line"/>
			<point x="516" y="77" type="line"/>
			<point x="907" y="1349" type="line"/>
			<point x="1068" y="1403" type="line"/>
			<point x="1075" y="1430" type="line"/>
			<point x="320" y="1430" type="line"/>
			<point x="313" y="1403" type="line"/>
		</contour>
		<contour>
			<point x="1363" y="1353" type="line"/>
			<point x="971" y="81" type="line"/>
			<point x="810" y="27" type="line"/>
			<point x="803" y="0" type="line"/>
			<point x="1559" y="0" type="line"/>
			<point x="1566" y="27" type="line"/>
			<point x="1431" y="77" type="line"/>
			<point x="1823" y="1349" type="line"/>
			<point x="1983" y="1403" type="line"/>
			<point x="1990" y="1430" type="line"/>
			<point x="1234" y="1430" type="line"/>
			<point x="1228" y="1403" type="line"/>
		</contour>
	</outline>
	<anchor name="UCtop" x="1160" y="1430"/>
	<anchor name="bottom" x="742" y="0"/>
</glyph>
<glyph name="I" format="2">
	<unicode hex="0049"/>
	<advance width="842"/>
	<outline>
		<contour>
			<point x="449" y="1353" type="line"/>
			<point x="57" y="81" type="line"/>
			<point x="-104" y="27" type="line"/>
			<point x="-111" y="0" type="line"/>
			<point x="645" y="0" type="line"/>
			<point x="651" y="27" type="line"/>
			<point x="516" y="77" type="line"/>
			<point x="907" y="1349" type="line"/>
			<point x="1068" y="1403" type="line"/>
			<point x="1075" y="1430" type="line"/>
			<point x="320" y="1430" type="line"/>
			<point x="313" y="1403" type="line"/>
		</contour>
	</outline>
	<anchor name="UCtop" x="693" y="1430"/>
	<anchor name="right" x="445" y="0"/>
	<anchor name="bottom" x="255" y="0"/>
</glyph>
<glyph name="J" format="2">
	<unicode hex="004A"/>
	<advance width="1013"/>
	<outline>
		<contour>
			<point x="864" y="565" type="curve" smooth="yes"/>
			<point x="1102" y="1336" type="line"/>
			<point x="1264" y="1403" type="line"/>
			<point x="1271" y="1430" type="line"/>
			<point x="516" y="1430" type="line"/>
			<point x="509" y="1403" type="line"/>
			<point x="645" y="1353" type="line"/>
			<point x="283" y="179" type="line" smooth="yes"/>
			<point x="259" y="101"/>
			<point x="221" y="86"/>
			<point x="183" y="86" type="curve" smooth="yes"/>
			<point x="101" y="86"/>
			<point x="54" y="242"/>
			<point x="10" y="242" type="curve" smooth="yes"/>
			<point x="-67" y="242"/>
			<point x="-127" y="185"/>
			<point x="-127" y="107" type="curve" smooth="yes"/>
			<point x="-127" y="36"/>
			<point x="-71" y="-22"/>
			<point x="41" y="-22" type="curve" smooth="yes"/>
			<point x="370" y="-22"/>
			<point x="772" y="267"/>
		</contour>
	</outline>
	<anchor name="UCtop" x="902" y="1430"/>
	<anchor name="bottom" x="385" y="0"/>
</glyph>
<glyph name="K" format="2">
	<unicode hex="004B"/>
	<advance width="1662"/>
	<outline>
		<contour>
			<point x="1439" y="91" type="line"/>
			<point x="1122" y="1011" type="line"/>
			<point x="1099" y="959" type="line"/>
			<point x="1632" y="1349" type="line"/>
			<point x="1822" y="1403" type="line"/>
			<point x="1831" y="1430" type="line"/>
			<point x="1359" y="1430" type="line"/>
			<point x="1349" y="1403" type="line"/>
			<point x="1510" y="1351" type="line"/>
			<point x="770" y="795" type="line"/>
			<point x="588" y="795" type="line"/>
			<point x="554" y="717" type="line"/>
			<point x="746" y="717" type="line"/>
			<point x="952" y="71" type="line"/>
			<point x="820" y="27" type="line"/>
			<point x="810" y="0" type="line"/>
			<point x="1574" y="0" type="line"/>
			<point x="1584" y="27" type="line"/>
		</contour>
		<contour>
			<point x="449" y="1353" type="line"/>
			<point x="57" y="81" type="line"/>
			<point x="-104" y="27" type="line"/>
			<point x="-111" y="0" type="line"/>
			<point x="645" y="0" type="line"/>
			<point x="651" y="27" type="line"/>
			<point x="516" y="77" type="line"/>
			<point x="907" y="1349" type="line"/>
			<point x="1068" y="1403" type="line"/>
			<point x="1075" y="1430" type="line"/>
			<point x="320" y="1430" type="line"/>
			<point x="313" y="1403" type="line"/>
		</contour>
	</outline>
	<anchor name="UCtop" x="1131" y="1430"/>
	<anchor name="bottom" x="743" y="0"/>
</glyph>
<glyph name="L" format="2">
	<unicode hex="004C"/>
	<advance width="1391"/>
	<outline>
		<contour>
			<point x="907" y="1349" type="line"/>
			<point x="1068" y="1403" type="line"/>
			<point x="1075" y="1430" type="line"/>
			<point x="320" y="1430" type="line"/>
			<point x="313" y="1403" type="line"/>
			<point x="449" y="1353" type="line"/>
			<point x="57" y="81" type="line"/>
			<point x="-104" y="27" type="line"/>
			<point x="-111" y="0" type="line"/>
			<point x="493" y="0" type="line"/>
		</contour>
		<contour>
			<point x="892" y="55" type="line"/>
			<point x="1080" y="78" type="line"/>
			<point x="240" y="78" type="line"/>
			<point x="205" y="0" type="line"/>
			<point x="912" y="0" type="line"/>
			<point x="1051" y="-81" type="line"/>
			<point x="1082" y="-81" type="line"/>
			<point x="1373" y="453" type="line"/>
			<point x="1333" y="477" type="line"/>
		</contour>
	</outline>
	<anchor name="UCtop" x="703" y="1430"/>
	<anchor name="right" x="1144" y="1430"/>
	<anchor name="bottom" x="544" y="0"/>
	<anchor name="mid" x="1184" y="713"/>
</glyph>
<glyph name="M" format="2">
	<unicode hex="004D"/>
	<advance width="2136"/>
	<outline>
		<contour>
			<point x="571" y="1398" type="line"/>
			<point x="498" y="1397" type="line"/>
			<point x="606" y="0" type="line"/>
			<point x="904" y="0" type="line"/>
			<point x="1762" y="1391" type="line"/>
			<point x="1784" y="1430" type="line"/>
			<point x="1689" y="1430" type="line"/>
			<point x="949" y="212" type="line"/>
			<point x="1044" y="254" type="line"/>
			<point x="958" y="1430" type="line"/>
			<point x="335" y="1430" type="line"/>
			<point x="329" y="1403" type="line"/>
			<point x="464" y="1317" type="line"/>
			<point x="37" y="74" type="line"/>
			<point x="-123" y="27" type="line"/>
			<point x="-131" y="0" type="line"/>
			<point x="286" y="0" type="line"/>
			<point x="293" y="27" type="line"/>
			<point x="122" y="77" type="line"/>
		</contour>
		<contour>
			<point x="1702" y="1430" type="line"/>
			<point x="1428" y="83" type="line"/>
			<point x="1262" y="27" type="line"/>
			<point x="1255" y="0" type="line"/>
			<point x="1999" y="0" type="line"/>
			<point x="2006" y="27" type="line"/>
			<point x="1876" y="79" type="line"/>
			<point x="2142" y="1353" type="line"/>
			<point x="2321" y="1403" type="line"/>
			<point x="2327" y="1430" type="line"/>
		</contour>
	</outline>
	<anchor name="UCtop" x="1269" y="1430"/>
	<anchor name="bottom" x="791" y="0"/>
</glyph>
<glyph name="N" format="2">
	<unicode hex="004E"/>
	<advance width="1530"/>
	<outline>
		<contour>
			<point x="1268" y="305" type="line"/>
			<point x="915" y="1430" type="line"/>
			<point x="290" y="1430" type="line"/>
			<point x="282" y="1403" type="line"/>
			<point x="444" y="1317" type="line"/>
			<point x="64" y="74" type="line"/>
			<point x="-96" y="27" type="line"/>
			<point x="-104" y="0" type="line"/>
			<point x="317" y="0" type="line"/>
			<point x="324" y="27" type="line"/>
			<point x="153" y="77" type="line"/>
			<point x="530" y="1321" type="line"/>
			<point x="493" y="1321" type="line"/>
			<point x="908" y="0" type="line"/>
			<point x="1197" y="0" type="line"/>
			<point x="1611" y="1356" type="line"/>
			<point x="1771" y="1403" type="line"/>
			<point x="1779" y="1430" type="line"/>
			<point x="1358" y="1430" type="line"/>
			<point x="1351" y="1403" type="line"/>
			<point x="1522" y="1353" type="line"/>
			<point x="1205" y="305" type="line"/>
		</contour>
	</outline>
	<anchor name="UCtop" x="1058" y="1430"/>
	<anchor name="bottom" x="650" y="0"/>
</glyph>
<glyph name="O" format="2">
  <advance width="1594"/>
  <unicode hex="004F"/>
  <guideline x="858.0" y="715" angle="2.456385238702194" identifier="IBY3hhovpn"/>
  <anchor x="1109.0" y="1430" name="UCtop"/>
  <anchor x="601.0" y="0" name="bottom"/>
  <anchor x="771.0" y="0" name="right"/>
  <anchor x="1431.0" y="1430" name="horn"/>
  <outline>
    <contour>
      <point x="513.0" y="257.0" type="curve" smooth="yes"/>
      <point x="513.0" y="615.0"/>
      <point x="779.0" y="1376.0"/>
      <point x="1088.0" y="1376.0" type="curve" smooth="yes"/>
      <point x="1166.0" y="1376.0"/>
      <point x="1204.0" y="1318.0"/>
      <point x="1204.0" y="1173.0" type="curve" smooth="yes"/>
      <point x="1204.0" y="815.0"/>
      <point x="938.0" y="54.0"/>
      <point x="629.0" y="54.0" type="curve" smooth="yes"/>
      <point x="551.0" y="54.0"/>
      <point x="513.0" y="112.0"/>
    </contour>
    <contour>
      <point x="1620.0" y="928.0" type="curve" smooth="yes"/>
      <point x="1620.0" y="1237.0"/>
      <point x="1446.0" y="1460.0"/>
      <point x="1067.0" y="1460.0" type="curve" smooth="yes"/>
      <point x="483.0" y="1460.0"/>
      <point x="97.0" y="942.0"/>
      <point x="97.0" y="502.0" type="curve" smooth="yes"/>
      <point x="97.0" y="193.0"/>
      <point x="271.0" y="-30.0"/>
      <point x="650.0" y="-30.0" type="curve" smooth="yes"/>
      <point x="1234.0" y="-30.0"/>
      <point x="1620.0" y="488.0"/>
    </contour>
  </outline>
</glyph>
<glyph name="P" format="2">
  <advance width="1425"/>
  <unicode hex="0050"/>
  <anchor x="997.0" y="1430" name="UCtop"/>
  <anchor x="263.0" y="0" name="bottom"/>
  <outline>
    <contour>
      <point x="790.0" y="692.0" type="curve" smooth="yes"/>
      <point x="462.0" y="692.0" type="line"/>
      <point x="452.0" y="614.0" type="line"/>
      <point x="902.0" y="614.0" type="line" smooth="yes"/>
      <point x="1335.0" y="614.0"/>
      <point x="1563.0" y="817.0"/>
      <point x="1563.0" y="1094.0" type="curve" smooth="yes"/>
      <point x="1563.0" y="1277.0"/>
      <point x="1438.0" y="1430.0"/>
      <point x="1080.0" y="1430.0" type="curve" smooth="yes"/>
      <point x="705.0" y="1430.0" type="line"/>
      <point x="654.0" y="1352.0" type="line"/>
      <point x="925.0" y="1352.0" type="line" smooth="yes"/>
      <point x="1068.0" y="1352.0"/>
      <point x="1134.0" y="1307.0"/>
      <point x="1134.0" y="1182.0" type="curve" smooth="yes"/>
      <point x="1134.0" y="953.0"/>
      <point x="1021.0" y="692.0"/>
    </contour>
    <contour>
      <point x="516.0" y="77.0" type="line"/>
      <point x="931.0" y="1430.0" type="line"/>
      <point x="320.0" y="1430.0" type="line"/>
      <point x="313.0" y="1403.0" type="line"/>
      <point x="449.0" y="1353.0" type="line"/>
      <point x="57.0" y="81.0" type="line"/>
      <point x="-104.0" y="27.0" type="line"/>
      <point x="-111.0" y="0.0" type="line"/>
      <point x="645.0" y="0.0" type="line"/>
      <point x="651.0" y="27.0" type="line"/>
    </contour>
  </outline>
</glyph>
<glyph name="Q" format="2">
	<unicode hex="0051"/>
	<advance width="1593"/>
	<outline>
		<contour>
			<point x="587" y="-237" type="line" smooth="yes"/>
			<point x="788" y="-441"/>
			<point x="955" y="-465"/>
			<point x="1185" y="-465" type="curve" smooth="yes"/>
			<point x="1335" y="-465"/>
			<point x="1530" y="-419"/>
			<point x="1604" y="-400" type="curve"/>
			<point x="1619" y="-341" type="line"/>
			<point x="1454" y="-347"/>
			<point x="1284" y="-288"/>
			<point x="1150" y="-205" type="curve" smooth="yes"/>
			<point x="771" y="28" type="line"/>
			<point x="770" y="-5" type="line"/>
			<point x="1314" y="52"/>
			<point x="1620" y="547"/>
			<point x="1620" y="928" type="curve" smooth="yes"/>
			<point x="1620" y="1237"/>
			<point x="1446" y="1460"/>
			<point x="1067" y="1460" type="curve" smooth="yes"/>
			<point x="483" y="1460"/>
			<point x="97" y="942"/>
			<point x="97" y="502" type="curve" smooth="yes"/>
			<point x="97" y="321"/>
			<point x="168" y="189"/>
			<point x="278" y="77" type="curve" smooth="yes"/>
		</contour>
		<contour>
			<point x="513" y="257" type="curve" smooth="yes"/>
			<point x="513" y="615"/>
			<point x="779" y="1376"/>
			<point x="1088" y="1376" type="curve" smooth="yes"/>
			<point x="1166" y="1376"/>
			<point x="1204" y="1318"/>
			<point x="1204" y="1173" type="curve" smooth="yes"/>
			<point x="1204" y="815"/>
			<point x="938" y="54"/>
			<point x="629" y="54" type="curve" smooth="yes"/>
			<point x="551" y="54"/>
			<point x="513" y="112"/>
		</contour>
	</outline>
	<anchor name="bottom" x="389" y="-99"/>
	<anchor name="UCtop" x="1149" y="1430"/>
</glyph>
<glyph name="R" format="2">
	<unicode hex="0052"/>
	<advance width="1648"/>
	<outline>
		<contour>
			<point x="883" y="770" type="curve" smooth="yes"/>
			<point x="369" y="770" type="line"/>
			<point x="434" y="692" type="line"/>
			<point x="796" y="692" type="line" smooth="yes"/>
			<point x="870" y="692"/>
			<point x="886" y="668"/>
			<point x="923" y="454" type="curve" smooth="yes"/>
			<point x="965" y="213" type="line" smooth="yes"/>
			<point x="999" y="20"/>
			<point x="1119" y="-46"/>
			<point x="1582" y="0" type="curve"/>
			<point x="1599" y="53" type="line"/>
			<point x="1490" y="50"/>
			<point x="1447" y="81"/>
			<point x="1416" y="204" type="curve" smooth="yes"/>
			<point x="1345" y="484" type="line" smooth="yes"/>
			<point x="1304" y="644"/>
			<point x="1212" y="730"/>
			<point x="1033" y="735" type="curve"/>
			<point x="1033" y="732" type="line"/>
			<point x="1410" y="736"/>
			<point x="1614" y="906"/>
			<point x="1614" y="1136" type="curve" smooth="yes"/>
			<point x="1614" y="1322"/>
			<point x="1465" y="1430"/>
			<point x="1139" y="1430" type="curve" smooth="yes"/>
			<point x="680" y="1430" type="line"/>
			<point x="555" y="1352" type="line"/>
			<point x="1005" y="1352" type="line" smooth="yes"/>
			<point x="1127" y="1352"/>
			<point x="1181" y="1285"/>
			<point x="1181" y="1172" type="curve" smooth="yes"/>
			<point x="1181" y="972"/>
			<point x="1084" y="770"/>
		</contour>
		<contour>
			<point x="516" y="77" type="line"/>
			<point x="931" y="1430" type="line"/>
			<point x="320" y="1430" type="line"/>
			<point x="313" y="1403" type="line"/>
			<point x="449" y="1353" type="line"/>
			<point x="57" y="81" type="line"/>
			<point x="-104" y="27" type="line"/>
			<point x="-111" y="0" type="line"/>
			<point x="645" y="0" type="line"/>
			<point x="651" y="27" type="line"/>
		</contour>
	</outline>
	<anchor name="UCtop" x="1032" y="1430"/>
	<anchor name="bottom" x="794" y="0"/>
</glyph>
<glyph name="S" format="2">
	<unicode hex="0053"/>
	<advance width="1264"/>
	<outline>
		<contour>
			<point x="1140" y="1288" type="curve"/>
			<point x="1094" y="1359" type="line"/>
			<point x="1244" y="982" type="line"/>
			<point x="1282" y="982" type="line"/>
			<point x="1296" y="1511" type="line"/>
			<point x="1280" y="1511" type="line"/>
			<point x="1102" y="1384" type="line"/>
			<point x="1285" y="1351" type="line"/>
			<point x="1135" y="1432"/>
			<point x="1007" y="1460"/>
			<point x="872" y="1460" type="curve" smooth="yes"/>
			<point x="496" y="1460"/>
			<point x="253" y="1277"/>
			<point x="253" y="980" type="curve" smooth="yes"/>
			<point x="253" y="774"/>
			<point x="376" y="694"/>
			<point x="520" y="624" type="curve" smooth="yes"/>
			<point x="664" y="554"/>
			<point x="817" y="502"/>
			<point x="817" y="329" type="curve" smooth="yes"/>
			<point x="817" y="175"/>
			<point x="683" y="52"/>
			<point x="413" y="52" type="curve" smooth="yes"/>
			<point x="336" y="52"/>
			<point x="258" y="63"/>
			<point x="181" y="94" type="curve"/>
			<point x="272" y="23" type="line"/>
			<point x="70" y="462" type="line"/>
			<point x="34" y="462" type="line"/>
			<point x="24" y="30" type="line"/>
			<point x="139" y="-7"/>
			<point x="257" y="-30"/>
			<point x="446" y="-30" type="curve" smooth="yes"/>
			<point x="917" y="-30"/>
			<point x="1182" y="205"/>
			<point x="1182" y="503" type="curve" smooth="yes"/>
			<point x="1182" y="740"/>
			<point x="1037" y="843"/>
			<point x="889" y="918" type="curve" smooth="yes"/>
			<point x="741" y="993"/>
			<point x="578" y="1044"/>
			<point x="578" y="1182" type="curve" smooth="yes"/>
			<point x="578" y="1322"/>
			<point x="691" y="1385"/>
			<point x="847" y="1385" type="curve" smooth="yes"/>
			<point x="966" y="1385"/>
			<point x="1060" y="1357"/>
		</contour>
	</outline>
	<anchor name="UCtop" x="821" y="1430"/>
	<anchor name="bottom" x="533" y="0"/>
</glyph>
<glyph name="T" format="2">
	<unicode hex="0054"/>
	<advance width="1530"/>
	<outline>
		<contour>
			<point x="1589" y="1352" type="line"/>
			<point x="1485" y="1368" type="line"/>
			<point x="1597" y="915" type="line"/>
			<point x="1635" y="915" type="line"/>
			<point x="1732" y="1512" type="line"/>
			<point x="1713" y="1512" type="line"/>
			<point x="1429" y="1398" type="line"/>
			<point x="1597" y="1430" type="line"/>
			<point x="471" y="1430" type="line"/>
			<point x="619" y="1398" type="line"/>
			<point x="405" y="1512" type="line"/>
			<point x="386" y="1512" type="line"/>
			<point x="154" y="934" type="line"/>
			<point x="193" y="911" type="line"/>
			<point x="567" y="1368" type="line"/>
			<point x="417" y="1352" type="line"/>
		</contour>
		<contour>
			<point x="800" y="1393" type="line"/>
			<point x="395" y="81" type="line"/>
			<point x="234" y="27" type="line"/>
			<point x="227" y="0" type="line"/>
			<point x="983" y="0" type="line"/>
			<point x="989" y="27" type="line"/>
			<point x="854" y="77" type="line"/>
			<point x="1260" y="1393" type="line"/>
		</contour>
	</outline>
	<anchor name="UCtop" x="1041" y="1430"/>
	<anchor name="bottom" x="600" y="0"/>
</glyph>
<glyph name="U" format="2">
	<unicode hex="0055"/>
	<advance width="1583"/>
	<outline>
		<contour>
			<point x="624" y="574" type="curve" smooth="yes"/>
			<point x="862" y="1349" type="line"/>
			<point x="1023" y="1403" type="line"/>
			<point x="1030" y="1430" type="line"/>
			<point x="275" y="1430" type="line"/>
			<point x="268" y="1403" type="line"/>
			<point x="404" y="1353" type="line"/>
			<point x="189" y="656" type="line" smooth="yes"/>
			<point x="62" y="244"/>
			<point x="208" y="-30"/>
			<point x="766" y="-30" type="curve" smooth="yes"/>
			<point x="1105" y="-30"/>
			<point x="1298" y="111"/>
			<point x="1425" y="530" type="curve" smooth="yes"/>
			<point x="1675" y="1356" type="line"/>
			<point x="1835" y="1403" type="line"/>
			<point x="1843" y="1430" type="line"/>
			<point x="1421" y="1430" type="line"/>
			<point x="1414" y="1403" type="line"/>
			<point x="1585" y="1353" type="line"/>
			<point x="1355" y="594" type="line" smooth="yes"/>
			<point x="1271" y="318"/>
			<point x="1146" y="211"/>
			<point x="911" y="211" type="curve" smooth="yes"/>
			<point x="641" y="211"/>
			<point x="552" y="339"/>
		</contour>
	</outline>
	<anchor name="UCtop" x="1176" y="1430"/>
	<anchor name="right" x="1006" y="0"/>
	<anchor name="bottom" x="718" y="0"/>
	<anchor name="horn" x="1674" y="1430"/>
</glyph>
<glyph name="V" format="2">
	<unicode hex="0056"/>
	<advance width="1549"/>
	<outline>
		<contour>
			<point x="349" y="1340" type="line"/>
			<point x="481" y="0" type="line"/>
			<point x="767" y="0" type="line"/>
			<point x="1681" y="1341" type="line"/>
			<point x="1839" y="1403" type="line"/>
			<point x="1849" y="1430" type="line"/>
			<point x="1440" y="1430" type="line"/>
			<point x="1430" y="1403" type="line"/>
			<point x="1583" y="1344" type="line"/>
			<point x="824" y="222" type="line"/>
			<point x="883" y="222" type="line"/>
			<point x="799" y="1345" type="line"/>
			<point x="968" y="1403" type="line"/>
			<point x="979" y="1430" type="line"/>
			<point x="238" y="1430" type="line"/>
			<point x="228" y="1403" type="line"/>
		</contour>
	</outline>
	<anchor name="UCtop" x="1170" y="1430"/>
	<anchor name="bottom" x="652" y="0"/>
</glyph>
<glyph name="W" format="2">
	<unicode hex="0057"/>
	<advance width="2234"/>
	<outline>
		<contour>
			<point x="2264" y="1344" type="line"/>
			<point x="1644" y="290" type="line"/>
			<point x="1702" y="290" type="line"/>
			<point x="1701" y="1430" type="line"/>
			<point x="1395" y="1430" type="line"/>
			<point x="767" y="293" type="line"/>
			<point x="819" y="293" type="line"/>
			<point x="796" y="1345" type="line"/>
			<point x="962" y="1403" type="line"/>
			<point x="973" y="1430" type="line"/>
			<point x="237" y="1430" type="line"/>
			<point x="227" y="1403" type="line"/>
			<point x="348" y="1340" type="line"/>
			<point x="388" y="0" type="line"/>
			<point x="690" y="0" type="line"/>
			<point x="1302" y="1082" type="line"/>
			<point x="1243" y="1082" type="line"/>
			<point x="1253" y="0" type="line"/>
			<point x="1555" y="0" type="line"/>
			<point x="2363" y="1341" type="line"/>
			<point x="2521" y="1403" type="line"/>
			<point x="2531" y="1430" type="line"/>
			<point x="2121" y="1430" type="line"/>
			<point x="2111" y="1403" type="line"/>
		</contour>
	</outline>
	<anchor name="UCtop" x="1540" y="1430"/>
	<anchor name="bottom" x="1042" y="0"/>
</glyph>
<glyph name="X" format="2">
	<unicode hex="0058"/>
	<advance width="1573"/>
	<outline>
		<contour>
			<point x="782" y="675" type="line"/>
			<point x="942" y="759" type="line"/>
			<point x="1611" y="1342" type="line"/>
			<point x="1771" y="1403" type="line"/>
			<point x="1778" y="1430" type="line"/>
			<point x="1343" y="1430" type="line"/>
			<point x="1336" y="1403" type="line"/>
			<point x="1486" y="1341" type="line"/>
			<point x="920" y="835" type="line"/>
			<point x="744" y="739" type="line"/>
			<point x="3" y="88" type="line"/>
			<point x="-157" y="27" type="line"/>
			<point x="-164" y="0" type="line"/>
			<point x="272" y="0" type="line"/>
			<point x="279" y="27" type="line"/>
			<point x="129" y="89" type="line"/>
		</contour>
		<contour>
			<point x="885" y="86" type="line"/>
			<point x="709" y="27" type="line"/>
			<point x="699" y="0" type="line"/>
			<point x="1477" y="0" type="line"/>
			<point x="1487" y="27" type="line"/>
			<point x="1357" y="88" type="line"/>
			<point x="1043" y="869" type="line"/>
			<point x="1033" y="895" type="line"/>
			<point x="854" y="1341" type="line"/>
			<point x="1026" y="1403" type="line"/>
			<point x="1034" y="1430" type="line"/>
			<point x="257" y="1430" type="line"/>
			<point x="248" y="1403" type="line"/>
			<point x="385" y="1339" type="line"/>
			<point x="664" y="639" type="line"/>
			<point x="672" y="620" type="line"/>
		</contour>
	</outline>
	<anchor name="UCtop" x="1128" y="1430"/>
	<anchor name="bottom" x="580" y="0"/>
</glyph>
<glyph name="Y" format="2">
  <advance width="1546"/>
  <unicode hex="0059"/>
  <anchor x="1122.0" y="1430" name="UCtop"/>
  <anchor x="636.0" y="0" name="bottom"/>
  <outline>
    <contour>
      <point x="1543.0" y="1341.0" type="line"/>
      <point x="957.0" y="651.0" type="line"/>
      <point x="1043.0" y="651.0" type="line"/>
      <point x="836.0" y="1337.0" type="line"/>
      <point x="1009.0" y="1403.0" type="line"/>
      <point x="1017.0" y="1430.0" type="line"/>
      <point x="236.0" y="1430.0" type="line"/>
      <point x="230.0" y="1403.0" type="line"/>
      <point x="378.0" y="1333.0" type="line"/>
      <point x="614.0" y="674.0" type="line"/>
      <point x="431.0" y="81.0" type="line"/>
      <point x="270.0" y="27.0" type="line"/>
      <point x="263.0" y="0.0" type="line"/>
      <point x="1019.0" y="0.0" type="line"/>
      <point x="1025.0" y="27.0" type="line"/>
      <point x="890.0" y="77.0" type="line"/>
      <point x="1071.0" y="665.0" type="line"/>
      <point x="1644.0" y="1342.0" type="line"/>
      <point x="1804.0" y="1403.0" type="line"/>
      <point x="1811.0" y="1430.0" type="line"/>
      <point x="1400.0" y="1430.0" type="line"/>
      <point x="1393.0" y="1403.0" type="line"/>
    </contour>
  </outline>
</glyph>
<glyph name="Z" format="2">
	<unicode hex="005A"/>
	<advance width="1448"/>
	<outline>
		<contour>
			<point x="1612" y="1430" type="line"/>
			<point x="607" y="1430" type="line"/>
			<point x="473" y="1512" type="line"/>
			<point x="453" y="1512" type="line"/>
			<point x="184" y="979" type="line"/>
			<point x="212" y="963" type="line"/>
			<point x="603" y="1352" type="line"/>
			<point x="1511" y="1352" type="line"/>
			<point x="1124" y="1425" type="line"/>
			<point x="-58" y="51" type="line"/>
			<point x="-74" y="0" type="line"/>
			<point x="974" y="0" type="line"/>
			<point x="1130" y="-82" type="line"/>
			<point x="1158" y="-82" type="line"/>
			<point x="1417" y="475" type="line"/>
			<point x="1391" y="488" type="line"/>
			<point x="982" y="78" type="line"/>
			<point x="175" y="78" type="line"/>
			<point x="418" y="9" type="line"/>
			<point x="1596" y="1379" type="line"/>
		</contour>
	</outline>
	<anchor name="UCtop" x="1050" y="1430"/>
	<anchor name="bottom" x="592" y="0"/>
</glyph>
<glyph name="bracketleft" format="2">
	<unicode hex="005B"/>
	<advance width="613"/>
	<outline>
		<contour>
			<point x="-65" y="-208" type="line"/>
			<point x="376" y="-208" type="line"/>
			<point x="389" y="-168" type="line"/>
			<point x="182" y="-138" type="line"/>
			<point x="651" y="1394" type="line"/>
			<point x="875" y="1424" type="line"/>
			<point x="888" y="1464" type="line"/>
			<point x="446" y="1464" type="line"/>
		</contour>
	</outline>
</glyph>
<glyph name="backslash" format="2">
  <advance width="753"/>
  <unicode hex="005C"/>
  <outline>
    <contour>
      <point x="547.0" y="0.0" type="line"/>
      <point x="402.0" y="1430.0" type="line"/>
      <point x="327.0" y="1430.0" type="line"/>
      <point x="472.0" y="0.0" type="line"/>
    </contour>
  </outline>
</glyph>
<glyph name="bracketright" format="2">
	<unicode hex="005D"/>
	<advance width="614"/>
	<outline>
		<contour>
			<point x="749" y="1464" type="line"/>
			<point x="307" y="1464" type="line"/>
			<point x="295" y="1424" type="line"/>
			<point x="501" y="1394" type="line"/>
			<point x="33" y="-138" type="line"/>
			<point x="-192" y="-168" type="line"/>
			<point x="-204" y="-208" type="line"/>
			<point x="238" y="-208" type="line"/>
		</contour>
	</outline>
</glyph>
<glyph name="asciicircum" format="2">
  <advance width="1150"/>
  <unicode hex="005E"/>
  <outline>
    <contour>
      <point x="828.0" y="1327.0" type="line"/>
      <point x="937.0" y="662.0" type="line"/>
      <point x="1032.0" y="662.0" type="line"/>
      <point x="905.0" y="1430.0" type="line"/>
      <point x="809.0" y="1430.0" type="line"/>
      <point x="214.0" y="662.0" type="line"/>
      <point x="325.0" y="662.0" type="line"/>
      <point x="837.0" y="1327.0" type="line"/>
    </contour>
  </outline>
</glyph>
<glyph name="a" format="2">
	<unicode hex="0061"/>
	<advance width="1287"/>
	<outline>
		<contour>
			<point x="641" y="119" type="line" smooth="yes"/>
			<point x="611" y="32"/>
			<point x="655" y="-30"/>
			<point x="750" y="-30" type="curve" smooth="yes"/>
			<point x="913" y="-30"/>
			<point x="1095" y="85"/>
			<point x="1261" y="366" type="curve"/>
			<point x="1248" y="376" type="line"/>
			<point x="1142" y="253"/>
			<point x="1058" y="190"/>
			<point x="964" y="161" type="curve"/>
			<point x="995" y="118" type="line"/>
			<point x="1301" y="1024" type="line"/>
			<point x="929" y="1024" type="line"/>
			<point x="885" y="894" type="line"/>
			<point x="746" y="490" type="line"/>
			<point x="605" y="230"/>
			<point x="529" y="204"/>
			<point x="479" y="204" type="curve" smooth="yes"/>
			<point x="432" y="204"/>
			<point x="420" y="222"/>
			<point x="420" y="288" type="curve" smooth="yes"/>
			<point x="420" y="527"/>
			<point x="641" y="899"/>
			<point x="804" y="899" type="curve" smooth="yes"/>
			<point x="848" y="899"/>
			<point x="884" y="881"/>
			<point x="914" y="830" type="curve"/>
			<point x="925" y="865" type="line"/>
			<point x="849" y="999"/>
			<point x="760" y="1054"/>
			<point x="665" y="1054" type="curve" smooth="yes"/>
			<point x="333" y="1054"/>
			<point x="-16" y="567"/>
			<point x="-16" y="191" type="curve" smooth="yes"/>
			<point x="-16" y="66"/>
			<point x="77" y="-30"/>
			<point x="222" y="-30" type="curve" smooth="yes"/>
			<point x="400" y="-30"/>
			<point x="542" y="64"/>
			<point x="790" y="496" type="curve"/>
			<point x="772" y="503" type="line"/>
		</contour>
	</outline>
	<anchor name="top" x="849" y="1024"/>
	<anchor name="right" x="1122" y="0"/>
	<anchor name="bottom" x="505" y="0"/>
</glyph>
<glyph name="b" format="2">
	<unicode hex="0062"/>
	<advance width="1223"/>
	<outline>
		<contour>
			<point x="368" y="193" type="curve" smooth="yes"/>
			<point x="498" y="615" type="line"/>
			<point x="560" y="741"/>
			<point x="658" y="824"/>
			<point x="729" y="824" type="curve" smooth="yes"/>
			<point x="773" y="824"/>
			<point x="786" y="801"/>
			<point x="786" y="754" type="curve" smooth="yes"/>
			<point x="786" y="475"/>
			<point x="601" y="29"/>
			<point x="438" y="29" type="curve" smooth="yes"/>
			<point x="386" y="29"/>
			<point x="357" y="62"/>
			<point x="357" y="124" type="curve" smooth="yes"/>
			<point x="357" y="146"/>
			<point x="361" y="169"/>
		</contour>
		<contour>
			<point x="315" y="1194" type="curve"/>
			<point x="75" y="413" type="line" smooth="yes"/>
			<point x="61" y="368"/>
			<point x="55" y="325"/>
			<point x="55" y="286" type="curve" smooth="yes"/>
			<point x="55" y="94"/>
			<point x="206" y="-30"/>
			<point x="434" y="-30" type="curve" smooth="yes"/>
			<point x="889" y="-30"/>
			<point x="1230" y="411"/>
			<point x="1230" y="798" type="curve" smooth="yes"/>
			<point x="1230" y="955"/>
			<point x="1141" y="1054"/>
			<point x="980" y="1054" type="curve" smooth="yes"/>
			<point x="831" y="1054"/>
			<point x="664" y="944"/>
			<point x="497" y="681" type="curve"/>
			<point x="508" y="681" type="line"/>
			<point x="818" y="1494" type="line"/>
			<point x="796" y="1494" type="line"/>
			<point x="171" y="1388" type="line"/>
			<point x="163" y="1355" type="line"/>
			<point x="221" y="1294"/>
			<point x="277" y="1234"/>
		</contour>
	</outline>
	<anchor name="UCtop" x="906" y="1430"/>
	<anchor name="bottom" x="405" y="0"/>
</glyph>
<glyph name="d" format="2">
	<unicode hex="0064"/>
	<advance width="1327"/>
	<outline>
		<contour>
			<point x="950" y="751" type="curve"/>
			<point x="955" y="808" type="line"/>
			<point x="872" y="984"/>
			<point x="773" y="1054"/>
			<point x="665" y="1054" type="curve" smooth="yes"/>
			<point x="333" y="1054"/>
			<point x="-16" y="567"/>
			<point x="-16" y="191" type="curve" smooth="yes"/>
			<point x="-16" y="66"/>
			<point x="77" y="-30"/>
			<point x="222" y="-30" type="curve" smooth="yes"/>
			<point x="378" y="-30"/>
			<point x="528" y="36"/>
			<point x="790" y="496" type="curve"/>
			<point x="777" y="498" type="line"/>
			<point x="659" y="147" type="line" smooth="yes"/>
			<point x="624" y="42"/>
			<point x="671" y="-30"/>
			<point x="775" y="-30" type="curve" smooth="yes"/>
			<point x="938" y="-30"/>
			<point x="1135" y="85"/>
			<point x="1301" y="366" type="curve"/>
			<point x="1288" y="376" type="line"/>
			<point x="1107" y="166"/>
			<point x="997" y="149"/>
			<point x="895" y="145" type="curve"/>
			<point x="1025" y="86" type="line"/>
			<point x="1501" y="1494" type="line"/>
			<point x="1479" y="1494" type="line"/>
			<point x="852" y="1388" type="line"/>
			<point x="844" y="1355" type="line"/>
			<point x="901" y="1295.4585987261"/>
			<point x="965" y="1228.6050955414"/>
			<point x="1001" y="1191" type="curve"/>
			<point x="751" y="501" type="line"/>
			<point x="621" y="271"/>
			<point x="536" y="204"/>
			<point x="479" y="204" type="curve" smooth="yes"/>
			<point x="432" y="204"/>
			<point x="420" y="222"/>
			<point x="420" y="288" type="curve" smooth="yes"/>
			<point x="420" y="495"/>
			<point x="637" y="899"/>
			<point x="804" y="899" type="curve" smooth="yes"/>
			<point x="866" y="899"/>
			<point x="911" y="864"/>
		</contour>
	</outline>
	<anchor name="UCtop" x="1019" y="1430"/>
	<anchor name="right" x="1492" y="1464"/>
	<anchor name="bottom" x="515" y="0"/>
	<anchor name="center" x="1126" y="1207"/>
</glyph>
<glyph name="e" format="2">
  <advance width="1041"/>
  <unicode hex="0065"/>
  <anchor x="693.0" y="1024.0" name="top"/>
  <anchor x="796.0" y="0" name="right"/>
  <anchor x="349.0" y="0" name="bottom"/>
  <outline>
    <contour>
      <point x="712" y="984" type="curve" smooth="yes"/>
      <point x="743" y="984"/>
      <point x="761" y="963"/>
      <point x="761" y="897" type="curve" smooth="yes"/>
      <point x="761" y="752"/>
      <point x="685" y="640"/>
      <point x="317" y="497" type="curve"/>
      <point x="311" y="456" type="line"/>
      <point x="538" y="512"/>
      <point x="829" y="582"/>
      <point x="1005" y="646" type="curve"/>
      <point x="1050" y="704"/>
      <point x="1076" y="776"/>
      <point x="1076" y="855" type="curve" smooth="yes"/>
      <point x="1076" y="951"/>
      <point x="1012" y="1054"/>
      <point x="748" y="1054" type="curve" smooth="yes"/>
      <point x="249" y="1054"/>
      <point x="26" y="643"/>
      <point x="26" y="342" type="curve" smooth="yes"/>
      <point x="26" y="135"/>
      <point x="140" y="-30"/>
      <point x="413" y="-30" type="curve" smooth="yes"/>
      <point x="628" y="-30"/>
      <point x="818" y="47"/>
      <point x="967" y="438" type="curve"/>
      <point x="951" y="438" type="line"/>
      <point x="830" y="236"/>
      <point x="706" y="203"/>
      <point x="587" y="203" type="curve" smooth="yes"/>
      <point x="471" y="203"/>
      <point x="424" y="266"/>
      <point x="424" y="397" type="curve" smooth="yes"/>
      <point x="424" y="758"/>
      <point x="590" y="984"/>
    </contour>
  </outline>
</glyph>
<glyph name="g" format="2">
	<unicode hex="0067"/>
	<advance width="1118"/>
	<outline>
		<contour>
			<point x="1167" y="860" type="curve" smooth="yes"/>
			<point x="1256" y="860"/>
			<point x="1318" y="954"/>
			<point x="1318" y="1031" type="curve" smooth="yes"/>
			<point x="1318" y="1061"/>
			<point x="1299" y="1076"/>
			<point x="1272" y="1076" type="curve" smooth="yes"/>
			<point x="1216" y="1076"/>
			<point x="1120" y="1020"/>
			<point x="767" y="1043" type="curve"/>
			<point x="753" y="1005" type="line"/>
			<point x="1058" y="1055"/>
			<point x="1074" y="860"/>
		</contour>
		<contour>
			<point x="474" y="418" type="curve" smooth="yes"/>
			<point x="454" y="418"/>
			<point x="444" y="432"/>
			<point x="444" y="485" type="curve" smooth="yes"/>
			<point x="444" y="624"/>
			<point x="557" y="991"/>
			<point x="666" y="991" type="curve" smooth="yes"/>
			<point x="686" y="991"/>
			<point x="696" y="977"/>
			<point x="696" y="924" type="curve" smooth="yes"/>
			<point x="696" y="785"/>
			<point x="583" y="418"/>
		</contour>
		<contour>
			<point x="658" y="1054" type="curve" smooth="yes"/>
			<point x="325" y="1054"/>
			<point x="117" y="884"/>
			<point x="117" y="652" type="curve" smooth="yes"/>
			<point x="117" y="478"/>
			<point x="235" y="355"/>
			<point x="482" y="355" type="curve" smooth="yes"/>
			<point x="815" y="355"/>
			<point x="1023" y="525"/>
			<point x="1023" y="757" type="curve" smooth="yes"/>
			<point x="1023" y="931"/>
			<point x="905" y="1054"/>
		</contour>
		<contour>
			<point x="286" y="-465" type="curve" smooth="yes"/>
			<point x="701" y="-465"/>
			<point x="958" y="-319"/>
			<point x="958" y="-93" type="curve" smooth="yes"/>
			<point x="958" y="48.2525252525"/>
			<point x="822.252763005" y="154.9516903472"/>
			<point x="529" y="211" type="curve" smooth="yes"/>
			<point x="236.5750431733" y="266.8900941375"/>
			<point x="219" y="281"/>
			<point x="219" y="316" type="curve" smooth="yes"/>
			<point x="219" y="345"/>
			<point x="241" y="373"/>
			<point x="333" y="375" type="curve"/>
			<point x="337" y="407" type="line"/>
			<point x="106" y="408"/>
			<point x="-36" y="293"/>
			<point x="-36" y="140" type="curve" smooth="yes"/>
			<point x="-36" y="19"/>
			<point x="36" y="-74"/>
			<point x="303" y="-125" type="curve" smooth="yes"/>
			<point x="570" y="-176"/>
			<point x="650" y="-219"/>
			<point x="650" y="-279" type="curve" smooth="yes"/>
			<point x="650" y="-353"/>
			<point x="555" y="-398"/>
			<point x="373" y="-398" type="curve" smooth="yes"/>
			<point x="119" y="-398"/>
			<point x="59" y="-319"/>
			<point x="59" y="-238" type="curve" smooth="yes"/>
			<point x="59" y="-177"/>
			<point x="77" y="-119"/>
			<point x="191" y="-82" type="curve"/>
			<point x="191" y="-65" type="line"/>
			<point x="177" y="-65" type="line"/>
			<point x="-86" y="-105"/>
			<point x="-167" y="-171"/>
			<point x="-167" y="-266" type="curve" smooth="yes"/>
			<point x="-167" y="-372"/>
			<point x="-59" y="-465"/>
		</contour>
	</outline>
	<anchor name="top" x="652" y="1024"/>
	<anchor name="bottom" x="346" y="-435"/>
</glyph>
<glyph name="h" format="2">
	<unicode hex="0068"/>
	<advance width="1294"/>
	<outline>
		<contour>
			<point x="521" y="515" type="line"/>
			<point x="580" y="652"/>
			<point x="682" y="786"/>
			<point x="764" y="786" type="curve" smooth="yes"/>
			<point x="798" y="786"/>
			<point x="820" y="770"/>
			<point x="820" y="734" type="curve" smooth="yes"/>
			<point x="820" y="712"/>
			<point x="810" y="682"/>
			<point x="757" y="556" type="curve" smooth="yes"/>
			<point x="582" y="139" type="line" smooth="yes"/>
			<point x="542" y="43"/>
			<point x="590" y="-30"/>
			<point x="730" y="-30" type="curve" smooth="yes"/>
			<point x="893" y="-30"/>
			<point x="1076" y="73"/>
			<point x="1266" y="340" type="curve"/>
			<point x="1254" y="351" type="line"/>
			<point x="1055" y="158"/>
			<point x="943" y="151"/>
			<point x="842" y="157" type="curve"/>
			<point x="965" y="89" type="line"/>
			<point x="1177" y="611" type="line" smooth="yes"/>
			<point x="1235" y="753"/>
			<point x="1244" y="811"/>
			<point x="1244" y="865" type="curve" smooth="yes"/>
			<point x="1244" y="969"/>
			<point x="1172" y="1054"/>
			<point x="1009" y="1054" type="curve" smooth="yes"/>
			<point x="824" y="1054"/>
			<point x="700" y="975"/>
			<point x="492" y="534" type="curve"/>
			<point x="499" y="534" type="line"/>
			<point x="843" y="1494" type="line"/>
			<point x="821" y="1494" type="line"/>
			<point x="209" y="1388" type="line"/>
			<point x="201" y="1355" type="line"/>
			<point x="258" y="1294.625"/>
			<point x="317" y="1232.1315789474"/>
			<point x="353" y="1194" type="curve"/>
			<point x="-46" y="0" type="line"/>
			<point x="345" y="0" type="line"/>
		</contour>
	</outline>
	<anchor name="UCtop" x="923" y="1430"/>
	<anchor name="bottom" x="453" y="0"/>
	<anchor name="center" x="620" y="1207"/>
</glyph>
<glyph name="i" format="2">
	<unicode hex="0069"/>
	<advance width="742"/>
	<outline>
		<contour>
			<point x="66" y="196" type="line" smooth="yes"/>
			<point x="7" y="34"/>
			<point x="37" y="-30"/>
			<point x="189" y="-30" type="curve" smooth="yes"/>
			<point x="351" y="-30"/>
			<point x="547" y="74"/>
			<point x="708" y="344" type="curve"/>
			<point x="695" y="352" type="line"/>
			<point x="521" y="156"/>
			<point x="397" y="149"/>
			<point x="296" y="147" type="curve"/>
			<point x="424" y="88" type="line"/>
			<point x="699" y="842" type="line" smooth="yes"/>
			<point x="750" y="983"/>
			<point x="729" y="1040"/>
			<point x="573" y="1040" type="curve" smooth="yes"/>
			<point x="401" y="1040"/>
			<point x="215" y="939"/>
			<point x="36" y="678" type="curve"/>
			<point x="51" y="667" type="line"/>
			<point x="210" y="826"/>
			<point x="262" y="845"/>
			<point x="402" y="829" type="curve"/>
			<point x="337" y="936" type="line"/>
		</contour>
		<contour>
			<point x="456" y="1288" type="curve" smooth="yes"/>
			<point x="456" y="1194"/>
			<point x="523" y="1124"/>
			<point x="630" y="1124" type="curve" smooth="yes"/>
			<point x="759" y="1124"/>
			<point x="849" y="1215"/>
			<point x="849" y="1323" type="curve" smooth="yes"/>
			<point x="849" y="1417"/>
			<point x="782" y="1488"/>
			<point x="675" y="1488" type="curve" smooth="yes"/>
			<point x="546" y="1488"/>
			<point x="456" y="1396"/>
		</contour>
	</outline>
	<anchor name="top" x="681" y="1430"/>
	<anchor name="bottom" x="224" y="0"/>
	<anchor name="right" x="469" y="0"/>
</glyph>
<glyph name="l" format="2">
	<unicode hex="006C"/>
	<advance width="704"/>
	<outline>
		<contour>
			<point x="347" y="1195" type="curve"/>
			<point x="28" y="197" type="line" smooth="yes"/>
			<point x="-24" y="33"/>
			<point x="-1" y="-30"/>
			<point x="151" y="-30" type="curve" smooth="yes"/>
			<point x="314" y="-30"/>
			<point x="513" y="86"/>
			<point x="683" y="371" type="curve"/>
			<point x="670" y="379" type="line"/>
			<point x="481" y="166"/>
			<point x="361" y="149"/>
			<point x="256" y="147" type="curve"/>
			<point x="384" y="88" type="line"/>
			<point x="835" y="1494" type="line"/>
			<point x="813" y="1494" type="line"/>
			<point x="203" y="1388" type="line"/>
			<point x="195" y="1355" type="line"/>
			<point x="252" y="1295"/>
			<point x="311" y="1232.8947368421"/>
		</contour>
	</outline>
	<anchor name="UCtop" x="602" y="1430"/>
	<anchor name="right" x="825" y="1464"/>
	<anchor name="bottom" x="182" y="0"/>
	<anchor name="mid" x="779" y="582"/>
</glyph>
<glyph name="m" format="2">
	<unicode hex="006D"/>
	<advance width="1910"/>
	<outline>
		<contour>
			<point x="1581" y="89" type="line"/>
			<point x="1793" y="611" type="line" smooth="yes"/>
			<point x="1851" y="753"/>
			<point x="1860" y="811"/>
			<point x="1860" y="865" type="curve" smooth="yes"/>
			<point x="1860" y="969"/>
			<point x="1792" y="1054"/>
			<point x="1638" y="1054" type="curve" smooth="yes"/>
			<point x="1444" y="1054"/>
			<point x="1336" y="956"/>
			<point x="1101" y="459" type="curve"/>
			<point x="1123" y="459" type="line"/>
			<point x="1171" y="611" type="line" smooth="yes"/>
			<point x="1218" y="758"/>
			<point x="1229" y="815"/>
			<point x="1229" y="869" type="curve" smooth="yes"/>
			<point x="1229" y="973"/>
			<point x="1172" y="1054"/>
			<point x="1035" y="1054" type="curve" smooth="yes"/>
			<point x="867" y="1054"/>
			<point x="757" y="971"/>
			<point x="558" y="534" type="curve"/>
			<point x="565" y="534" type="line"/>
			<point x="720" y="1024" type="line"/>
			<point x="638" y="1042"/>
			<point x="597" y="1048"/>
			<point x="507" y="1048" type="curve" smooth="yes"/>
			<point x="294" y="1048"/>
			<point x="172" y="949"/>
			<point x="36" y="604" type="curve"/>
			<point x="48" y="598" type="line"/>
			<point x="153" y="803"/>
			<point x="213" y="828"/>
			<point x="262" y="828" type="curve" smooth="yes"/>
			<point x="291" y="828"/>
			<point x="295" y="803"/>
			<point x="282" y="765" type="curve" smooth="yes"/>
			<point x="23" y="0" type="line"/>
			<point x="411" y="0" type="line"/>
			<point x="587" y="515" type="line"/>
			<point x="645" y="650"/>
			<point x="735" y="786"/>
			<point x="808" y="786" type="curve" smooth="yes"/>
			<point x="830" y="786"/>
			<point x="841" y="775"/>
			<point x="841" y="756" type="curve" smooth="yes"/>
			<point x="841" y="732"/>
			<point x="832" y="701"/>
			<point x="781" y="556" type="curve" smooth="yes"/>
			<point x="585" y="0" type="line"/>
			<point x="986" y="0" type="line"/>
			<point x="1168" y="515" type="line"/>
			<point x="1227" y="651"/>
			<point x="1315" y="786"/>
			<point x="1393" y="786" type="curve" smooth="yes"/>
			<point x="1419" y="786"/>
			<point x="1436" y="773"/>
			<point x="1436" y="745" type="curve" smooth="yes"/>
			<point x="1436" y="715"/>
			<point x="1426" y="682"/>
			<point x="1373" y="556" type="curve" smooth="yes"/>
			<point x="1198" y="139" type="line" smooth="yes"/>
			<point x="1158" y="43"/>
			<point x="1206" y="-30"/>
			<point x="1346" y="-30" type="curve" smooth="yes"/>
			<point x="1509" y="-30"/>
			<point x="1692" y="73"/>
			<point x="1882" y="340" type="curve"/>
			<point x="1870" y="351" type="line"/>
			<point x="1671" y="158"/>
			<point x="1559" y="151"/>
			<point x="1458" y="157" type="curve"/>
		</contour>
	</outline>
	<anchor name="top" x="1129" y="1024"/>
	<anchor name="bottom" x="815" y="0"/>
</glyph>
<glyph name="n" format="2">
	<unicode hex="006E"/>
	<advance width="1360"/>
	<outline>
		<contour>
			<point x="48" y="598" type="line"/>
			<point x="153" y="803"/>
			<point x="213" y="828"/>
			<point x="262" y="828" type="curve" smooth="yes"/>
			<point x="291" y="828"/>
			<point x="295" y="803"/>
			<point x="282" y="765" type="curve" smooth="yes"/>
			<point x="23" y="0" type="line"/>
			<point x="411" y="0" type="line"/>
			<point x="587" y="515" type="line"/>
			<point x="646" y="652"/>
			<point x="748" y="786"/>
			<point x="830" y="786" type="curve" smooth="yes"/>
			<point x="864" y="786"/>
			<point x="886" y="770"/>
			<point x="886" y="734" type="curve" smooth="yes"/>
			<point x="886" y="712"/>
			<point x="876" y="682"/>
			<point x="823" y="556" type="curve" smooth="yes"/>
			<point x="648" y="139" type="line" smooth="yes"/>
			<point x="608" y="43"/>
			<point x="656" y="-30"/>
			<point x="796" y="-30" type="curve" smooth="yes"/>
			<point x="959" y="-30"/>
			<point x="1142" y="73"/>
			<point x="1332" y="340" type="curve"/>
			<point x="1320" y="351" type="line"/>
			<point x="1121" y="158"/>
			<point x="1009" y="151"/>
			<point x="908" y="157" type="curve"/>
			<point x="1031" y="89" type="line"/>
			<point x="1243" y="611" type="line" smooth="yes"/>
			<point x="1301" y="753"/>
			<point x="1310" y="811"/>
			<point x="1310" y="865" type="curve" smooth="yes"/>
			<point x="1310" y="969"/>
			<point x="1238" y="1054"/>
			<point x="1075" y="1054" type="curve" smooth="yes"/>
			<point x="890" y="1054"/>
			<point x="766" y="975"/>
			<point x="558" y="534" type="curve"/>
			<point x="565" y="534" type="line"/>
			<point x="720" y="1024" type="line"/>
			<point x="638" y="1042"/>
			<point x="597" y="1048"/>
			<point x="507" y="1048" type="curve" smooth="yes"/>
			<point x="294" y="1048"/>
			<point x="172" y="949"/>
			<point x="36" y="604" type="curve"/>
		</contour>
	</outline>
	<anchor name="top" x="855" y="1024"/>
	<anchor name="bottom" x="541" y="0"/>
</glyph>
<glyph name="o" format="2">
	<unicode hex="006F"/>
	<advance width="1160"/>
	<outline>
		<contour>
			<point x="721" y="1054" type="curve" smooth="yes"/>
			<point x="347" y="1054"/>
			<point x="33" y="738"/>
			<point x="33" y="368" type="curve" smooth="yes"/>
			<point x="33" y="127"/>
			<point x="172" y="-30"/>
			<point x="438" y="-30" type="curve" smooth="yes"/>
			<point x="812" y="-30"/>
			<point x="1126" y="286"/>
			<point x="1126" y="656" type="curve" smooth="yes"/>
			<point x="1126" y="897"/>
			<point x="987" y="1054"/>
		</contour>
		<contour>
			<point x="405" y="43" type="curve" smooth="yes"/>
			<point x="377" y="43"/>
			<point x="363" y="56"/>
			<point x="363" y="106" type="curve" smooth="yes"/>
			<point x="363" y="415"/>
			<point x="599" y="981"/>
			<point x="754" y="981" type="curve" smooth="yes"/>
			<point x="782" y="981"/>
			<point x="796" y="968"/>
			<point x="796" y="918" type="curve" smooth="yes"/>
			<point x="796" y="609"/>
			<point x="560" y="43"/>
		</contour>
	</outline>
	<anchor name="top" x="746" y="1024"/>
	<anchor name="bottom" x="402" y="0"/>
	<anchor name="horn" x="893" y="1024"/>
	<anchor name="right" x="529" y="0"/>
</glyph>
<glyph name="p" format="2">
	<unicode hex="0070"/>
	<advance width="1330"/>
	<outline>
		<contour>
			<point x="502" y="276" type="curve" smooth="yes"/>
			<point x="587" y="589" type="line"/>
			<point x="693" y="789"/>
			<point x="767" y="822"/>
			<point x="820" y="822" type="curve" smooth="yes"/>
			<point x="867" y="822"/>
			<point x="885" y="789"/>
			<point x="885" y="701" type="curve" smooth="yes"/>
			<point x="885" y="400"/>
			<point x="696" y="43"/>
			<point x="565" y="43" type="curve" smooth="yes"/>
			<point x="508" y="43"/>
			<point x="487" y="102"/>
			<point x="487" y="170" type="curve" smooth="yes"/>
			<point x="487" y="205"/>
			<point x="493" y="243"/>
		</contour>
		<contour>
			<point x="306" y="122" type="line"/>
			<point x="337.1741573034" y="28.4775280899"/>
			<point x="434" y="-30"/>
			<point x="613" y="-30" type="curve" smooth="yes"/>
			<point x="1022" y="-30"/>
			<point x="1313" y="354"/>
			<point x="1313" y="732" type="curve" smooth="yes"/>
			<point x="1313" y="937.3622291022"/>
			<point x="1208" y="1054"/>
			<point x="1050" y="1054" type="curve" smooth="yes"/>
			<point x="865" y="1054"/>
			<point x="704.7311444726" y="928.3796993388"/>
			<point x="552" y="576" type="curve"/>
			<point x="568" y="576" type="line"/>
			<point x="713" y="1025" type="line"/>
			<point x="634" y="1042"/>
			<point x="594" y="1048"/>
			<point x="507" y="1048" type="curve" smooth="yes"/>
			<point x="294" y="1048"/>
			<point x="172" y="949"/>
			<point x="36" y="604" type="curve"/>
			<point x="48" y="598" type="line"/>
			<point x="153" y="803"/>
			<point x="213" y="828"/>
			<point x="262" y="828" type="curve" smooth="yes"/>
			<point x="291" y="828"/>
			<point x="294" y="803"/>
			<point x="282" y="765" type="curve" smooth="yes"/>
			<point x="-70" y="-368" type="line"/>
			<point x="-178" y="-404" type="line"/>
			<point x="-184" y="-435" type="line"/>
			<point x="428" y="-435" type="line"/>
			<point x="435" y="-403" type="line"/>
			<point x="337" y="-369" type="line"/>
			<point x="479" y="107" type="line"/>
		</contour>
	</outline>
	<anchor name="top" x="832" y="1024"/>
	<anchor name="bottom" x="113" y="-435"/>
</glyph>
<glyph name="q" format="2">
	<unicode hex="0071"/>
	<advance width="1297"/>
	<outline>
		<contour>
			<point x="510" y="-370" type="line"/>
			<point x="395" y="-403" type="line"/>
			<point x="384" y="-435" type="line"/>
			<point x="991" y="-435" type="line"/>
			<point x="1001" y="-404" type="line"/>
			<point x="918" y="-368" type="line"/>
			<point x="1337" y="1024" type="line"/>
			<point x="962" y="1024" type="line"/>
			<point x="906" y="875" type="line"/>
			<point x="751" y="501" type="line"/>
			<point x="621" y="271"/>
			<point x="536" y="204"/>
			<point x="479" y="204" type="curve" smooth="yes"/>
			<point x="432" y="204"/>
			<point x="420" y="222"/>
			<point x="420" y="288" type="curve" smooth="yes"/>
			<point x="420" y="495"/>
			<point x="637" y="899"/>
			<point x="804" y="899" type="curve" smooth="yes"/>
			<point x="866" y="899"/>
			<point x="911" y="864"/>
			<point x="950" y="751" type="curve"/>
			<point x="955" y="808" type="line"/>
			<point x="872" y="984"/>
			<point x="773" y="1054"/>
			<point x="665" y="1054" type="curve" smooth="yes"/>
			<point x="333" y="1054"/>
			<point x="-16" y="567"/>
			<point x="-16" y="191" type="curve" smooth="yes"/>
			<point x="-16" y="66"/>
			<point x="77" y="-30"/>
			<point x="222" y="-30" type="curve" smooth="yes"/>
			<point x="378" y="-30"/>
			<point x="528" y="36"/>
			<point x="790" y="496" type="curve"/>
			<point x="771" y="496" type="line"/>
		</contour>
	</outline>
	<anchor name="top" x="857" y="1024"/>
	<anchor name="bottom" x="694" y="-435"/>
</glyph>
<glyph name="t" format="2">
	<unicode hex="0074"/>
	<advance width="835"/>
	<outline>
		<contour>
			<point x="118" y="949" type="line"/>
			<point x="972" y="949" type="line"/>
			<point x="988" y="1024" type="line"/>
			<point x="135" y="1024" type="line"/>
		</contour>
		<contour>
			<point x="562" y="485" type="curve" smooth="yes"/>
			<point x="876" y="1341" type="line"/>
			<point x="472" y="1341" type="line"/>
			<point x="149" y="459" type="line" smooth="yes"/>
			<point x="90" y="298"/>
			<point x="80" y="209"/>
			<point x="80" y="163" type="curve" smooth="yes"/>
			<point x="80" y="17"/>
			<point x="173" y="-30"/>
			<point x="273" y="-30" type="curve" smooth="yes"/>
			<point x="404" y="-30"/>
			<point x="572" y="11"/>
			<point x="806" y="377" type="curve"/>
			<point x="790" y="390" type="line"/>
			<point x="660" y="247"/>
			<point x="605" y="221"/>
			<point x="552" y="221" type="curve" smooth="yes"/>
			<point x="521" y="221"/>
			<point x="503" y="233"/>
			<point x="503" y="264" type="curve" smooth="yes"/>
			<point x="503" y="296"/>
			<point x="511" y="346"/>
		</contour>
	</outline>
	<anchor name="right" x="911" y="1535"/>
	<anchor name="bottom" x="287" y="0"/>
</glyph>
<glyph name="w" format="2">
  <advance width="1805"/>
  <unicode hex="0077"/>
  <anchor x="1154.0" y="1024.0" name="top"/>
  <anchor x="910.0" y="0" name="bottom"/>
  <outline>
    <contour>
      <point x="1004" y="1024" type="line"/>
      <point x="894" y="593" type="line" smooth="yes"/>
      <point x="808" y="257"/>
      <point x="700" y="176"/>
      <point x="616" y="176" type="curve" smooth="yes"/>
      <point x="562" y="176"/>
      <point x="530" y="196"/>
      <point x="530" y="262" type="curve" smooth="yes"/>
      <point x="530" y="301"/>
      <point x="541" y="356"/>
      <point x="565" y="432" type="curve" smooth="yes"/>
      <point x="753" y="1025" type="line"/>
      <point x="660" y="1044"/>
      <point x="612" y="1048"/>
      <point x="527" y="1048" type="curve" smooth="yes"/>
      <point x="286" y="1048"/>
      <point x="173" y="947"/>
      <point x="37" y="604" type="curve"/>
      <point x="49" y="598" type="line"/>
      <point x="154" y="803"/>
      <point x="214" y="828"/>
      <point x="263" y="828" type="curve" smooth="yes"/>
      <point x="292" y="828"/>
      <point x="296" y="804"/>
      <point x="283" y="765" type="curve" smooth="yes"/>
      <point x="159" y="396" type="line" smooth="yes"/>
      <point x="134" y="321"/>
      <point x="121" y="254"/>
      <point x="121" y="196" type="curve" smooth="yes"/>
      <point x="121" y="55"/>
      <point x="200" y="-30"/>
      <point x="382" y="-30" type="curve" smooth="yes"/>
      <point x="551" y="-30"/>
      <point x="751" y="59"/>
      <point x="923" y="510" type="curve"/>
      <point x="907" y="510" type="line"/>
      <point x="865" y="350" type="line" smooth="yes"/>
      <point x="853" y="304"/>
      <point x="847" y="263"/>
      <point x="847" y="226" type="curve" smooth="yes"/>
      <point x="847" y="54"/>
      <point x="966" y="-30"/>
      <point x="1131" y="-30" type="curve" smooth="yes"/>
      <point x="1498" y="-30"/>
      <point x="1797" y="465"/>
      <point x="1797" y="846" type="curve" smooth="yes"/>
      <point x="1797" y="980"/>
      <point x="1745" y="1054"/>
      <point x="1638" y="1054" type="curve" smooth="yes"/>
      <point x="1532" y="1054"/>
      <point x="1473" y="983"/>
      <point x="1473" y="904" type="curve" smooth="yes"/>
      <point x="1473" y="776"/>
      <point x="1642" y="722"/>
      <point x="1642" y="551" type="curve" smooth="yes"/>
      <point x="1642" y="351"/>
      <point x="1507" y="176"/>
      <point x="1365" y="176" type="curve" smooth="yes"/>
      <point x="1288" y="176"/>
      <point x="1246" y="216"/>
      <point x="1246" y="313" type="curve" smooth="yes"/>
      <point x="1246" y="346"/>
      <point x="1251" y="385"/>
      <point x="1261" y="432" type="curve" smooth="yes"/>
      <point x="1386" y="1024" type="line"/>
    </contour>
  </outline>
</glyph>
<glyph name="x" format="2">
  <advance width="1169"/>
  <unicode hex="0078"/>
  <anchor x="771.0" y="1024.0" name="top"/>
  <anchor x="427.0" y="0" name="bottom"/>
  <outline>
    <contour>
      <point x="619" y="447" type="line"/>
      <point x="732" y="624" type="line" smooth="yes"/>
      <point x="823" y="767"/>
      <point x="920" y="847"/>
      <point x="986" y="847" type="curve" smooth="yes"/>
      <point x="1029" y="847"/>
      <point x="1043" y="831"/>
      <point x="1047" y="779" type="curve" smooth="yes"/>
      <point x="1051" y="727"/>
      <point x="1069" y="707"/>
      <point x="1123" y="707" type="curve" smooth="yes"/>
      <point x="1215" y="707"/>
      <point x="1299" y="794"/>
      <point x="1299" y="910" type="curve" smooth="yes"/>
      <point x="1299" y="1003"/>
      <point x="1224" y="1054"/>
      <point x="1127" y="1054" type="curve" smooth="yes"/>
      <point x="1023" y="1054"/>
      <point x="946" y="1006"/>
      <point x="839" y="845" type="curve" smooth="yes"/>
      <point x="618" y="513" type="line"/>
      <point x="535" y="551" type="line"/>
      <point x="410" y="354" type="line" smooth="yes"/>
      <point x="337" y="239"/>
      <point x="252" y="178"/>
      <point x="198" y="178" type="curve" smooth="yes"/>
      <point x="156.0" y="178.0"/>
      <point x="139" y="196"/>
      <point x="137" y="243" type="curve" smooth="yes"/>
      <point x="135.0" y="290.0"/>
      <point x="116.0" y="313.0"/>
      <point x="61" y="313" type="curve" smooth="yes"/>
      <point x="-34" y="313"/>
      <point x="-111" y="236"/>
      <point x="-111" y="116" type="curve" smooth="yes"/>
      <point x="-111" y="23"/>
      <point x="-50" y="-30"/>
      <point x="48" y="-30" type="curve" smooth="yes"/>
      <point x="170" y="-30"/>
      <point x="270" y="41"/>
      <point x="386" y="235" type="curve" smooth="yes"/>
      <point x="537" y="487" type="line"/>
    </contour>
    <contour>
      <point x="1083.0" y="394.0" type="curve"/>
      <point x="1066.0" y="394.0" type="line"/>
      <point x="1013.0" y="239.0"/>
      <point x="948.0" y="179.0"/>
      <point x="893.0" y="179.0" type="curve" smooth="yes"/>
      <point x="868.0" y="179.0"/>
      <point x="859.0" y="190.0"/>
      <point x="844.0" y="256.0" type="curve" smooth="yes"/>
      <point x="718.0" y="818.0" type="line" smooth="yes"/>
      <point x="676.0" y="1003.0"/>
      <point x="638.0" y="1054.0"/>
      <point x="508.0" y="1054.0" type="curve" smooth="yes"/>
      <point x="328.0" y="1054.0"/>
      <point x="184.0" y="942.0"/>
      <point x="105.0" y="614.0" type="curve"/>
      <point x="122.0" y="614.0" type="line"/>
      <point x="178.0" y="778.0"/>
      <point x="232.0" y="845.0"/>
      <point x="283.0" y="845.0" type="curve" smooth="yes"/>
      <point x="308.0" y="845.0"/>
      <point x="317.0" y="834.0"/>
      <point x="332.0" y="768.0" type="curve" smooth="yes"/>
      <point x="458.0" y="206.0" type="line" smooth="yes"/>
      <point x="499.0" y="21.0"/>
      <point x="538.0" y="-30.0"/>
      <point x="668.0" y="-30.0" type="curve" smooth="yes"/>
      <point x="853.0" y="-30.0"/>
      <point x="1007.0" y="77.0"/>
    </contour>
  </outline>
</glyph>
<glyph name="y" format="2">
	<unicode hex="0079"/>
	<advance width="1137"/>
	<outline>
		<contour>
			<point x="52" y="574" type="line"/>
			<point x="112" y="780"/>
			<point x="141" y="815"/>
			<point x="177" y="815" type="curve" smooth="yes"/>
			<point x="200" y="815"/>
			<point x="219" y="798"/>
			<point x="249" y="708" type="curve" smooth="yes"/>
			<point x="292" y="577"/>
			<point x="347" y="294"/>
			<point x="434" y="-312" type="curve"/>
			<point x="762" y="-7" type="line"/>
			<point x="704" y="499"/>
			<point x="643" y="767"/>
			<point x="595" y="889" type="curve" smooth="yes"/>
			<point x="547" y="1011"/>
			<point x="490" y="1054"/>
			<point x="390" y="1054" type="curve" smooth="yes"/>
			<point x="205" y="1054"/>
			<point x="103" y="929"/>
			<point x="35" y="574" type="curve"/>
		</contour>
		<contour>
			<point x="611" y="-69" type="line"/>
			<point x="458" y="-285"/>
			<point x="276" y="-381"/>
			<point x="155" y="-381" type="curve" smooth="yes"/>
			<point x="93" y="-381"/>
			<point x="67" y="-350"/>
			<point x="87" y="-238" type="curve" smooth="yes"/>
			<point x="107" y="-126"/>
			<point x="84" y="-78"/>
			<point x="0" y="-78" type="curve" smooth="yes"/>
			<point x="-117" y="-78"/>
			<point x="-187" y="-164"/>
			<point x="-187" y="-267" type="curve" smooth="yes"/>
			<point x="-187" y="-383"/>
			<point x="-116" y="-465"/>
			<point x="25" y="-465" type="curve" smooth="yes"/>
			<point x="265" y="-465"/>
			<point x="480" y="-361"/>
			<point x="720" y="-60" type="curve" smooth="yes"/>
			<point x="960" y="241"/>
			<point x="1175" y="786"/>
			<point x="1175" y="999" type="curve" smooth="yes"/>
			<point x="1175" y="1029"/>
			<point x="1151" y="1044"/>
			<point x="1089" y="1044" type="curve" smooth="yes"/>
			<point x="1028" y="1044"/>
			<point x="951" y="1035"/>
			<point x="895" y="1024" type="curve"/>
			<point x="895" y="520"/>
			<point x="812" y="141"/>
			<point x="644" y="-84" type="curve"/>
		</contour>
	</outline>
	<anchor name="top" x="731" y="1024"/>
	<anchor name="bottom" x="892" y="-100"/>
</glyph>
<glyph name="z" format="2">
	<unicode hex="007A"/>
	<advance width="990"/>
	<outline>
		<contour>
			<point x="-59" y="25" type="line"/>
			<point x="-16" y="-20" type="line"/>
			<point x="1039" y="1007" type="line"/>
			<point x="996" y="1052" type="line"/>
		</contour>
		<contour>
			<point x="62" y="599" type="line"/>
			<point x="157" y="786"/>
			<point x="238" y="816"/>
			<point x="397" y="752" type="curve" smooth="yes"/>
			<point x="645" y="653" type="line"/>
			<point x="863" y="903" type="line"/>
			<point x="530" y="1031" type="line" smooth="yes"/>
			<point x="342" y="1103"/>
			<point x="185" y="997"/>
			<point x="44" y="604" type="curve"/>
		</contour>
		<contour>
			<point x="403" y="15" type="line" smooth="yes"/>
			<point x="621" y="-97"/>
			<point x="836" y="-2"/>
			<point x="996" y="466" type="curve"/>
			<point x="978" y="466" type="line"/>
			<point x="880" y="253"/>
			<point x="775" y="189"/>
			<point x="578" y="295" type="curve" smooth="yes"/>
			<point x="367" y="408" type="line"/>
			<point x="134" y="165" type="line"/>
		</contour>
	</outline>
	<anchor name="top" x="587" y="1024"/>
	<anchor name="bottom" x="333" y="0"/>
</glyph>
<glyph name="braceleft" format="2">
	<unicode hex="007B"/>
	<advance width="581"/>
	<outline>
		<contour>
			<point x="64" y="619" type="line"/>
			<point x="133" y="608" type="line" smooth="yes"/>
			<point x="199" y="597"/>
			<point x="222" y="575"/>
			<point x="222" y="538" type="curve" smooth="yes"/>
			<point x="222" y="408"/>
			<point x="10" y="185"/>
			<point x="10" y="7" type="curve" smooth="yes"/>
			<point x="10" y="-97"/>
			<point x="73" y="-174"/>
			<point x="219" y="-200" type="curve" smooth="yes"/>
			<point x="318" y="-218" type="line"/>
			<point x="327" y="-184" type="line"/>
			<point x="279" y="-165" type="line" smooth="yes"/>
			<point x="230" y="-146"/>
			<point x="211" y="-119"/>
			<point x="211" y="-72" type="curve" smooth="yes"/>
			<point x="211" y="95"/>
			<point x="377" y="341"/>
			<point x="377" y="463" type="curve" smooth="yes"/>
			<point x="377" y="553"/>
			<point x="311" y="622"/>
			<point x="199" y="639" type="curve"/>
			<point x="196" y="627" type="line"/>
			<point x="342" y="654"/>
			<point x="437" y="710"/>
			<point x="486" y="844" type="curve" smooth="yes"/>
			<point x="535" y="978"/>
			<point x="537" y="1133"/>
			<point x="570" y="1241" type="curve" smooth="yes"/>
			<point x="603" y="1349"/>
			<point x="669" y="1430"/>
			<point x="781" y="1448" type="curve" smooth="yes"/>
			<point x="837" y="1457" type="line"/>
			<point x="833" y="1494" type="line"/>
			<point x="735" y="1486" type="line" smooth="yes"/>
			<point x="507" y="1467"/>
			<point x="379" y="1378"/>
			<point x="338" y="1244" type="curve" smooth="yes"/>
			<point x="297" y="1110"/>
			<point x="326" y="918"/>
			<point x="296" y="806" type="curve" smooth="yes"/>
			<point x="266" y="694"/>
			<point x="232" y="678"/>
			<point x="120" y="663" type="curve" smooth="yes"/>
			<point x="76" y="657" type="line"/>
		</contour>
	</outline>
</glyph>
<glyph name="bar" format="2">
	<unicode hex="007C"/>
	<advance width="395"/>
	<outline>
		<contour>
			<point x="-143" y="-465" type="line"/>
			<point x="-60" y="-465" type="line"/>
			<point x="552" y="1535" type="line"/>
			<point x="468" y="1535" type="line"/>
		</contour>
	</outline>
</glyph>
<glyph name="braceright" format="2">
  <advance width="582"/>
  <unicode hex="007D"/>
  <outline>
    <contour>
      <point x="594.0" y="657.0" type="line"/>
      <point x="525.0" y="668.0" type="line" smooth="yes"/>
      <point x="459.0" y="679.0"/>
      <point x="436.0" y="701.0"/>
      <point x="436.0" y="738.0" type="curve" smooth="yes"/>
      <point x="436.0" y="868.0"/>
      <point x="648.0" y="1091.0"/>
      <point x="648.0" y="1269.0" type="curve" smooth="yes"/>
      <point x="648.0" y="1373.0"/>
      <point x="585.0" y="1450.0"/>
      <point x="439.0" y="1476.0" type="curve" smooth="yes"/>
      <point x="340.0" y="1494.0" type="line"/>
      <point x="331.0" y="1460.0" type="line"/>
      <point x="379.0" y="1441.0" type="line" smooth="yes"/>
      <point x="428.0" y="1422.0"/>
      <point x="447.0" y="1395.0"/>
      <point x="447.0" y="1348.0" type="curve" smooth="yes"/>
      <point x="447.0" y="1181.0"/>
      <point x="281.0" y="935.0"/>
      <point x="281.0" y="813.0" type="curve" smooth="yes"/>
      <point x="281.0" y="723.0"/>
      <point x="347.0" y="654.0"/>
      <point x="459.0" y="637.0" type="curve"/>
      <point x="462.0" y="649.0" type="line"/>
      <point x="316.0" y="622.0"/>
      <point x="221.0" y="566.0"/>
      <point x="172.0" y="432.0" type="curve" smooth="yes"/>
      <point x="123.0" y="298.0"/>
      <point x="121.0" y="143.0"/>
      <point x="88.0" y="35.0" type="curve" smooth="yes"/>
      <point x="55.0" y="-73.0"/>
      <point x="-11.0" y="-154.0"/>
      <point x="-123.0" y="-172.0" type="curve" smooth="yes"/>
      <point x="-179.0" y="-181.0" type="line"/>
      <point x="-175.0" y="-218.0" type="line"/>
      <point x="-77.0" y="-210.0" type="line" smooth="yes"/>
      <point x="151.0" y="-191.0"/>
      <point x="279.0" y="-102.0"/>
      <point x="320.0" y="32.0" type="curve" smooth="yes"/>
      <point x="361.0" y="166.0"/>
      <point x="332.0" y="358.0"/>
      <point x="362.0" y="470.0" type="curve" smooth="yes"/>
      <point x="392.0" y="582.0"/>
      <point x="426.0" y="598.0"/>
      <point x="538.0" y="613.0" type="curve" smooth="yes"/>
      <point x="582.0" y="619.0" type="line"/>
    </contour>
  </outline>
</glyph>
<glyph name="asciitilde" format="2">
  <advance width="1150"/>
  <unicode hex="007E"/>
  <outline>
    <contour>
      <point x="1023.0" y="628.0" type="curve"/>
      <point x="922.0" y="628.0" type="line"/>
      <point x="885.0" y="524.0"/>
      <point x="839.0" y="483.0"/>
      <point x="760.0" y="483.0" type="curve" smooth="yes"/>
      <point x="624.0" y="483.0"/>
      <point x="576.0" y="636.0"/>
      <point x="400.0" y="636.0" type="curve" smooth="yes"/>
      <point x="293.0" y="636.0"/>
      <point x="186.0" y="584.0"/>
      <point x="127.0" y="396.0" type="curve"/>
      <point x="228.0" y="396.0" type="line"/>
      <point x="265.0" y="500.0"/>
      <point x="311.0" y="541.0"/>
      <point x="390.0" y="541.0" type="curve" smooth="yes"/>
      <point x="526.0" y="541.0"/>
      <point x="574.0" y="388.0"/>
      <point x="750.0" y="388.0" type="curve" smooth="yes"/>
      <point x="857.0" y="388.0"/>
      <point x="964.0" y="440.0"/>
    </contour>
  </outline>
</glyph>
<glyph name="exclamdown" format="2">
	<unicode hex="00A1"/>
	<advance width="610"/>
	<outline>
		<contour>
			<point x="-161" y="-222" type="line" smooth="yes"/>
			<point x="-188" y="-357"/>
			<point x="-80" y="-434"/>
			<point x="42" y="-434" type="curve" smooth="yes"/>
			<point x="182" y="-434"/>
			<point x="298" y="-355"/>
			<point x="325" y="-222" type="curve" smooth="yes"/>
			<point x="329" y="-202" type="line" smooth="yes"/>
			<point x="350" y="-99"/>
			<point x="280" y="98"/>
			<point x="312" y="473" type="curve"/>
			<point x="270" y="473" type="line"/>
			<point x="73" y="98"/>
			<point x="-126" y="-49"/>
			<point x="-157" y="-202" type="curve" smooth="yes"/>
		</contour>
		<contour>
			<point x="360" y="630" type="curve" smooth="yes"/>
			<point x="506" y="630"/>
			<point x="616" y="742"/>
			<point x="616" y="888" type="curve" smooth="yes"/>
			<point x="616" y="984"/>
			<point x="551" y="1050"/>
			<point x="448" y="1050" type="curve" smooth="yes"/>
			<point x="302" y="1050"/>
			<point x="192" y="938"/>
			<point x="192" y="792" type="curve" smooth="yes"/>
			<point x="192" y="696"/>
			<point x="257" y="630"/>
		</contour>
	</outline>
</glyph>
<glyph name="currency" format="2">
	<unicode hex="00A4"/>
	<advance width="891"/>
	<outline>
		<contour>
			<point x="183" y="813" type="line"/>
			<point x="258" y="699" type="line"/>
			<point x="342" y="758" type="line"/>
			<point x="264" y="871" type="line"/>
		</contour>
		<contour>
			<point x="815" y="848" type="line"/>
			<point x="668" y="735" type="line"/>
			<point x="717" y="664" type="line"/>
			<point x="865" y="775" type="line"/>
		</contour>
		<contour>
			<point x="707" y="211" type="line"/>
			<point x="632" y="325" type="line"/>
			<point x="548" y="266" type="line"/>
			<point x="626" y="153" type="line"/>
		</contour>
		<contour>
			<point x="25" y="249" type="line"/>
			<point x="75" y="176" type="line"/>
			<point x="222" y="289" type="line"/>
			<point x="173" y="360" type="line"/>
		</contour>
		<contour>
			<point x="517" y="819" type="curve" smooth="yes"/>
			<point x="297" y="819"/>
			<point x="127" y="642"/>
			<point x="127" y="443" type="curve" smooth="yes"/>
			<point x="127" y="304"/>
			<point x="222" y="205"/>
			<point x="373" y="205" type="curve" smooth="yes"/>
			<point x="593" y="205"/>
			<point x="763" y="382"/>
			<point x="763" y="581" type="curve" smooth="yes"/>
			<point x="763" y="720"/>
			<point x="668" y="819"/>
		</contour>
		<contour>
			<point x="394" y="295" type="curve" smooth="yes"/>
			<point x="290" y="295"/>
			<point x="225" y="363"/>
			<point x="225" y="462" type="curve" smooth="yes"/>
			<point x="225" y="604"/>
			<point x="337" y="729"/>
			<point x="496" y="729" type="curve" smooth="yes"/>
			<point x="600" y="729"/>
			<point x="665" y="661"/>
			<point x="665" y="562" type="curve" smooth="yes"/>
			<point x="665" y="420"/>
			<point x="553" y="295"/>
		</contour>
	</outline>
</glyph>
<glyph name="brokenbar" format="2">
	<unicode hex="00A6"/>
	<advance width="395"/>
	<outline>
		<contour>
			<point x="304" y="725" type="line"/>
			<point x="552" y="1535" type="line"/>
			<point x="468" y="1535" type="line"/>
			<point x="221" y="725" type="line"/>
		</contour>
		<contour>
			<point x="-143" y="-465" type="line"/>
			<point x="-60" y="-465" type="line"/>
			<point x="188" y="345" type="line"/>
			<point x="104" y="345" type="line"/>
		</contour>
	</outline>
</glyph>
<glyph name="section" format="2">
	<unicode hex="00A7"/>
	<advance width="1249"/>
	<outline>
		<contour>
			<point x="510" y="855" type="curve"/>
			<point x="491" y="879" type="line"/>
			<point x="194" y="802"/>
			<point x="98" y="694"/>
			<point x="98" y="537" type="curve" smooth="yes"/>
			<point x="98" y="171"/>
			<point x="628" y="213"/>
			<point x="628" y="-6" type="curve" smooth="yes"/>
			<point x="628" y="-80"/>
			<point x="567" y="-138"/>
			<point x="455" y="-138" type="curve" smooth="yes"/>
			<point x="276" y="-138"/>
			<point x="200" y="94"/>
			<point x="165" y="94" type="curve" smooth="yes"/>
			<point x="81" y="94"/>
			<point x="23" y="37"/>
			<point x="23" y="-43" type="curve" smooth="yes"/>
			<point x="23" y="-142"/>
			<point x="130" y="-218"/>
			<point x="371" y="-218" type="curve" smooth="yes"/>
			<point x="775" y="-218"/>
			<point x="953" y="-23"/>
			<point x="953" y="195" type="curve" smooth="yes"/>
			<point x="953" y="551"/>
			<point x="396" y="513"/>
			<point x="396" y="721" type="curve" smooth="yes"/>
			<point x="396" y="775"/>
			<point x="433" y="818"/>
		</contour>
		<contour>
			<point x="919" y="521" type="curve" smooth="yes"/>
			<point x="919" y="467"/>
			<point x="882" y="424"/>
			<point x="805" y="387" type="curve"/>
			<point x="824" y="363" type="line"/>
			<point x="1121" y="440"/>
			<point x="1217" y="548"/>
			<point x="1217" y="705" type="curve" smooth="yes"/>
			<point x="1217" y="1071"/>
			<point x="687" y="1029"/>
			<point x="687" y="1248" type="curve" smooth="yes"/>
			<point x="687" y="1322"/>
			<point x="748" y="1380"/>
			<point x="860" y="1380" type="curve" smooth="yes"/>
			<point x="1039" y="1380"/>
			<point x="1115" y="1148"/>
			<point x="1150" y="1148" type="curve" smooth="yes"/>
			<point x="1234" y="1148"/>
			<point x="1292" y="1205"/>
			<point x="1292" y="1285" type="curve" smooth="yes"/>
			<point x="1292" y="1384"/>
			<point x="1185" y="1460"/>
			<point x="944" y="1460" type="curve" smooth="yes"/>
			<point x="540" y="1460"/>
			<point x="362" y="1265"/>
			<point x="362" y="1047" type="curve" smooth="yes"/>
			<point x="362" y="691"/>
			<point x="919" y="729"/>
		</contour>
	</outline>
</glyph>
<glyph name="copyright" format="2">
	<unicode hex="00A9"/>
	<advance width="1749"/>
	<outline>
		<contour>
			<point x="966" y="330" type="curve" smooth="yes"/>
			<point x="881" y="330"/>
			<point x="824" y="395"/>
			<point x="824" y="554" type="curve" smooth="yes"/>
			<point x="824" y="821"/>
			<point x="927" y="1107"/>
			<point x="1085" y="1107" type="curve" smooth="yes"/>
			<point x="1147" y="1107"/>
			<point x="1188" y="1086"/>
			<point x="1231" y="1031" type="curve"/>
			<point x="1183" y="1112" type="line"/>
			<point x="1296" y="849" type="line"/>
			<point x="1318" y="851" type="line"/>
			<point x="1319" y="1207" type="line"/>
			<point x="1310" y="1207" type="line"/>
			<point x="1188" y="1126" type="line"/>
			<point x="1288" y="1149" type="line"/>
			<point x="1215" y="1168"/>
			<point x="1173" y="1174"/>
			<point x="1107" y="1174" type="curve" smooth="yes"/>
			<point x="717" y="1174"/>
			<point x="478" y="921"/>
			<point x="478" y="624" type="curve" smooth="yes"/>
			<point x="478" y="403"/>
			<point x="621" y="265"/>
			<point x="923" y="265" type="curve" smooth="yes"/>
			<point x="1021" y="265"/>
			<point x="1078" y="274"/>
			<point x="1152" y="295" type="curve"/>
			<point x="1276" y="550" type="line"/>
			<point x="1251" y="550" type="line"/>
			<point x="1019" y="322" type="line"/>
			<point x="1095" y="371" type="line"/>
			<point x="1048" y="343"/>
			<point x="1009" y="330"/>
		</contour>
		<contour>
			<point x="846" y="35" type="curve" smooth="yes"/>
			<point x="456" y="35"/>
			<point x="252" y="255"/>
			<point x="252" y="629" type="curve" smooth="yes"/>
			<point x="252" y="1044"/>
			<point x="576" y="1395"/>
			<point x="1027" y="1395" type="curve" smooth="yes"/>
			<point x="1417" y="1395"/>
			<point x="1621" y="1175"/>
			<point x="1621" y="801" type="curve" smooth="yes"/>
			<point x="1621" y="386"/>
			<point x="1297" y="35"/>
		</contour>
		<contour>
			<point x="1027" y="1460" type="curve" smooth="yes"/>
			<point x="541" y="1460"/>
			<point x="172" y="1081"/>
			<point x="172" y="621" type="curve" smooth="yes"/>
			<point x="172" y="212"/>
			<point x="402" y="-30"/>
			<point x="846" y="-30" type="curve" smooth="yes"/>
			<point x="1332" y="-30"/>
			<point x="1701" y="349"/>
			<point x="1701" y="809" type="curve" smooth="yes"/>
			<point x="1701" y="1218"/>
			<point x="1471" y="1460"/>
		</contour>
	</outline>
</glyph>
<glyph name="ordfeminine" format="2">
  <advance width="962"/>
  <unicode hex="00AA"/>
  <guideline x="1073.0" y="1430.0" angle="0.973257205550756" identifier="iuaLEMA0js"/>
  <outline>
    <contour>
      <point x="149.0" y="560.0" type="line"/>
      <point x="846.0" y="560.0" type="line"/>
      <point x="870.0" y="639.0" type="line"/>
      <point x="173.0" y="639.0" type="line"/>
    </contour>
    <contour>
      <point x="631.0" y="871.0" type="line" smooth="yes"/>
      <point x="613.0" y="818.0"/>
      <point x="642.0" y="780.0"/>
      <point x="719.0" y="780.0" type="curve" smooth="yes"/>
      <point x="825.0" y="780.0"/>
      <point x="941.0" y="850.0"/>
      <point x="1044.0" y="1024.0" type="curve"/>
      <point x="1033.0" y="1033.0" type="line"/>
      <point x="943.0" y="933.0"/>
      <point x="886.0" y="902.0"/>
      <point x="781.0" y="898.0" type="curve"/>
      <point x="878.0" y="851.0" type="line"/>
      <point x="1082.0" y="1430.0" type="line"/>
      <point x="817.0" y="1430.0" type="line"/>
      <point x="791.0" y="1350.0" type="line"/>
      <point x="697.0" y="1108.0" type="line"/>
      <point x="621.0" y="993.0"/>
      <point x="597.0" y="967.0"/>
      <point x="561.0" y="967.0" type="curve" smooth="yes"/>
      <point x="536.0" y="967.0"/>
      <point x="529.0" y="980.0"/>
      <point x="529.0" y="1009.0" type="curve" smooth="yes"/>
      <point x="529.0" y="1143.0"/>
      <point x="653.0" y="1353.0"/>
      <point x="756.0" y="1353.0" type="curve" smooth="yes"/>
      <point x="794.0" y="1353.0"/>
      <point x="823.0" y="1331.0"/>
      <point x="851.0" y="1262.0" type="curve"/>
      <point x="853.0" y="1297.0" type="line"/>
      <point x="796.0" y="1405.0"/>
      <point x="732.0" y="1448.0"/>
      <point x="662.0" y="1448.0" type="curve" smooth="yes"/>
      <point x="450.0" y="1448.0"/>
      <point x="233.0" y="1155.0"/>
      <point x="233.0" y="924.0" type="curve" smooth="yes"/>
      <point x="233.0" y="843.0"/>
      <point x="290.0" y="780.0"/>
      <point x="390.0" y="780.0" type="curve" smooth="yes"/>
      <point x="491.0" y="780.0"/>
      <point x="559.0" y="820.0"/>
      <point x="722.0" y="1105.0" type="curve"/>
      <point x="711.0" y="1109.0" type="line"/>
    </contour>
  </outline>
</glyph>
<glyph name="guillemotleft" format="2">
  <advance width="917"/>
  <unicode hex="00AB"/>
  <outline>
    <contour>
      <point x="302.0" y="592.0" type="line"/>
      <point x="235.0" y="372.0" type="line"/>
      <point x="613.0" y="964.0" type="line"/>
      <point x="597.0" y="980.0" type="line"/>
      <point x="39.0" y="532.0" type="line"/>
      <point x="33.0" y="512.0" type="line"/>
      <point x="317.0" y="64.0" type="line"/>
      <point x="340.0" y="70.0" type="line"/>
    </contour>
    <contour>
      <point x="682.0" y="592.0" type="line"/>
      <point x="615.0" y="372.0" type="line"/>
      <point x="993.0" y="964.0" type="line"/>
      <point x="977.0" y="980.0" type="line"/>
      <point x="419.0" y="532.0" type="line"/>
      <point x="413.0" y="512.0" type="line"/>
      <point x="697.0" y="64.0" type="line"/>
      <point x="720.0" y="70.0" type="line"/>
    </contour>
  </outline>
</glyph>
<glyph name="logicalnot" format="2">
	<unicode hex="00AC"/>
	<advance width="1150"/>
	<outline>
		<contour>
			<point x="226" y="756" type="line"/>
			<point x="196" y="659" type="line"/>
			<point x="921" y="659" type="line"/>
			<point x="801" y="268" type="line"/>
			<point x="898" y="268" type="line"/>
			<point x="1048" y="756" type="line"/>
		</contour>
	</outline>
</glyph>
<glyph name="registered" format="2">
  <advance width="1079"/>
  <unicode hex="00AE"/>
  <outline>
    <contour>
      <point x="902.0" y="859.0" type="line"/>
      <point x="879.0" y="859.0"/>
      <point x="869.0" y="866.0"/>
      <point x="871.0" y="901.0" type="curve" smooth="yes"/>
      <point x="874.0" y="962.0" type="line" smooth="yes"/>
      <point x="877.0" y="1021.0"/>
      <point x="857.0" y="1047.0"/>
      <point x="790.0" y="1051.0" type="curve"/>
      <point x="796.0" y="1050.0" type="line"/>
      <point x="898.0" y="1051.0"/>
      <point x="959.0" y="1098.0"/>
      <point x="959.0" y="1166.0" type="curve" smooth="yes"/>
      <point x="959.0" y="1212.0"/>
      <point x="932.0" y="1254.0"/>
      <point x="831.0" y="1254.0" type="curve" smooth="yes"/>
      <point x="701.0" y="1254.0" type="line"/>
      <point x="688.0" y="1214.0" type="line"/>
      <point x="782.0" y="1214.0" type="line" smooth="yes"/>
      <point x="811.0" y="1214.0"/>
      <point x="826.0" y="1205.0"/>
      <point x="826.0" y="1178.0" type="curve" smooth="yes"/>
      <point x="826.0" y="1124.0"/>
      <point x="794.0" y="1065.0"/>
      <point x="732.0" y="1065.0" type="curve" smooth="yes"/>
      <point x="643.0" y="1065.0" type="line"/>
      <point x="631.0" y="1026.0" type="line"/>
      <point x="703.0" y="1026.0" type="line" smooth="yes"/>
      <point x="743.0" y="1026.0"/>
      <point x="747.0" y="1012.0"/>
      <point x="746.0" y="986.0" type="curve" smooth="yes"/>
      <point x="743.0" y="918.0" type="line" smooth="yes"/>
      <point x="739.0" y="829.0"/>
      <point x="752.0" y="812.0"/>
      <point x="892.0" y="828.0" type="curve"/>
    </contour>
    <contour>
      <point x="754.0" y="1254.0" type="line"/>
      <point x="559.0" y="1254.0" type="line"/>
      <point x="552.0" y="1232.0" type="line"/>
      <point x="600.0" y="1217.0" type="line"/>
      <point x="493.0" y="867.0" type="line"/>
      <point x="435.0" y="850.0" type="line"/>
      <point x="428.0" y="828.0" type="line"/>
      <point x="675.0" y="828.0" type="line"/>
      <point x="682.0" y="850.0" type="line"/>
      <point x="635.0" y="867.0" type="line"/>
    </contour>
    <contour>
      <point x="643.0" y="660.0" type="curve" smooth="yes"/>
      <point x="440.0" y="660.0"/>
      <point x="321.0" y="775.0"/>
      <point x="321.0" y="977.0" type="curve" smooth="yes"/>
      <point x="321.0" y="1233.0"/>
      <point x="495.0" y="1406.0"/>
      <point x="745.0" y="1406.0" type="curve" smooth="yes"/>
      <point x="948.0" y="1406.0"/>
      <point x="1067.0" y="1291.0"/>
      <point x="1067.0" y="1089.0" type="curve" smooth="yes"/>
      <point x="1067.0" y="833.0"/>
      <point x="893.0" y="660.0"/>
    </contour>
    <contour>
      <point x="747.0" y="1460.0" type="curve" smooth="yes"/>
      <point x="469.0" y="1460.0"/>
      <point x="258.0" y="1263.0"/>
      <point x="258.0" y="976.0" type="curve" smooth="yes"/>
      <point x="258.0" y="757.0"/>
      <point x="387.0" y="606.0"/>
      <point x="641.0" y="606.0" type="curve" smooth="yes"/>
      <point x="919.0" y="606.0"/>
      <point x="1130.0" y="803.0"/>
      <point x="1130.0" y="1090.0" type="curve" smooth="yes"/>
      <point x="1130.0" y="1309.0"/>
      <point x="1001.0" y="1460.0"/>
    </contour>
  </outline>
</glyph>
<glyph name="degree" format="2">
	<unicode hex="00B0"/>
	<advance width="740"/>
	<outline>
		<contour>
			<point x="613" y="1450" type="curve" smooth="yes"/>
			<point x="382" y="1450"/>
			<point x="239" y="1288"/>
			<point x="239" y="1092" type="curve" smooth="yes"/>
			<point x="239" y="950"/>
			<point x="344" y="850"/>
			<point x="505" y="850" type="curve" smooth="yes"/>
			<point x="736" y="850"/>
			<point x="879" y="1012"/>
			<point x="879" y="1208" type="curve" smooth="yes"/>
			<point x="879" y="1350"/>
			<point x="774" y="1450"/>
		</contour>
		<contour>
			<point x="523" y="937" type="curve" smooth="yes"/>
			<point x="406" y="937"/>
			<point x="339" y="1008"/>
			<point x="339" y="1105" type="curve" smooth="yes"/>
			<point x="339" y="1246"/>
			<point x="432" y="1363"/>
			<point x="595" y="1363" type="curve" smooth="yes"/>
			<point x="712" y="1363"/>
			<point x="779" y="1292"/>
			<point x="779" y="1195" type="curve" smooth="yes"/>
			<point x="779" y="1054"/>
			<point x="686" y="937"/>
		</contour>
	</outline>
</glyph>
<glyph name="plusminus" format="2">
	<unicode hex="00B1"/>
	<advance width="1150"/>
	<outline>
		<contour>
			<point x="682" y="1024" type="line"/>
			<point x="430" y="202" type="line"/>
			<point x="526" y="202" type="line"/>
			<point x="778" y="1024" type="line"/>
		</contour>
		<contour>
			<point x="208" y="661" type="line"/>
			<point x="178" y="565" type="line"/>
			<point x="1000" y="565" type="line"/>
			<point x="1030" y="661" type="line"/>
		</contour>
		<contour>
			<point x="37" y="96" type="line"/>
			<point x="7" y="0" type="line"/>
			<point x="829" y="0" type="line"/>
			<point x="859" y="96" type="line"/>
		</contour>
	</outline>
</glyph>
<glyph name="uni00B2" format="2">
	<unicode hex="00B2"/>
	<advance width="749"/>
	<outline>
		<contour>
			<point x="526" y="769" type="line"/>
			<point x="792" y="898" type="line"/>
			<point x="402" y="898" type="line"/>
			<point x="392" y="876" type="line"/>
			<point x="468" y="909" type="line" smooth="yes"/>
			<point x="770" y="1040"/>
			<point x="838" y="1138"/>
			<point x="838" y="1259" type="curve" smooth="yes"/>
			<point x="838" y="1380"/>
			<point x="745" y="1450"/>
			<point x="606" y="1450" type="curve" smooth="yes"/>
			<point x="409" y="1450"/>
			<point x="286" y="1328"/>
			<point x="212" y="1125" type="curve"/>
			<point x="244" y="1113" type="line"/>
			<point x="296" y="1221"/>
			<point x="354" y="1254"/>
			<point x="434" y="1254" type="curve" smooth="yes"/>
			<point x="499" y="1254"/>
			<point x="543" y="1218"/>
			<point x="543" y="1158" type="curve" smooth="yes"/>
			<point x="543" y="1071"/>
			<point x="480" y="964"/>
			<point x="274" y="800" type="curve" smooth="yes"/>
			<point x="121" y="678" type="line"/>
			<point x="117" y="662" type="line"/>
			<point x="598" y="662" type="line"/>
			<point x="657" y="623" type="line"/>
			<point x="675" y="623" type="line"/>
			<point x="869" y="999" type="line"/>
			<point x="852" y="999" type="line"/>
		</contour>
	</outline>
</glyph>
<glyph name="uni00B3" format="2">
	<unicode hex="00B3"/>
	<advance width="691"/>
	<outline>
		<contour>
			<point x="362" y="1014" type="line"/>
			<point x="389" y="1018" type="line" smooth="yes"/>
			<point x="482" y="1032"/>
			<point x="520" y="1013"/>
			<point x="520" y="960" type="curve" smooth="yes"/>
			<point x="520" y="892"/>
			<point x="466" y="701"/>
			<point x="343" y="701" type="curve" smooth="yes"/>
			<point x="255" y="701"/>
			<point x="225" y="841"/>
			<point x="202" y="841" type="curve" smooth="yes"/>
			<point x="134" y="841"/>
			<point x="104" y="803"/>
			<point x="104" y="753" type="curve" smooth="yes"/>
			<point x="104" y="698"/>
			<point x="149" y="642"/>
			<point x="318" y="642" type="curve" smooth="yes"/>
			<point x="615" y="642"/>
			<point x="776" y="781"/>
			<point x="776" y="949" type="curve" smooth="yes"/>
			<point x="776" y="1033"/>
			<point x="723" y="1104"/>
			<point x="567" y="1100" type="curve"/>
			<point x="561" y="1096" type="line"/>
			<point x="744" y="1114"/>
			<point x="799" y="1212"/>
			<point x="799" y="1296" type="curve" smooth="yes"/>
			<point x="799" y="1376"/>
			<point x="740" y="1449"/>
			<point x="616" y="1449" type="curve" smooth="yes"/>
			<point x="434.9888892318" y="1449"/>
			<point x="332.3444231844" y="1344.8332818978"/>
			<point x="270" y="1194" type="curve"/>
			<point x="301" y="1180" type="line"/>
			<point x="338" y="1251"/>
			<point x="394" y="1284"/>
			<point x="462" y="1284" type="curve" smooth="yes"/>
			<point x="518" y="1284"/>
			<point x="555" y="1256"/>
			<point x="555" y="1206" type="curve" smooth="yes"/>
			<point x="555" y="1146"/>
			<point x="509" y="1091"/>
			<point x="356" y="1058" type="curve"/>
		</contour>
	</outline>
</glyph>
<glyph name="uni00B5" format="2">
	<unicode hex="00B5"/>
	<advance width="1336"/>
	<outline>
		<contour>
			<point x="717" y="456" type="line"/>
			<point x="640" y="282"/>
			<point x="594" y="233"/>
			<point x="541" y="233" type="curve" smooth="yes"/>
			<point x="506" y="233"/>
			<point x="491" y="248"/>
			<point x="491" y="289" type="curve" smooth="yes"/>
			<point x="491" y="314"/>
			<point x="495" y="350"/>
			<point x="522" y="430" type="curve" smooth="yes"/>
			<point x="720" y="1024" type="line"/>
			<point x="319" y="1024" type="line"/>
			<point x="-135" y="-460" type="line"/>
			<point x="-125" y="-460" type="line"/>
			<point x="190" y="-433" type="line"/>
			<point x="127" y="200" type="line"/>
			<point x="78" y="170" type="line"/>
			<point x="78" y="54"/>
			<point x="121" y="-30"/>
			<point x="291" y="-30" type="curve" smooth="yes"/>
			<point x="452" y="-30"/>
			<point x="606" y="104"/>
			<point x="764" y="489" type="curve"/>
			<point x="757" y="513" type="line"/>
			<point x="652" y="130" type="line" smooth="yes"/>
			<point x="623" y="24"/>
			<point x="665" y="-30"/>
			<point x="741" y="-30" type="curve" smooth="yes"/>
			<point x="904" y="-30"/>
			<point x="1086" y="85"/>
			<point x="1252" y="366" type="curve"/>
			<point x="1242" y="374" type="line"/>
			<point x="1061" y="165"/>
			<point x="942" y="162"/>
			<point x="840" y="158" type="curve"/>
			<point x="976" y="86" type="line"/>
			<point x="1292" y="1024" type="line"/>
			<point x="903" y="1024" type="line"/>
		</contour>
	</outline>
</glyph>
<glyph name="paragraph" format="2">
	<unicode hex="00B6"/>
	<advance width="1233"/>
	<outline>
		<contour>
			<point x="521" y="-218" type="line"/>
			<point x="1001" y="1351" type="line"/>
			<point x="1182" y="1351" type="line"/>
			<point x="1206" y="1430" type="line"/>
			<point x="939" y="1430" type="line"/>
			<point x="435" y="-218" type="line"/>
		</contour>
		<contour>
			<point x="764" y="-218" type="line"/>
			<point x="1244" y="1352" type="line"/>
			<point x="1445" y="1394" type="line"/>
			<point x="1456" y="1430" type="line"/>
			<point x="1182" y="1430" type="line"/>
			<point x="678" y="-218" type="line"/>
		</contour>
		<contour>
			<point x="1001" y="1430" type="line"/>
			<point x="724" y="1430" type="line" smooth="yes"/>
			<point x="329" y="1430"/>
			<point x="208" y="1166"/>
			<point x="208" y="958" type="curve" smooth="yes"/>
			<point x="208" y="806"/>
			<point x="297" y="687"/>
			<point x="530" y="687" type="curve" smooth="yes"/>
			<point x="774" y="687" type="line"/>
		</contour>
	</outline>
</glyph>
<glyph name="uni00B9" format="2">
	<unicode hex="00B9"/>
	<advance width="547"/>
	<outline>
		<contour>
			<point x="233" y="723" type="line"/>
			<point x="104" y="687" type="line"/>
			<point x="96" y="662" type="line"/>
			<point x="571" y="662" type="line"/>
			<point x="579" y="687" type="line"/>
			<point x="485" y="723" type="line"/>
			<point x="707" y="1450" type="line"/>
			<point x="673" y="1450" type="line"/>
			<point x="234" y="1257" type="line"/>
			<point x="244" y="1222" type="line"/>
			<point x="578" y="1283" type="line"/>
			<point x="417" y="1327" type="line"/>
		</contour>
	</outline>
</glyph>
<glyph name="ordmasculine" format="2">
	<unicode hex="00BA"/>
	<advance width="937"/>
	<outline>
		<contour>
			<point x="136" y="560" type="line"/>
			<point x="833" y="560" type="line"/>
			<point x="857" y="639" type="line"/>
			<point x="160" y="639" type="line"/>
		</contour>
		<contour>
			<point x="748" y="1460" type="curve"/>
			<point x="486" y="1460"/>
			<point x="269" y="1266"/>
			<point x="269" y="1038" type="curve" smooth="yes"/>
			<point x="269" y="883"/>
			<point x="368" y="780"/>
			<point x="561" y="780" type="curve"/>
			<point x="823" y="780"/>
			<point x="1040" y="974"/>
			<point x="1040" y="1202" type="curve" smooth="yes"/>
			<point x="1040" y="1357"/>
			<point x="941" y="1460"/>
		</contour>
		<contour>
			<point x="556" y="836" type="curve"/>
			<point x="534" y="836"/>
			<point x="525" y="848"/>
			<point x="524" y="901" type="curve" smooth="yes"/>
			<point x="521" y="1090"/>
			<point x="653" y="1404"/>
			<point x="753" y="1404" type="curve"/>
			<point x="775" y="1404"/>
			<point x="784" y="1392"/>
			<point x="785" y="1339" type="curve" smooth="yes"/>
			<point x="788" y="1150"/>
			<point x="656" y="836"/>
		</contour>
	</outline>
</glyph>
<glyph name="guillemotright" format="2">
	<unicode hex="00BB"/>
	<advance width="987"/>
	<outline>
		<contour>
			<point x="267" y="453" type="line"/>
			<point x="334" y="673" type="line"/>
			<point x="-44" y="81" type="line"/>
			<point x="-28" y="65" type="line"/>
			<point x="530" y="513" type="line"/>
			<point x="536" y="533" type="line"/>
			<point x="252" y="981" type="line"/>
			<point x="229" y="975" type="line"/>
		</contour>
		<contour>
			<point x="647" y="453" type="line"/>
			<point x="714" y="673" type="line"/>
			<point x="336" y="81" type="line"/>
			<point x="352" y="65" type="line"/>
			<point x="910" y="513" type="line"/>
			<point x="916" y="533" type="line"/>
			<point x="632" y="981" type="line"/>
			<point x="609" y="975" type="line"/>
		</contour>
	</outline>
</glyph>
<glyph name="questiondown" format="2">
	<unicode hex="00BF"/>
	<advance width="1086"/>
	<outline>
		<contour>
			<point x="678" y="628" type="curve" smooth="yes"/>
			<point x="824" y="628"/>
			<point x="934" y="740"/>
			<point x="934" y="886" type="curve" smooth="yes"/>
			<point x="934" y="982"/>
			<point x="869" y="1048"/>
			<point x="766" y="1048" type="curve" smooth="yes"/>
			<point x="620" y="1048"/>
			<point x="510" y="936"/>
			<point x="510" y="790" type="curve" smooth="yes"/>
			<point x="510" y="694"/>
			<point x="575" y="628"/>
		</contour>
		<contour>
			<point x="487" y="-436" type="curve" smooth="yes"/>
			<point x="737" y="-436"/>
			<point x="817" y="-347"/>
			<point x="817" y="-244" type="curve" smooth="yes"/>
			<point x="817" y="-169"/>
			<point x="770" y="-110"/>
			<point x="696" y="-110" type="curve" smooth="yes"/>
			<point x="659" y="-110"/>
			<point x="474" y="-324"/>
			<point x="301" y="-324" type="curve" smooth="yes"/>
			<point x="202" y="-324"/>
			<point x="134" y="-265"/>
			<point x="134" y="-177" type="curve" smooth="yes"/>
			<point x="134" y="-25"/>
			<point x="229" y="57"/>
			<point x="580" y="39" type="curve"/>
			<point x="656" y="471" type="line"/>
			<point x="611" y="471" type="line"/>
			<point x="471" y="148" type="line"/>
			<point x="594" y="350" type="line"/>
			<point x="144" y="382"/>
			<point x="2" y="229"/>
			<point x="2" y="-29" type="curve" smooth="yes"/>
			<point x="2" y="-244"/>
			<point x="157" y="-436"/>
		</contour>
	</outline>
</glyph>
<glyph name="AE" format="2">
	<unicode hex="00C6"/>
	<advance width="2236"/>
	<outline>
		<contour>
			<point x="69" y="86" type="line"/>
			<point x="1245" y="1346" type="line"/>
			<point x="1229" y="1353" type="line"/>
			<point x="837" y="81" type="line"/>
			<point x="676" y="27" type="line"/>
			<point x="669" y="0" type="line"/>
			<point x="1273" y="0" type="line"/>
			<point x="1711" y="1430" type="line"/>
			<point x="978" y="1430" type="line"/>
			<point x="971" y="1403" type="line"/>
			<point x="1145" y="1347" type="line"/>
			<point x="-32" y="89" type="line"/>
			<point x="-190" y="27" type="line"/>
			<point x="-200" y="0" type="line"/>
			<point x="212" y="0" type="line"/>
			<point x="222" y="27" type="line"/>
		</contour>
		<contour>
			<point x="1881" y="-81" type="line"/>
			<point x="1912" y="-81" type="line"/>
			<point x="2203" y="453" type="line"/>
			<point x="2163" y="477" type="line"/>
			<point x="1722" y="55" type="line"/>
			<point x="1910" y="78" type="line"/>
			<point x="1070" y="78" type="line"/>
			<point x="1035" y="0" type="line"/>
			<point x="1742" y="0" type="line"/>
		</contour>
		<contour>
			<point x="403" y="495" type="line"/>
			<point x="1128" y="495" type="line"/>
			<point x="1151" y="573" type="line"/>
			<point x="426" y="573" type="line"/>
		</contour>
		<contour>
			<point x="1756" y="455" type="line"/>
			<point x="1795" y="455" type="line"/>
			<point x="1852" y="746" type="line"/>
			<point x="1974" y="1039" type="line"/>
			<point x="1935" y="1039" type="line"/>
			<point x="1759" y="803" type="line"/>
			<point x="1413" y="766" type="line"/>
			<point x="1391" y="727" type="line"/>
			<point x="1730" y="694" type="line"/>
		</contour>
		<contour>
			<point x="2248" y="984" type="line"/>
			<point x="2292" y="984" type="line"/>
			<point x="2354" y="1517" type="line"/>
			<point x="2328" y="1517" type="line"/>
			<point x="2141" y="1430" type="line"/>
			<point x="1472" y="1430" type="line"/>
			<point x="1439" y="1352" type="line"/>
			<point x="2260" y="1352" type="line"/>
			<point x="2131" y="1383" type="line"/>
		</contour>
	</outline>
	<anchor name="UCtop" x="1458" y="1430"/>
	<anchor name="bottom" x="1040" y="0"/>
</glyph>
<glyph name="Ccedilla" format="2">
	<unicode hex="00C7"/>
	<advance width="1428"/>
	<outline>
		<contour>
			<point x="1043" y="106" type="line"/>
			<point x="982" y="75"/>
			<point x="905" y="57"/>
			<point x="818" y="57" type="curve" smooth="yes"/>
			<point x="637" y="57"/>
			<point x="528" y="198"/>
			<point x="528" y="468" type="curve" smooth="yes"/>
			<point x="528" y="879"/>
			<point x="741" y="1378"/>
			<point x="1123" y="1378" type="curve" smooth="yes"/>
			<point x="1219" y="1378"/>
			<point x="1301" y="1347"/>
			<point x="1376" y="1216" type="curve"/>
			<point x="1314" y="1342" type="line"/>
			<point x="1443" y="930" type="line"/>
			<point x="1483" y="930" type="line"/>
			<point x="1533" y="1510" type="line"/>
			<point x="1518" y="1510" type="line"/>
			<point x="1310" y="1395" type="line"/>
			<point x="1511" y="1405" type="line"/>
			<point x="1388" y="1442"/>
			<point x="1265" y="1460"/>
			<point x="1132" y="1460" type="curve" smooth="yes"/>
			<point x="480" y="1460"/>
			<point x="101" y="977"/>
			<point x="101" y="503" type="curve" smooth="yes"/>
			<point x="101" y="200"/>
			<point x="291" y="-30"/>
			<point x="798" y="-30" type="curve" smooth="yes"/>
			<point x="929" y="-30"/>
			<point x="1031" y="-15"/>
			<point x="1166" y="16" type="curve"/>
			<point x="1362" y="417" type="line"/>
			<point x="1325" y="417" type="line"/>
			<point x="959" y="55" type="line"/>
		</contour>
		<contour>
			<point x="605" y="-408" type="curve" smooth="yes"/>
			<point x="530" y="-408"/>
			<point x="489" y="-312"/>
			<point x="474" y="-312" type="curve" smooth="yes"/>
			<point x="436" y="-312"/>
			<point x="408" y="-336"/>
			<point x="408" y="-380" type="curve" smooth="yes"/>
			<point x="408" y="-424"/>
			<point x="445" y="-465"/>
			<point x="547" y="-465" type="curve" smooth="yes"/>
			<point x="734" y="-465"/>
			<point x="850" y="-350"/>
			<point x="850" y="-240" type="curve" smooth="yes"/>
			<point x="850" y="-174"/>
			<point x="806" y="-121"/>
			<point x="644" y="-69" type="curve"/>
			<point x="589" y="-190" type="line"/>
			<point x="809" y="49" type="line"/>
			<point x="739" y="49" type="line"/>
			<point x="494" y="-224" type="line"/>
			<point x="494" y="-229" type="line"/>
			<point x="658" y="-265"/>
			<point x="693" y="-302"/>
			<point x="693" y="-341" type="curve" smooth="yes"/>
			<point x="693" y="-380"/>
			<point x="662" y="-408"/>
		</contour>
	</outline>
</glyph>
<glyph name="multiply" format="2">
	<unicode hex="00D7"/>
	<advance width="1150"/>
	<outline>
		<contour>
			<point x="124" y="226" type="line"/>
			<point x="174" y="153" type="line"/>
			<point x="1026" y="798" type="line"/>
			<point x="976" y="871" type="line"/>
		</contour>
		<contour>
			<point x="318" y="815" type="line"/>
			<point x="756" y="153" type="line"/>
			<point x="832" y="209" type="line"/>
			<point x="394" y="871" type="line"/>
		</contour>
	</outline>
</glyph>
<glyph name="Oslash" format="2">
	<unicode hex="00D8"/>
	<advance width="1606"/>
	<outline>
		<contour>
			<point x="1818" y="1430" type="line"/>
			<point x="1692" y="1430" type="line"/>
			<point x="1419" y="1211" type="line"/>
			<point x="1300" y="1156" type="line"/>
			<point x="382" y="338" type="line"/>
			<point x="261" y="281" type="line"/>
			<point x="-89" y="0" type="line"/>
			<point x="37" y="0" type="line"/>
			<point x="310" y="219" type="line"/>
			<point x="429" y="274" type="line"/>
			<point x="1347" y="1092" type="line"/>
			<point x="1468" y="1149" type="line"/>
		</contour>
		<contour>
			<point x="519" y="257" type="curve" smooth="yes"/>
			<point x="519" y="615"/>
			<point x="785" y="1376"/>
			<point x="1094" y="1376" type="curve" smooth="yes"/>
			<point x="1172" y="1376"/>
			<point x="1210" y="1318"/>
			<point x="1210" y="1173" type="curve" smooth="yes"/>
			<point x="1210" y="815"/>
			<point x="944" y="54"/>
			<point x="635" y="54" type="curve" smooth="yes"/>
			<point x="557" y="54"/>
			<point x="519" y="112"/>
		</contour>
		<contour>
			<point x="1626" y="928" type="curve" smooth="yes"/>
			<point x="1626" y="1237"/>
			<point x="1452" y="1460"/>
			<point x="1073" y="1460" type="curve" smooth="yes"/>
			<point x="489" y="1460"/>
			<point x="103" y="942"/>
			<point x="103" y="502" type="curve" smooth="yes"/>
			<point x="103" y="193"/>
			<point x="277" y="-30"/>
			<point x="656" y="-30" type="curve" smooth="yes"/>
			<point x="1240" y="-30"/>
			<point x="1626" y="488"/>
		</contour>
	</outline>
	<anchor name="UCtop" x="1115" y="1430"/>
	<anchor name="bottom" x="607" y="0"/>
</glyph>
<glyph name="Thorn" format="2">
	<unicode hex="00DE"/>
	<advance width="1454"/>
	<outline>
		<contour>
			<point x="701" y="399" type="curve" smooth="yes"/>
			<point x="373" y="399" type="line"/>
			<point x="363" y="321" type="line"/>
			<point x="813" y="321" type="line" smooth="yes"/>
			<point x="1246" y="321"/>
			<point x="1474" y="524"/>
			<point x="1474" y="801" type="curve" smooth="yes"/>
			<point x="1474" y="984"/>
			<point x="1349" y="1137"/>
			<point x="991" y="1137" type="curve" smooth="yes"/>
			<point x="616" y="1137" type="line"/>
			<point x="565" y="1059" type="line"/>
			<point x="836" y="1059" type="line" smooth="yes"/>
			<point x="979" y="1059"/>
			<point x="1045" y="1014"/>
			<point x="1045" y="889" type="curve" smooth="yes"/>
			<point x="1045" y="660"/>
			<point x="932" y="399"/>
		</contour>
		<contour>
			<point x="449" y="1353" type="line"/>
			<point x="57" y="81" type="line"/>
			<point x="-104" y="27" type="line"/>
			<point x="-111" y="0" type="line"/>
			<point x="645" y="0" type="line"/>
			<point x="651" y="27" type="line"/>
			<point x="516" y="77" type="line"/>
			<point x="907" y="1349" type="line"/>
			<point x="1068" y="1403" type="line"/>
			<point x="1075" y="1430" type="line"/>
			<point x="320" y="1430" type="line"/>
			<point x="313" y="1403" type="line"/>
		</contour>
	</outline>
</glyph>
<glyph name="ae" format="2">
	<unicode hex="00E6"/>
	<advance width="1729"/>
	<outline>
		<contour>
			<point x="1212" y="846" type="line"/>
			<point x="1271" y="1024" type="line"/>
			<point x="929" y="1024" type="line"/>
			<point x="885" y="894" type="line"/>
			<point x="751" y="501" type="line"/>
			<point x="602" y="237"/>
			<point x="536" y="204"/>
			<point x="479" y="204" type="curve" smooth="yes"/>
			<point x="432" y="204"/>
			<point x="420" y="222"/>
			<point x="420" y="288" type="curve" smooth="yes"/>
			<point x="420" y="495"/>
			<point x="627" y="899"/>
			<point x="804" y="899" type="curve" smooth="yes"/>
			<point x="847" y="899"/>
			<point x="882" y="882"/>
			<point x="913" y="833" type="curve"/>
			<point x="924" y="867" type="line"/>
			<point x="848" y="1000"/>
			<point x="760" y="1054"/>
			<point x="665" y="1054" type="curve" smooth="yes"/>
			<point x="333" y="1054"/>
			<point x="-16" y="567"/>
			<point x="-16" y="191" type="curve" smooth="yes"/>
			<point x="-16" y="66"/>
			<point x="77" y="-30"/>
			<point x="222" y="-30" type="curve" smooth="yes"/>
			<point x="374" y="-30"/>
			<point x="531" y="30"/>
			<point x="772" y="464" type="curve"/>
			<point x="757" y="464" type="line"/>
			<point x="725" y="159"/>
			<point x="856" y="-30"/>
			<point x="1137" y="-30" type="curve" smooth="yes"/>
			<point x="1338" y="-30"/>
			<point x="1507" y="50"/>
			<point x="1655" y="438" type="curve"/>
			<point x="1639" y="438" type="line"/>
			<point x="1521" y="241"/>
			<point x="1418" y="203"/>
			<point x="1311" y="203" type="curve" smooth="yes"/>
			<point x="1195" y="203"/>
			<point x="1148" y="266"/>
			<point x="1148" y="397" type="curve" smooth="yes"/>
			<point x="1148" y="758"/>
			<point x="1314" y="984"/>
			<point x="1436" y="984" type="curve" smooth="yes"/>
			<point x="1467" y="984"/>
			<point x="1485" y="963"/>
			<point x="1485" y="897" type="curve" smooth="yes"/>
			<point x="1485" y="752"/>
			<point x="1409" y="640"/>
			<point x="1041" y="497" type="curve"/>
			<point x="1035" y="456" type="line"/>
			<point x="1251" y="509"/>
			<point x="1525" y="585"/>
			<point x="1693" y="646" type="curve"/>
			<point x="1738" y="704"/>
			<point x="1764" y="776"/>
			<point x="1764" y="855" type="curve" smooth="yes"/>
			<point x="1764" y="951"/>
			<point x="1720" y="1054"/>
			<point x="1535" y="1054" type="curve" smooth="yes"/>
			<point x="1373" y="1054"/>
			<point x="1263" y="964"/>
			<point x="1205" y="846" type="curve"/>
		</contour>
	</outline>
	<anchor name="top" x="1071" y="1024"/>
	<anchor name="bottom" x="797" y="0"/>
</glyph>
<glyph name="ccedilla" format="2">
	<unicode hex="00E7"/>
	<advance width="990"/>
	<outline>
		<contour>
			<point x="215" y="-465" type="curve" smooth="yes"/>
			<point x="402" y="-465"/>
			<point x="518" y="-350"/>
			<point x="518" y="-240" type="curve" smooth="yes"/>
			<point x="518" y="-174"/>
			<point x="474" y="-121"/>
			<point x="312" y="-69" type="curve"/>
			<point x="257" y="-190" type="line"/>
			<point x="477" y="49" type="line"/>
			<point x="407" y="49" type="line"/>
			<point x="162" y="-224" type="line"/>
			<point x="162" y="-229" type="line"/>
			<point x="326" y="-265"/>
			<point x="361" y="-302"/>
			<point x="361" y="-341" type="curve" smooth="yes"/>
			<point x="361" y="-380"/>
			<point x="330" y="-408"/>
			<point x="273" y="-408" type="curve" smooth="yes"/>
			<point x="198" y="-408"/>
			<point x="157" y="-312"/>
			<point x="142" y="-312" type="curve" smooth="yes"/>
			<point x="104" y="-312"/>
			<point x="76" y="-336"/>
			<point x="76" y="-380" type="curve" smooth="yes"/>
			<point x="76" y="-424"/>
			<point x="113" y="-465"/>
		</contour>
		<contour>
			<point x="733" y="984" type="curve" smooth="yes"/>
			<point x="791" y="984"/>
			<point x="810" y="954"/>
			<point x="779" y="847" type="curve" smooth="yes"/>
			<point x="748" y="740"/>
			<point x="771" y="700"/>
			<point x="846" y="700" type="curve" smooth="yes"/>
			<point x="956" y="700"/>
			<point x="1044" y="768"/>
			<point x="1044" y="872" type="curve" smooth="yes"/>
			<point x="1044" y="977"/>
			<point x="968" y="1054"/>
			<point x="748" y="1054" type="curve" smooth="yes"/>
			<point x="307" y="1054"/>
			<point x="26" y="706"/>
			<point x="26" y="342" type="curve" smooth="yes"/>
			<point x="26" y="123"/>
			<point x="152" y="-30"/>
			<point x="413" y="-30" type="curve" smooth="yes"/>
			<point x="639" y="-30"/>
			<point x="790" y="75"/>
			<point x="931" y="438" type="curve"/>
			<point x="915" y="438" type="line"/>
			<point x="807" y="258"/>
			<point x="712" y="203"/>
			<point x="587" y="203" type="curve" smooth="yes"/>
			<point x="471" y="203"/>
			<point x="424" y="266"/>
			<point x="424" y="397" type="curve" smooth="yes"/>
			<point x="424" y="758"/>
			<point x="601" y="984"/>
		</contour>
	</outline>
</glyph>
<glyph name="eth" format="2">
	<unicode hex="00F0"/>
	<advance width="1167"/>
	<outline>
		<contour>
			<point x="899" y="868" type="line"/>
			<point x="897" y="949"/>
			<point x="834" y="1012"/>
			<point x="685" y="1012" type="curve" smooth="yes"/>
			<point x="340" y="1012"/>
			<point x="26" y="708"/>
			<point x="26" y="353" type="curve" smooth="yes"/>
			<point x="26" y="121"/>
			<point x="165" y="-30"/>
			<point x="431" y="-30" type="curve" smooth="yes"/>
			<point x="850" y="-30"/>
			<point x="1157" y="326"/>
			<point x="1157" y="816" type="curve" smooth="yes"/>
			<point x="1157" y="1149"/>
			<point x="962" y="1400"/>
			<point x="497" y="1495" type="curve"/>
			<point x="482" y="1451" type="line"/>
			<point x="857" y="1328"/>
			<point x="909" y="1148"/>
			<point x="848" y="868" type="curve"/>
		</contour>
		<contour>
			<point x="398" y="43" type="curve" smooth="yes"/>
			<point x="370" y="43"/>
			<point x="356" y="55"/>
			<point x="356" y="101" type="curve" smooth="yes"/>
			<point x="356" y="397"/>
			<point x="592" y="939"/>
			<point x="747" y="939" type="curve" smooth="yes"/>
			<point x="775" y="939"/>
			<point x="789" y="927"/>
			<point x="789" y="881" type="curve" smooth="yes"/>
			<point x="789" y="585"/>
			<point x="553" y="43"/>
		</contour>
		<contour>
			<point x="551" y="1088" type="line"/>
			<point x="1149" y="1466" type="line"/>
			<point x="1120" y="1514" type="line"/>
			<point x="521" y="1136" type="line"/>
		</contour>
	</outline>
</glyph>
<glyph name="divide" format="2">
  <advance width="1150"/>
  <unicode hex="00F7"/>
  <outline>
    <contour>
      <point x="179.0" y="560.0" type="line"/>
      <point x="149.0" y="464.0" type="line"/>
      <point x="971.0" y="464.0" type="line"/>
      <point x="1001.0" y="560.0" type="line"/>
    </contour>
    <contour>
      <point x="684.0" y="995.0" type="curve" smooth="yes"/>
      <point x="610.0" y="995.0"/>
      <point x="557.0" y="939.0"/>
      <point x="557.0" y="870.0" type="curve" smooth="yes"/>
      <point x="557.0" y="801.0"/>
      <point x="610.0" y="744.0"/>
      <point x="684.0" y="744.0" type="curve" smooth="yes"/>
      <point x="758.0" y="744.0"/>
      <point x="811.0" y="801.0"/>
      <point x="811.0" y="870.0" type="curve" smooth="yes"/>
      <point x="811.0" y="939.0"/>
      <point x="758.0" y="995.0"/>
    </contour>
    <contour>
      <point x="467.0" y="280.0" type="curve" smooth="yes"/>
      <point x="393.0" y="280.0"/>
      <point x="340.0" y="223.0"/>
      <point x="340.0" y="154.0" type="curve" smooth="yes"/>
      <point x="340.0" y="85.0"/>
      <point x="393.0" y="29.0"/>
      <point x="467.0" y="29.0" type="curve" smooth="yes"/>
      <point x="541.0" y="29.0"/>
      <point x="594.0" y="85.0"/>
      <point x="594.0" y="154.0" type="curve" smooth="yes"/>
      <point x="594.0" y="223.0"/>
      <point x="541.0" y="280.0"/>
    </contour>
  </outline>
</glyph>
<glyph name="oslash" format="2">
	<unicode hex="00F8"/>
	<advance width="1179"/>
	<outline>
		<contour>
			<point x="730" y="1054" type="curve" smooth="yes"/>
			<point x="356" y="1054"/>
			<point x="42" y="738"/>
			<point x="42" y="368" type="curve" smooth="yes"/>
			<point x="42" y="127"/>
			<point x="181" y="-30"/>
			<point x="447" y="-30" type="curve" smooth="yes"/>
			<point x="821" y="-30"/>
			<point x="1135" y="286"/>
			<point x="1135" y="656" type="curve" smooth="yes"/>
			<point x="1135" y="897"/>
			<point x="996" y="1054"/>
		</contour>
		<contour>
			<point x="414" y="43" type="curve" smooth="yes"/>
			<point x="386" y="43"/>
			<point x="372" y="56"/>
			<point x="372" y="106" type="curve" smooth="yes"/>
			<point x="372" y="415"/>
			<point x="608" y="981"/>
			<point x="763" y="981" type="curve" smooth="yes"/>
			<point x="791" y="981"/>
			<point x="805" y="968"/>
			<point x="805" y="918" type="curve" smooth="yes"/>
			<point x="805" y="609"/>
			<point x="569" y="43"/>
		</contour>
		<contour>
			<point x="1159" y="1024" type="line"/>
			<point x="993" y="890" type="line"/>
			<point x="890" y="854" type="line"/>
			<point x="254" y="235" type="line"/>
			<point x="163" y="210" type="line"/>
			<point x="-97" y="0" type="line"/>
			<point x="27" y="0" type="line"/>
			<point x="194" y="134" type="line"/>
			<point x="297" y="170" type="line"/>
			<point x="933" y="789" type="line"/>
			<point x="1023" y="814" type="line"/>
			<point x="1283" y="1024" type="line"/>
		</contour>
	</outline>
	<anchor name="top" x="755" y="1024"/>
	<anchor name="bottom" x="411" y="0"/>
</glyph>
<glyph name="thorn" format="2">
	<unicode hex="00FE"/>
	<advance width="1250"/>
	<outline>
		<contour>
			<point x="422" y="276" type="curve" smooth="yes"/>
			<point x="507" y="589" type="line"/>
			<point x="613" y="789"/>
			<point x="687" y="822"/>
			<point x="740" y="822" type="curve" smooth="yes"/>
			<point x="787" y="822"/>
			<point x="805" y="789"/>
			<point x="805" y="701" type="curve" smooth="yes"/>
			<point x="805" y="400"/>
			<point x="616" y="43"/>
			<point x="485" y="43" type="curve" smooth="yes"/>
			<point x="428" y="43"/>
			<point x="407" y="102"/>
			<point x="407" y="170" type="curve" smooth="yes"/>
			<point x="407" y="205"/>
			<point x="413" y="243"/>
		</contour>
		<contour>
			<point x="488" y="576" type="line"/>
			<point x="806" y="1494" type="line"/>
			<point x="784" y="1494" type="line"/>
			<point x="194" y="1388" type="line"/>
			<point x="186" y="1355" type="line"/>
			<point x="243" y="1295"/>
			<point x="302" y="1232.8947368421"/>
			<point x="338" y="1195" type="curve"/>
			<point x="-150" y="-368" type="line"/>
			<point x="-258" y="-404" type="line"/>
			<point x="-264" y="-435" type="line"/>
			<point x="348" y="-435" type="line"/>
			<point x="355" y="-403" type="line"/>
			<point x="257" y="-369" type="line"/>
			<point x="399" y="107" type="line"/>
			<point x="226" y="122" type="line"/>
			<point x="257" y="28"/>
			<point x="354" y="-30"/>
			<point x="533" y="-30" type="curve" smooth="yes"/>
			<point x="942" y="-30"/>
			<point x="1233" y="354"/>
			<point x="1233" y="732" type="curve" smooth="yes"/>
			<point x="1233" y="937"/>
			<point x="1128" y="1054"/>
			<point x="970" y="1054" type="curve" smooth="yes"/>
			<point x="785" y="1054"/>
			<point x="625" y="928"/>
			<point x="472" y="576" type="curve"/>
		</contour>
	</outline>
</glyph>
<glyph name="Aogonek" format="2">
	<unicode hex="0104"/>
	<advance width="1570"/>
	<outline>
		<contour>
			<point x="311" y="447" type="line"/>
			<point x="996" y="447" type="line"/>
			<point x="1019" y="525" type="line"/>
			<point x="334" y="525" type="line"/>
		</contour>
		<contour>
			<point x="1350" y="90" type="line"/>
			<point x="1178" y="1430" type="line"/>
			<point x="892" y="1430" type="line"/>
			<point x="-2" y="89" type="line"/>
			<point x="-160" y="27" type="line"/>
			<point x="-170" y="0" type="line"/>
			<point x="235" y="0" type="line"/>
			<point x="245" y="27" type="line"/>
			<point x="92" y="86" type="line"/>
			<point x="828" y="1208" type="line"/>
			<point x="799" y="1208" type="line"/>
			<point x="923" y="85" type="line"/>
			<point x="754" y="27" type="line"/>
			<point x="743" y="0" type="line"/>
			<point x="1461" y="0" type="line"/>
			<point x="1471" y="27" type="line"/>
		</contour>
		<contour>
			<point x="990" y="-259" type="curve" smooth="yes"/>
			<point x="990" y="-195"/>
			<point x="1021" y="-143"/>
			<point x="1182" y="-11" type="curve" smooth="yes"/>
			<point x="1314" y="97" type="line"/>
			<point x="1280" y="97" type="line"/>
			<point x="1090" y="-36" type="line" smooth="yes"/>
			<point x="845" y="-208"/>
			<point x="824" y="-271"/>
			<point x="824" y="-348" type="curve" smooth="yes"/>
			<point x="824" y="-416"/>
			<point x="862" y="-465"/>
			<point x="960" y="-465" type="curve" smooth="yes"/>
			<point x="1031" y="-465"/>
			<point x="1097" y="-439"/>
			<point x="1220" y="-304" type="curve"/>
			<point x="1213" y="-292" type="line"/>
			<point x="1167" y="-323"/>
			<point x="1133" y="-337"/>
			<point x="1074" y="-337" type="curve" smooth="yes"/>
			<point x="1015" y="-337"/>
			<point x="990" y="-308"/>
		</contour>
	</outline>
</glyph>
<glyph name="aogonek" format="2">
	<unicode hex="0105"/>
	<advance width="1287"/>
	<outline>
		<contour>
			<point x="1261" y="366" type="curve"/>
			<point x="1248" y="376" type="line"/>
			<point x="1142" y="253"/>
			<point x="1058" y="190"/>
			<point x="964" y="161" type="curve"/>
			<point x="995" y="118" type="line"/>
			<point x="1301" y="1024" type="line"/>
			<point x="929" y="1024" type="line"/>
			<point x="885" y="894" type="line"/>
			<point x="746" y="490" type="line"/>
			<point x="605" y="230"/>
			<point x="529" y="204"/>
			<point x="479" y="204" type="curve" smooth="yes"/>
			<point x="432" y="204"/>
			<point x="420" y="222"/>
			<point x="420" y="288" type="curve" smooth="yes"/>
			<point x="420" y="527"/>
			<point x="641" y="899"/>
			<point x="804" y="899" type="curve" smooth="yes"/>
			<point x="848" y="899"/>
			<point x="884" y="881"/>
			<point x="914" y="830" type="curve"/>
			<point x="925" y="865" type="line"/>
			<point x="849" y="999"/>
			<point x="760" y="1054"/>
			<point x="665" y="1054" type="curve" smooth="yes"/>
			<point x="333" y="1054"/>
			<point x="-16" y="567"/>
			<point x="-16" y="191" type="curve" smooth="yes"/>
			<point x="-16" y="66"/>
			<point x="77" y="-30"/>
			<point x="222" y="-30" type="curve" smooth="yes"/>
			<point x="400" y="-30"/>
			<point x="542" y="64"/>
			<point x="790" y="496" type="curve"/>
			<point x="772" y="503" type="line"/>
			<point x="641" y="119" type="line" smooth="yes"/>
			<point x="611" y="32"/>
			<point x="655" y="-30"/>
			<point x="750" y="-30" type="curve" smooth="yes"/>
			<point x="843" y="-30"/>
			<point x="932" y="3"/>
			<point x="1053" y="99" type="curve"/>
			<point x="1050" y="104" type="line"/>
			<point x="985" y="37" type="line" smooth="yes"/>
			<point x="775" y="-180"/>
			<point x="692" y="-221"/>
			<point x="692" y="-330" type="curve" smooth="yes"/>
			<point x="692" y="-398"/>
			<point x="730" y="-465"/>
			<point x="828" y="-465" type="curve" smooth="yes"/>
			<point x="899" y="-465"/>
			<point x="965" y="-439"/>
			<point x="1088" y="-304" type="curve"/>
			<point x="1081" y="-292" type="line"/>
			<point x="1035" y="-323"/>
			<point x="1001" y="-337"/>
			<point x="942" y="-337" type="curve" smooth="yes"/>
			<point x="883" y="-337"/>
			<point x="858" y="-308"/>
			<point x="858" y="-259" type="curve" smooth="yes"/>
			<point x="858" y="-195"/>
			<point x="890" y="-121"/>
			<point x="1040" y="65" type="curve" smooth="yes"/>
			<point x="1106" y="147" type="line" smooth="yes"/>
			<point x="1162" y="217"/>
			<point x="1210" y="285"/>
		</contour>
	</outline>
</glyph>
<glyph name="Dcroat" format="2">
	<unicode hex="0110"/>
	<advance width="1604"/>
	<outline>
		<contour>
			<point x="111" y="704" type="line"/>
			<point x="943" y="704" type="line"/>
			<point x="968" y="786" type="line"/>
			<point x="136" y="786" type="line"/>
		</contour>
		<contour>
			<point x="591" y="78" type="curve" smooth="yes"/>
			<point x="285" y="78" type="line"/>
			<point x="260" y="0" type="line"/>
			<point x="581" y="0" type="line" smooth="yes"/>
			<point x="1208" y="0"/>
			<point x="1614" y="379"/>
			<point x="1614" y="886" type="curve" smooth="yes"/>
			<point x="1614" y="1225"/>
			<point x="1382" y="1430"/>
			<point x="973" y="1430" type="curve" smooth="yes"/>
			<point x="698" y="1430" type="line"/>
			<point x="765" y="1352" type="line"/>
			<point x="971" y="1352" type="line" smooth="yes"/>
			<point x="1113" y="1352"/>
			<point x="1201" y="1267"/>
			<point x="1201" y="1055" type="curve" smooth="yes"/>
			<point x="1201" y="522"/>
			<point x="942" y="78"/>
		</contour>
		<contour>
			<point x="456" y="1353" type="line"/>
			<point x="64" y="81" type="line"/>
			<point x="-97" y="27" type="line"/>
			<point x="-104" y="0" type="line"/>
			<point x="500" y="0" type="line"/>
			<point x="938" y="1430" type="line"/>
			<point x="327" y="1430" type="line"/>
			<point x="320" y="1403" type="line"/>
		</contour>
	</outline>
</glyph>
<glyph name="dcroat" format="2">
	<unicode hex="0111"/>
	<advance width="1327"/>
	<outline>
		<contour>
			<point x="950" y="751" type="curve"/>
			<point x="955" y="808" type="line"/>
			<point x="872" y="984"/>
			<point x="773" y="1054"/>
			<point x="665" y="1054" type="curve" smooth="yes"/>
			<point x="333" y="1054"/>
			<point x="-16" y="567"/>
			<point x="-16" y="191" type="curve" smooth="yes"/>
			<point x="-16" y="66"/>
			<point x="77" y="-30"/>
			<point x="222" y="-30" type="curve" smooth="yes"/>
			<point x="378" y="-30"/>
			<point x="528" y="36"/>
			<point x="790" y="496" type="curve"/>
			<point x="777" y="498" type="line"/>
			<point x="659" y="147" type="line" smooth="yes"/>
			<point x="624" y="42"/>
			<point x="671" y="-30"/>
			<point x="775" y="-30" type="curve" smooth="yes"/>
			<point x="938" y="-30"/>
			<point x="1135" y="85"/>
			<point x="1301" y="366" type="curve"/>
			<point x="1288" y="376" type="line"/>
			<point x="1107" y="166"/>
			<point x="997" y="149"/>
			<point x="895" y="145" type="curve"/>
			<point x="1025" y="86" type="line"/>
			<point x="1501" y="1494" type="line"/>
			<point x="1479" y="1494" type="line"/>
			<point x="1002" y="1458" type="line"/>
			<point x="994" y="1425" type="line"/>
			<point x="1051" y="1146.9090909091"/>
			<point x="991" y="1439.6363636364"/>
			<point x="1027" y="1264" type="curve"/>
			<point x="751" y="501" type="line"/>
			<point x="621" y="271"/>
			<point x="536" y="204"/>
			<point x="479" y="204" type="curve" smooth="yes"/>
			<point x="432" y="204"/>
			<point x="420" y="222"/>
			<point x="420" y="288" type="curve" smooth="yes"/>
			<point x="420" y="495"/>
			<point x="637" y="899"/>
			<point x="804" y="899" type="curve" smooth="yes"/>
			<point x="866" y="899"/>
			<point x="911" y="864"/>
		</contour>
		<contour>
			<point x="698" y="1166" type="line"/>
			<point x="1530" y="1166" type="line"/>
			<point x="1555" y="1248" type="line"/>
			<point x="723" y="1248" type="line"/>
		</contour>
	</outline>
</glyph>
<glyph name="Eogonek" format="2">
	<unicode hex="0118"/>
	<advance width="1456"/>
	<outline>
		<contour>
			<point x="449" y="1353" type="line"/>
			<point x="57" y="81" type="line"/>
			<point x="-104" y="27" type="line"/>
			<point x="-111" y="0" type="line"/>
			<point x="493" y="0" type="line"/>
			<point x="931" y="1430" type="line"/>
			<point x="320" y="1430" type="line"/>
			<point x="313" y="1403" type="line"/>
		</contour>
		<contour>
			<point x="976" y="455" type="line"/>
			<point x="1015" y="455" type="line"/>
			<point x="1072" y="746" type="line"/>
			<point x="1194" y="1039" type="line"/>
			<point x="1155" y="1039" type="line"/>
			<point x="979" y="803" type="line"/>
			<point x="633" y="766" type="line"/>
			<point x="611" y="727" type="line"/>
			<point x="950" y="694" type="line"/>
		</contour>
		<contour>
			<point x="1512" y="984" type="line"/>
			<point x="1574" y="1517" type="line"/>
			<point x="1548" y="1517" type="line"/>
			<point x="1361" y="1430" type="line"/>
			<point x="692" y="1430" type="line"/>
			<point x="659" y="1352" type="line"/>
			<point x="1480" y="1352" type="line"/>
			<point x="1351" y="1383" type="line"/>
			<point x="1468" y="984" type="line"/>
		</contour>
		<contour>
			<point x="1101" y="-81" type="line"/>
			<point x="1132" y="-81" type="line"/>
			<point x="1423" y="453" type="line"/>
			<point x="1383" y="477" type="line"/>
			<point x="942" y="55" type="line"/>
			<point x="1130" y="78" type="line"/>
			<point x="290" y="78" type="line"/>
			<point x="255" y="0" type="line"/>
			<point x="962" y="0" type="line"/>
		</contour>
		<contour>
			<point x="853" y="-259" type="curve" smooth="yes"/>
			<point x="853" y="-195"/>
			<point x="870" y="-136"/>
			<point x="978" y="1" type="curve" smooth="yes"/>
			<point x="1054" y="97" type="line"/>
			<point x="1020" y="97" type="line"/>
			<point x="895" y="-24" type="line" smooth="yes"/>
			<point x="713" y="-201"/>
			<point x="687" y="-271"/>
			<point x="687" y="-348" type="curve" smooth="yes"/>
			<point x="687" y="-416"/>
			<point x="725" y="-465"/>
			<point x="823" y="-465" type="curve" smooth="yes"/>
			<point x="894" y="-465"/>
			<point x="960" y="-439"/>
			<point x="1083" y="-304" type="curve"/>
			<point x="1076" y="-292" type="line"/>
			<point x="1030" y="-323"/>
			<point x="996" y="-337"/>
			<point x="937" y="-337" type="curve" smooth="yes"/>
			<point x="878" y="-337"/>
			<point x="853" y="-308"/>
		</contour>
	</outline>
</glyph>
<glyph name="eogonek" format="2">
	<unicode hex="0119"/>
	<advance width="1041"/>
	<outline>
		<contour>
			<point x="772" y="99" type="line" smooth="yes"/>
			<point x="841" y="170"/>
			<point x="906" y="278"/>
			<point x="967" y="438" type="curve"/>
			<point x="951" y="438" type="line"/>
			<point x="830" y="236"/>
			<point x="706" y="203"/>
			<point x="587" y="203" type="curve" smooth="yes"/>
			<point x="471" y="203"/>
			<point x="424" y="266"/>
			<point x="424" y="397" type="curve" smooth="yes"/>
			<point x="424" y="758"/>
			<point x="590" y="984"/>
			<point x="712" y="984" type="curve" smooth="yes"/>
			<point x="743" y="984"/>
			<point x="761" y="963"/>
			<point x="761" y="897" type="curve" smooth="yes"/>
			<point x="761" y="752"/>
			<point x="685" y="640"/>
			<point x="317" y="497" type="curve"/>
			<point x="311" y="456" type="line"/>
			<point x="538" y="512"/>
			<point x="829" y="582"/>
			<point x="1005" y="646" type="curve"/>
			<point x="1050" y="704"/>
			<point x="1076" y="776"/>
			<point x="1076" y="855" type="curve" smooth="yes"/>
			<point x="1076" y="951"/>
			<point x="1012" y="1054"/>
			<point x="748" y="1054" type="curve" smooth="yes"/>
			<point x="249" y="1054"/>
			<point x="26" y="643"/>
			<point x="26" y="342" type="curve" smooth="yes"/>
			<point x="26" y="135"/>
			<point x="140" y="-30"/>
			<point x="413" y="-30" type="curve" smooth="yes"/>
			<point x="501" y="-30"/>
			<point x="618" y="-15"/>
			<point x="695" y="35" type="curve"/>
			<point x="688" y="44" type="line"/>
			<point x="577" y="-51" type="line" smooth="yes"/>
			<point x="393" y="-209"/>
			<point x="359" y="-278"/>
			<point x="359" y="-348" type="curve" smooth="yes"/>
			<point x="359" y="-416"/>
			<point x="397" y="-465"/>
			<point x="495" y="-465" type="curve" smooth="yes"/>
			<point x="566" y="-465"/>
			<point x="632" y="-439"/>
			<point x="755" y="-304" type="curve"/>
			<point x="748" y="-292" type="line"/>
			<point x="702" y="-323"/>
			<point x="668" y="-337"/>
			<point x="609" y="-337" type="curve" smooth="yes"/>
			<point x="550" y="-337"/>
			<point x="525" y="-308"/>
			<point x="525" y="-259" type="curve" smooth="yes"/>
			<point x="525" y="-195"/>
			<point x="548" y="-131"/>
			<point x="703" y="28" type="curve" smooth="yes"/>
		</contour>
	</outline>
</glyph>
<glyph name="Hbar" format="2">
  <advance width="1761"/>
  <unicode hex="0126"/>
  <guideline x="1561.0" y="0" angle="177.35588627308692" identifier="xehtH5f6Jg"/>
  <outline>
    <contour>
      <point x="466.0" y="702.0" type="line"/>
      <point x="1400.0" y="702.0" type="line"/>
      <point x="1432.0" y="780.0" type="line"/>
      <point x="497.0" y="780.0" type="line"/>
    </contour>
    <contour>
      <point x="211.0" y="1042.0" type="line"/>
      <point x="1881.0" y="1042.0" type="line"/>
      <point x="1910.0" y="1136.0" type="line"/>
      <point x="240.0" y="1136.0" type="line"/>
    </contour>
    <contour>
      <point x="451.0" y="1353.0" type="line"/>
      <point x="59.0" y="81.0" type="line"/>
      <point x="-102.0" y="27.0" type="line"/>
      <point x="-109.0" y="0.0" type="line"/>
      <point x="647.0" y="0.0" type="line"/>
      <point x="653.0" y="27.0" type="line"/>
      <point x="518.0" y="77.0" type="line"/>
      <point x="909.0" y="1349.0" type="line"/>
      <point x="1070.0" y="1403.0" type="line"/>
      <point x="1077.0" y="1430.0" type="line"/>
      <point x="322.0" y="1430.0" type="line"/>
      <point x="315.0" y="1403.0" type="line"/>
    </contour>
    <contour>
      <point x="1365.0" y="1353.0" type="line"/>
      <point x="973.0" y="81.0" type="line"/>
      <point x="812.0" y="27.0" type="line"/>
      <point x="805.0" y="0.0" type="line"/>
      <point x="1561.0" y="0.0" type="line"/>
      <point x="1568.0" y="27.0" type="line"/>
      <point x="1433.0" y="77.0" type="line"/>
      <point x="1825.0" y="1349.0" type="line"/>
      <point x="1985.0" y="1403.0" type="line"/>
      <point x="1992.0" y="1430.0" type="line"/>
      <point x="1236.0" y="1430.0" type="line"/>
      <point x="1230.0" y="1403.0" type="line"/>
    </contour>
  </outline>
</glyph>
<glyph name="hbar" format="2">
	<unicode hex="0127"/>
	<advance width="1294"/>
	<outline>
		<contour>
			<point x="521" y="515" type="line"/>
			<point x="580" y="652"/>
			<point x="682" y="786"/>
			<point x="764" y="786" type="curve" smooth="yes"/>
			<point x="798" y="786"/>
			<point x="820" y="770"/>
			<point x="820" y="734" type="curve" smooth="yes"/>
			<point x="820" y="712"/>
			<point x="810" y="682"/>
			<point x="757" y="556" type="curve" smooth="yes"/>
			<point x="582" y="139" type="line" smooth="yes"/>
			<point x="542" y="43"/>
			<point x="590" y="-30"/>
			<point x="730" y="-30" type="curve" smooth="yes"/>
			<point x="893" y="-30"/>
			<point x="1076" y="73"/>
			<point x="1266" y="340" type="curve"/>
			<point x="1254" y="351" type="line"/>
			<point x="1055" y="158"/>
			<point x="943" y="151"/>
			<point x="842" y="157" type="curve"/>
			<point x="965" y="89" type="line"/>
			<point x="1177" y="611" type="line" smooth="yes"/>
			<point x="1235" y="753"/>
			<point x="1244" y="811"/>
			<point x="1244" y="865" type="curve" smooth="yes"/>
			<point x="1244" y="969"/>
			<point x="1172" y="1054"/>
			<point x="1009" y="1054" type="curve" smooth="yes"/>
			<point x="824" y="1054"/>
			<point x="700" y="975"/>
			<point x="492" y="534" type="curve"/>
			<point x="499" y="534" type="line"/>
			<point x="843" y="1494" type="line"/>
			<point x="821" y="1494" type="line"/>
			<point x="329" y="1448" type="line"/>
			<point x="321" y="1415" type="line"/>
			<point x="378" y="1261.3035714286"/>
			<point x="341" y="1361.0714285714"/>
			<point x="377" y="1264" type="curve"/>
			<point x="-46" y="0" type="line"/>
			<point x="345" y="0" type="line"/>
		</contour>
		<contour>
			<point x="192" y="1166" type="line"/>
			<point x="1024" y="1166" type="line"/>
			<point x="1049" y="1248" type="line"/>
			<point x="217" y="1248" type="line"/>
		</contour>
	</outline>
</glyph>
<glyph name="Iogonek" format="2">
	<unicode hex="012E"/>
	<advance width="842"/>
	<outline>
		<contour>
			<point x="449" y="1353" type="line"/>
			<point x="57" y="81" type="line"/>
			<point x="-104" y="27" type="line"/>
			<point x="-111" y="0" type="line"/>
			<point x="645" y="0" type="line"/>
			<point x="651" y="27" type="line"/>
			<point x="516" y="77" type="line"/>
			<point x="907" y="1349" type="line"/>
			<point x="1068" y="1403" type="line"/>
			<point x="1075" y="1430" type="line"/>
			<point x="320" y="1430" type="line"/>
			<point x="313" y="1403" type="line"/>
		</contour>
		<contour>
			<point x="151" y="-259" type="curve" smooth="yes"/>
			<point x="151" y="-195"/>
			<point x="168" y="-146"/>
			<point x="273" y="-6" type="curve" smooth="yes"/>
			<point x="350" y="97" type="line"/>
			<point x="316" y="97" type="line"/>
			<point x="190" y="-31" type="line" smooth="yes"/>
			<point x="12" y="-212"/>
			<point x="-15" y="-263"/>
			<point x="-15" y="-348" type="curve" smooth="yes"/>
			<point x="-15" y="-416"/>
			<point x="23" y="-465"/>
			<point x="121" y="-465" type="curve" smooth="yes"/>
			<point x="192" y="-465"/>
			<point x="258" y="-439"/>
			<point x="381" y="-304" type="curve"/>
			<point x="374" y="-292" type="line"/>
			<point x="328" y="-323"/>
			<point x="294" y="-337"/>
			<point x="235" y="-337" type="curve" smooth="yes"/>
			<point x="176" y="-337"/>
			<point x="151" y="-308"/>
		</contour>
	</outline>
</glyph>
<glyph name="iogonek" format="2">
	<unicode hex="012F"/>
	<advance width="744"/>
	<outline>
		<contour>
			<point x="675" y="1488" type="curve" smooth="yes"/>
			<point x="546" y="1488"/>
			<point x="456" y="1396"/>
			<point x="456" y="1288" type="curve" smooth="yes"/>
			<point x="456" y="1194"/>
			<point x="523" y="1124"/>
			<point x="630" y="1124" type="curve" smooth="yes"/>
			<point x="759" y="1124"/>
			<point x="849" y="1215"/>
			<point x="849" y="1323" type="curve" smooth="yes"/>
			<point x="849" y="1417"/>
			<point x="782" y="1488"/>
		</contour>
		<contour>
			<point x="497" y="92" type="line" smooth="yes"/>
			<point x="571" y="150"/>
			<point x="642" y="233"/>
			<point x="708" y="344" type="curve"/>
			<point x="695" y="352" type="line"/>
			<point x="521" y="156"/>
			<point x="397" y="149"/>
			<point x="296" y="147" type="curve"/>
			<point x="424" y="88" type="line"/>
			<point x="699" y="842" type="line" smooth="yes"/>
			<point x="750" y="983"/>
			<point x="729" y="1040"/>
			<point x="573" y="1040" type="curve" smooth="yes"/>
			<point x="401" y="1040"/>
			<point x="215" y="939"/>
			<point x="36" y="678" type="curve"/>
			<point x="51" y="667" type="line"/>
			<point x="210" y="826"/>
			<point x="262" y="845"/>
			<point x="402" y="829" type="curve"/>
			<point x="337" y="936" type="line"/>
			<point x="66" y="196" type="line" smooth="yes"/>
			<point x="7" y="34"/>
			<point x="37" y="-30"/>
			<point x="189" y="-30" type="curve" smooth="yes"/>
			<point x="244" y="-30"/>
			<point x="302" y="-18"/>
			<point x="362" y="8" type="curve"/>
			<point x="355" y="15" type="line"/>
			<point x="275" y="-39" type="line" smooth="yes"/>
			<point x="27" y="-206"/>
			<point x="9" y="-271"/>
			<point x="9" y="-348" type="curve" smooth="yes"/>
			<point x="9" y="-416"/>
			<point x="47" y="-465"/>
			<point x="145" y="-465" type="curve" smooth="yes"/>
			<point x="216" y="-465"/>
			<point x="282" y="-439"/>
			<point x="405" y="-304" type="curve"/>
			<point x="398" y="-292" type="line"/>
			<point x="352" y="-323"/>
			<point x="318" y="-337"/>
			<point x="259" y="-337" type="curve" smooth="yes"/>
			<point x="200" y="-337"/>
			<point x="175" y="-308"/>
			<point x="175" y="-259" type="curve" smooth="yes"/>
			<point x="175" y="-195"/>
			<point x="203" y="-141"/>
			<point x="367" y="-11" type="curve" smooth="yes"/>
		</contour>
	</outline>
</glyph>
<glyph name="dotlessi" format="2">
	<unicode hex="0131"/>
	<advance width="742"/>
	<outline>
		<contour>
			<point x="66" y="196" type="line" smooth="yes"/>
			<point x="7" y="34"/>
			<point x="37" y="-30"/>
			<point x="189" y="-30" type="curve" smooth="yes"/>
			<point x="351" y="-30"/>
			<point x="547" y="74"/>
			<point x="708" y="344" type="curve"/>
			<point x="695" y="352" type="line"/>
			<point x="521" y="156"/>
			<point x="397" y="149"/>
			<point x="296" y="147" type="curve"/>
			<point x="424" y="88" type="line"/>
			<point x="699" y="842" type="line" smooth="yes"/>
			<point x="750" y="983"/>
			<point x="729" y="1040"/>
			<point x="573" y="1040" type="curve" smooth="yes"/>
			<point x="401" y="1040"/>
			<point x="215" y="939"/>
			<point x="36" y="678" type="curve"/>
			<point x="51" y="667" type="line"/>
			<point x="210" y="826"/>
			<point x="262" y="845"/>
			<point x="402" y="829" type="curve"/>
			<point x="337" y="936" type="line"/>
		</contour>
	</outline>
	<anchor name="top" x="547" y="1024"/>
	<anchor name="bottom" x="224" y="0"/>
	<anchor name="right" x="469" y="0"/>
</glyph>
<glyph name="kgreenlandic" format="2">
	<unicode hex="0138"/>
	<advance width="1359"/>
	<outline>
		<contour>
			<point x="760" y="1025" type="line"/>
			<point x="664" y="1045"/>
			<point x="614" y="1048"/>
			<point x="526" y="1048" type="curve" smooth="yes"/>
			<point x="285" y="1048"/>
			<point x="172" y="947"/>
			<point x="36" y="604" type="curve"/>
			<point x="48" y="598" type="line"/>
			<point x="153" y="803"/>
			<point x="213" y="828"/>
			<point x="262" y="828" type="curve" smooth="yes"/>
			<point x="291" y="828"/>
			<point x="295" y="804"/>
			<point x="282" y="765" type="curve" smooth="yes"/>
			<point x="26" y="0" type="line"/>
			<point x="423" y="0" type="line"/>
		</contour>
		<contour>
			<point x="1237" y="685" type="curve" smooth="yes"/>
			<point x="1335" y="685"/>
			<point x="1428" y="765"/>
			<point x="1428" y="895" type="curve" smooth="yes"/>
			<point x="1428" y="985"/>
			<point x="1367" y="1054"/>
			<point x="1240" y="1054" type="curve" smooth="yes"/>
			<point x="1111" y="1054"/>
			<point x="953" y="933"/>
			<point x="590" y="542" type="curve"/>
			<point x="578" y="509" type="line"/>
			<point x="693" y="54"/>
			<point x="748" y="-30"/>
			<point x="873" y="-30" type="curve" smooth="yes"/>
			<point x="1018" y="-30"/>
			<point x="1160" y="78"/>
			<point x="1320" y="377" type="curve"/>
			<point x="1306" y="386" type="line"/>
			<point x="1204" y="250"/>
			<point x="1151" y="218"/>
			<point x="1111" y="218" type="curve" smooth="yes"/>
			<point x="1047" y="218"/>
			<point x="974" y="319"/>
			<point x="864" y="784" type="curve"/>
			<point x="824" y="733" type="line"/>
			<point x="951" y="850"/>
			<point x="1027" y="893"/>
			<point x="1091" y="893" type="curve" smooth="yes"/>
			<point x="1130" y="893"/>
			<point x="1144" y="876"/>
			<point x="1144" y="798" type="curve" smooth="yes"/>
			<point x="1144" y="720"/>
			<point x="1167" y="685"/>
		</contour>
	</outline>
</glyph>
<glyph name="Lslash" format="2">
	<unicode hex="0141"/>
	<advance width="1424"/>
	<outline>
		<contour>
			<point x="940" y="1349" type="line"/>
			<point x="1101" y="1403" type="line"/>
			<point x="1108" y="1430" type="line"/>
			<point x="353" y="1430" type="line"/>
			<point x="346" y="1403" type="line"/>
			<point x="482" y="1353" type="line"/>
			<point x="90" y="81" type="line"/>
			<point x="-71" y="27" type="line"/>
			<point x="-78" y="0" type="line"/>
			<point x="526" y="0" type="line"/>
		</contour>
		<contour>
			<point x="925" y="55" type="line"/>
			<point x="1113" y="78" type="line"/>
			<point x="273" y="78" type="line"/>
			<point x="238" y="0" type="line"/>
			<point x="945" y="0" type="line"/>
			<point x="1084" y="-81" type="line"/>
			<point x="1115" y="-81" type="line"/>
			<point x="1406" y="453" type="line"/>
			<point x="1366" y="477" type="line"/>
		</contour>
		<contour>
			<point x="1090" y="1005" type="line"/>
			<point x="614" y="764" type="line"/>
			<point x="386" y="728" type="line"/>
			<point x="81" y="574" type="line"/>
			<point x="50" y="474" type="line"/>
			<point x="354" y="628" type="line"/>
			<point x="583" y="664" type="line"/>
			<point x="1058" y="905" type="line"/>
		</contour>
	</outline>
</glyph>
<glyph name="lslash" format="2">
	<unicode hex="0142"/>
	<advance width="794"/>
	<outline>
		<contour>
			<point x="58" y="575" type="line"/>
			<point x="23" y="460" type="line"/>
			<point x="352" y="687" type="line"/>
			<point x="423" y="641" type="line"/>
			<point x="852" y="933" type="line"/>
			<point x="887" y="1048" type="line"/>
			<point x="458" y="756" type="line"/>
			<point x="387" y="802" type="line"/>
		</contour>
		<contour>
			<point x="400" y="1195" type="curve"/>
			<point x="81" y="197" type="line" smooth="yes"/>
			<point x="29" y="33"/>
			<point x="52" y="-30"/>
			<point x="204" y="-30" type="curve" smooth="yes"/>
			<point x="367" y="-30"/>
			<point x="566" y="86"/>
			<point x="736" y="371" type="curve"/>
			<point x="723" y="379" type="line"/>
			<point x="534" y="166"/>
			<point x="414" y="149"/>
			<point x="309" y="147" type="curve"/>
			<point x="437" y="88" type="line"/>
			<point x="888" y="1494" type="line"/>
			<point x="866" y="1494" type="line"/>
			<point x="256" y="1388" type="line"/>
			<point x="248" y="1355" type="line"/>
			<point x="305" y="1295"/>
			<point x="364" y="1232.8947368421"/>
		</contour>
	</outline>
</glyph>
<glyph name="Eng" format="2">
	<unicode hex="014A"/>
	<advance width="1510"/>
	<outline>
		<contour>
			<point x="1304" y="561" type="line"/>
			<point x="915" y="1430" type="line"/>
			<point x="290" y="1430" type="line"/>
			<point x="282" y="1403" type="line"/>
			<point x="444" y="1317" type="line"/>
			<point x="64" y="74" type="line"/>
			<point x="-96" y="27" type="line"/>
			<point x="-104" y="0" type="line"/>
			<point x="304" y="0" type="line"/>
			<point x="311" y="27" type="line"/>
			<point x="140" y="77" type="line"/>
			<point x="523" y="1340" type="line"/>
			<point x="493" y="1321" type="line"/>
			<point x="1129" y="-92" type="line"/>
		</contour>
		<contour>
			<point x="1172" y="-17" type="curve" smooth="yes"/>
			<point x="1591" y="1356" type="line"/>
			<point x="1751" y="1403" type="line"/>
			<point x="1759" y="1430" type="line"/>
			<point x="1351" y="1430" type="line"/>
			<point x="1344" y="1403" type="line"/>
			<point x="1515" y="1353" type="line"/>
			<point x="1114" y="36" type="line" smooth="yes"/>
			<point x="1016" y="-287"/>
			<point x="900" y="-357"/>
			<point x="774" y="-357" type="curve" smooth="yes"/>
			<point x="661" y="-357"/>
			<point x="624" y="-201"/>
			<point x="580" y="-201" type="curve" smooth="yes"/>
			<point x="503" y="-201"/>
			<point x="443" y="-258"/>
			<point x="443" y="-336" type="curve" smooth="yes"/>
			<point x="443" y="-407"/>
			<point x="499" y="-465"/>
			<point x="652" y="-465" type="curve" smooth="yes"/>
			<point x="923" y="-465"/>
			<point x="1079" y="-322"/>
		</contour>
	</outline>
</glyph>
<glyph name="OE" format="2">
	<unicode hex="0152"/>
	<advance width="2286"/>
	<outline>
		<contour>
			<point x="1300" y="1430" type="line"/>
			<point x="862" y="0" type="line"/>
			<point x="1320" y="0" type="line"/>
			<point x="1761" y="1430" type="line"/>
		</contour>
		<contour>
			<point x="1149" y="1430" type="line" smooth="yes"/>
			<point x="441" y="1430"/>
			<point x="116" y="1012"/>
			<point x="116" y="544" type="curve" smooth="yes"/>
			<point x="116" y="205"/>
			<point x="348" y="0"/>
			<point x="757" y="0" type="curve" smooth="yes"/>
			<point x="1792" y="0" type="line"/>
			<point x="1931" y="-81" type="line"/>
			<point x="1962" y="-81" type="line"/>
			<point x="2253" y="453" type="line"/>
			<point x="2213" y="477" type="line"/>
			<point x="1772" y="55" type="line"/>
			<point x="1960" y="78" type="line"/>
			<point x="759" y="78" type="line" smooth="yes"/>
			<point x="617" y="78"/>
			<point x="517" y="145"/>
			<point x="517" y="357" type="curve" smooth="yes"/>
			<point x="517" y="772"/>
			<point x="751" y="1352"/>
			<point x="1076" y="1352" type="curve" smooth="yes"/>
			<point x="2310" y="1352" type="line"/>
			<point x="2181" y="1383" type="line"/>
			<point x="2298" y="984" type="line"/>
			<point x="2342" y="984" type="line"/>
			<point x="2404" y="1517" type="line"/>
			<point x="2378" y="1517" type="line"/>
			<point x="2191" y="1430" type="line"/>
		</contour>
		<contour>
			<point x="1845" y="455" type="line"/>
			<point x="1902" y="746" type="line"/>
			<point x="2024" y="1039" type="line"/>
			<point x="1985" y="1039" type="line"/>
			<point x="1809" y="803" type="line"/>
			<point x="1463" y="766" type="line"/>
			<point x="1441" y="727" type="line"/>
			<point x="1780" y="694" type="line"/>
			<point x="1806" y="455" type="line"/>
		</contour>
	</outline>
</glyph>
<glyph name="oe" format="2">
	<unicode hex="0153"/>
	<advance width="1681"/>
	<outline>
		<contour>
			<point x="721" y="1054" type="curve" smooth="yes"/>
			<point x="347" y="1054"/>
			<point x="33" y="738"/>
			<point x="33" y="368" type="curve" smooth="yes"/>
			<point x="33" y="127"/>
			<point x="172" y="-30"/>
			<point x="438" y="-30" type="curve" smooth="yes"/>
			<point x="633" y="-30"/>
			<point x="811" y="71"/>
			<point x="889" y="219" type="curve"/>
			<point x="760" y="219" type="line"/>
			<point x="788" y="58"/>
			<point x="908" y="-30"/>
			<point x="1089" y="-30" type="curve" smooth="yes"/>
			<point x="1290" y="-30"/>
			<point x="1459" y="50"/>
			<point x="1607" y="438" type="curve"/>
			<point x="1591" y="438" type="line"/>
			<point x="1473" y="241"/>
			<point x="1370" y="203"/>
			<point x="1263" y="203" type="curve" smooth="yes"/>
			<point x="1147" y="203"/>
			<point x="1100" y="266"/>
			<point x="1100" y="397" type="curve" smooth="yes"/>
			<point x="1100" y="758"/>
			<point x="1266" y="984"/>
			<point x="1388" y="984" type="curve" smooth="yes"/>
			<point x="1419" y="984"/>
			<point x="1437" y="963"/>
			<point x="1437" y="897" type="curve" smooth="yes"/>
			<point x="1437" y="752"/>
			<point x="1361" y="640"/>
			<point x="993" y="497" type="curve"/>
			<point x="987" y="456" type="line"/>
			<point x="1203" y="509"/>
			<point x="1477" y="585"/>
			<point x="1645" y="646" type="curve"/>
			<point x="1690" y="704"/>
			<point x="1716" y="776"/>
			<point x="1716" y="855" type="curve" smooth="yes"/>
			<point x="1716" y="951"/>
			<point x="1660" y="1054"/>
			<point x="1424" y="1054" type="curve" smooth="yes"/>
			<point x="1183" y="1054"/>
			<point x="1017" y="957"/>
			<point x="931" y="816" type="curve"/>
			<point x="1076" y="816" type="line"/>
			<point x="1040" y="958"/>
			<point x="936" y="1054"/>
		</contour>
		<contour>
			<point x="405" y="43" type="curve" smooth="yes"/>
			<point x="377" y="43"/>
			<point x="363" y="56"/>
			<point x="363" y="106" type="curve" smooth="yes"/>
			<point x="363" y="415"/>
			<point x="599" y="981"/>
			<point x="754" y="981" type="curve" smooth="yes"/>
			<point x="782" y="981"/>
			<point x="796" y="968"/>
			<point x="796" y="918" type="curve" smooth="yes"/>
			<point x="796" y="609"/>
			<point x="560" y="43"/>
		</contour>
	</outline>
	<anchor name="top" x="1062" y="1024"/>
	<anchor name="bottom" x="708" y="0"/>
</glyph>
<glyph name="Scedilla" format="2">
	<unicode hex="015E"/>
	<advance width="1264"/>
	<outline>
		<contour>
			<point x="1140" y="1288" type="curve"/>
			<point x="1094" y="1359" type="line"/>
			<point x="1244" y="982" type="line"/>
			<point x="1282" y="982" type="line"/>
			<point x="1296" y="1511" type="line"/>
			<point x="1280" y="1511" type="line"/>
			<point x="1102" y="1384" type="line"/>
			<point x="1285" y="1351" type="line"/>
			<point x="1135" y="1432"/>
			<point x="1007" y="1460"/>
			<point x="872" y="1460" type="curve" smooth="yes"/>
			<point x="496" y="1460"/>
			<point x="253" y="1277"/>
			<point x="253" y="980" type="curve" smooth="yes"/>
			<point x="253" y="774"/>
			<point x="376" y="694"/>
			<point x="520" y="624" type="curve" smooth="yes"/>
			<point x="664" y="554"/>
			<point x="817" y="502"/>
			<point x="817" y="329" type="curve" smooth="yes"/>
			<point x="817" y="175"/>
			<point x="683" y="52"/>
			<point x="413" y="52" type="curve" smooth="yes"/>
			<point x="336" y="52"/>
			<point x="258" y="63"/>
			<point x="181" y="94" type="curve"/>
			<point x="272" y="23" type="line"/>
			<point x="70" y="462" type="line"/>
			<point x="34" y="462" type="line"/>
			<point x="24" y="30" type="line"/>
			<point x="139" y="-7"/>
			<point x="257" y="-30"/>
			<point x="446" y="-30" type="curve" smooth="yes"/>
			<point x="917" y="-30"/>
			<point x="1182" y="205"/>
			<point x="1182" y="503" type="curve" smooth="yes"/>
			<point x="1182" y="740"/>
			<point x="1037" y="843"/>
			<point x="889" y="918" type="curve" smooth="yes"/>
			<point x="741" y="993"/>
			<point x="578" y="1044"/>
			<point x="578" y="1182" type="curve" smooth="yes"/>
			<point x="578" y="1322"/>
			<point x="691" y="1385"/>
			<point x="847" y="1385" type="curve" smooth="yes"/>
			<point x="966" y="1385"/>
			<point x="1060" y="1357"/>
		</contour>
		<contour>
			<point x="420" y="-465" type="curve" smooth="yes"/>
			<point x="607" y="-465"/>
			<point x="723" y="-350"/>
			<point x="723" y="-240" type="curve" smooth="yes"/>
			<point x="723" y="-174"/>
			<point x="679" y="-121"/>
			<point x="517" y="-69" type="curve"/>
			<point x="462" y="-190" type="line"/>
			<point x="682" y="49" type="line"/>
			<point x="612" y="49" type="line"/>
			<point x="367" y="-224" type="line"/>
			<point x="367" y="-229" type="line"/>
			<point x="531" y="-265"/>
			<point x="566" y="-302"/>
			<point x="566" y="-341" type="curve" smooth="yes"/>
			<point x="566" y="-380"/>
			<point x="535" y="-408"/>
			<point x="478" y="-408" type="curve" smooth="yes"/>
			<point x="403" y="-408"/>
			<point x="362" y="-312"/>
			<point x="347" y="-312" type="curve" smooth="yes"/>
			<point x="309" y="-312"/>
			<point x="281" y="-336"/>
			<point x="281" y="-380" type="curve" smooth="yes"/>
			<point x="281" y="-424"/>
			<point x="318" y="-465"/>
		</contour>
	</outline>
</glyph>
<glyph name="uni0162" format="2">
	<unicode hex="0162"/>
	<advance width="1530"/>
	<outline>
		<contour>
			<point x="1589" y="1352" type="line"/>
			<point x="1485" y="1368" type="line"/>
			<point x="1597" y="915" type="line"/>
			<point x="1635" y="915" type="line"/>
			<point x="1732" y="1512" type="line"/>
			<point x="1713" y="1512" type="line"/>
			<point x="1429" y="1398" type="line"/>
			<point x="1597" y="1430" type="line"/>
			<point x="471" y="1430" type="line"/>
			<point x="619" y="1398" type="line"/>
			<point x="405" y="1512" type="line"/>
			<point x="386" y="1512" type="line"/>
			<point x="154" y="934" type="line"/>
			<point x="193" y="911" type="line"/>
			<point x="567" y="1368" type="line"/>
			<point x="417" y="1352" type="line"/>
		</contour>
		<contour>
			<point x="800" y="1393" type="line"/>
			<point x="395" y="81" type="line"/>
			<point x="234" y="27" type="line"/>
			<point x="227" y="0" type="line"/>
			<point x="983" y="0" type="line"/>
			<point x="989" y="27" type="line"/>
			<point x="854" y="77" type="line"/>
			<point x="1260" y="1393" type="line"/>
		</contour>
		<contour>
			<point x="447" y="-465" type="curve" smooth="yes"/>
			<point x="634" y="-465"/>
			<point x="750" y="-350"/>
			<point x="750" y="-240" type="curve" smooth="yes"/>
			<point x="750" y="-174"/>
			<point x="706" y="-121"/>
			<point x="544" y="-69" type="curve"/>
			<point x="489" y="-190" type="line"/>
			<point x="709" y="49" type="line"/>
			<point x="639" y="49" type="line"/>
			<point x="394" y="-224" type="line"/>
			<point x="394" y="-229" type="line"/>
			<point x="558" y="-265"/>
			<point x="593" y="-302"/>
			<point x="593" y="-341" type="curve" smooth="yes"/>
			<point x="593" y="-380"/>
			<point x="562" y="-408"/>
			<point x="505" y="-408" type="curve" smooth="yes"/>
			<point x="430" y="-408"/>
			<point x="389" y="-312"/>
			<point x="374" y="-312" type="curve" smooth="yes"/>
			<point x="336" y="-312"/>
			<point x="308" y="-336"/>
			<point x="308" y="-380" type="curve" smooth="yes"/>
			<point x="308" y="-424"/>
			<point x="345" y="-465"/>
		</contour>
	</outline>
</glyph>
<glyph name="uni0163" format="2">
	<unicode hex="0163"/>
	<advance width="835"/>
	<outline>
		<contour>
			<point x="118" y="949" type="line"/>
			<point x="972" y="949" type="line"/>
			<point x="988" y="1024" type="line"/>
			<point x="135" y="1024" type="line"/>
		</contour>
		<contour>
			<point x="562" y="485" type="curve" smooth="yes"/>
			<point x="876" y="1341" type="line"/>
			<point x="472" y="1341" type="line"/>
			<point x="149" y="459" type="line" smooth="yes"/>
			<point x="90" y="298"/>
			<point x="80" y="209"/>
			<point x="80" y="163" type="curve" smooth="yes"/>
			<point x="80" y="17"/>
			<point x="173" y="-30"/>
			<point x="273" y="-30" type="curve" smooth="yes"/>
			<point x="404" y="-30"/>
			<point x="572" y="11"/>
			<point x="806" y="377" type="curve"/>
			<point x="790" y="390" type="line"/>
			<point x="660" y="247"/>
			<point x="605" y="221"/>
			<point x="552" y="221" type="curve" smooth="yes"/>
			<point x="521" y="221"/>
			<point x="503" y="233"/>
			<point x="503" y="264" type="curve" smooth="yes"/>
			<point x="503" y="296"/>
			<point x="511" y="346"/>
		</contour>
		<contour>
			<point x="174" y="-465" type="curve" smooth="yes"/>
			<point x="361" y="-465"/>
			<point x="477" y="-350"/>
			<point x="477" y="-240" type="curve" smooth="yes"/>
			<point x="477" y="-174"/>
			<point x="433" y="-121"/>
			<point x="271" y="-69" type="curve"/>
			<point x="216" y="-190" type="line"/>
			<point x="436" y="49" type="line"/>
			<point x="366" y="49" type="line"/>
			<point x="121" y="-224" type="line"/>
			<point x="121" y="-229" type="line"/>
			<point x="285" y="-265"/>
			<point x="320" y="-302"/>
			<point x="320" y="-341" type="curve" smooth="yes"/>
			<point x="320" y="-380"/>
			<point x="289" y="-408"/>
			<point x="232" y="-408" type="curve" smooth="yes"/>
			<point x="157" y="-408"/>
			<point x="116" y="-312"/>
			<point x="101" y="-312" type="curve" smooth="yes"/>
			<point x="63" y="-312"/>
			<point x="35" y="-336"/>
			<point x="35" y="-380" type="curve" smooth="yes"/>
			<point x="35" y="-424"/>
			<point x="72" y="-465"/>
		</contour>
	</outline>
</glyph>
<glyph name="tbar" format="2">
	<unicode hex="0167"/>
	<advance width="843"/>
	<outline>
		<contour>
			<point x="56" y="606" type="line"/>
			<point x="818" y="606" type="line"/>
			<point x="843" y="688" type="line"/>
			<point x="81" y="688" type="line"/>
		</contour>
		<contour>
			<point x="123" y="949" type="line"/>
			<point x="977" y="949" type="line"/>
			<point x="993" y="1024" type="line"/>
			<point x="140" y="1024" type="line"/>
		</contour>
		<contour>
			<point x="508" y="264" type="curve" smooth="yes"/>
			<point x="508" y="296"/>
			<point x="516" y="346"/>
			<point x="567" y="485" type="curve" smooth="yes"/>
			<point x="881" y="1341" type="line"/>
			<point x="477" y="1341" type="line"/>
			<point x="154" y="459" type="line" smooth="yes"/>
			<point x="95" y="298"/>
			<point x="85" y="209"/>
			<point x="85" y="163" type="curve" smooth="yes"/>
			<point x="85" y="17"/>
			<point x="178" y="-30"/>
			<point x="278" y="-30" type="curve" smooth="yes"/>
			<point x="409" y="-30"/>
			<point x="577" y="11"/>
			<point x="811" y="377" type="curve"/>
			<point x="795" y="390" type="line"/>
			<point x="665" y="247"/>
			<point x="610" y="221"/>
			<point x="557" y="221" type="curve" smooth="yes"/>
			<point x="526" y="221"/>
			<point x="508" y="233"/>
		</contour>
	</outline>
</glyph>
<glyph name="Uogonek" format="2">
	<unicode hex="0172"/>
	<advance width="1583"/>
	<outline>
		<contour>
			<point x="624" y="574" type="curve" smooth="yes"/>
			<point x="862" y="1349" type="line"/>
			<point x="1023" y="1403" type="line"/>
			<point x="1030" y="1430" type="line"/>
			<point x="275" y="1430" type="line"/>
			<point x="268" y="1403" type="line"/>
			<point x="404" y="1353" type="line"/>
			<point x="189" y="656" type="line" smooth="yes"/>
			<point x="62" y="244"/>
			<point x="208" y="-30"/>
			<point x="766" y="-30" type="curve" smooth="yes"/>
			<point x="1105" y="-30"/>
			<point x="1298" y="111"/>
			<point x="1425" y="530" type="curve" smooth="yes"/>
			<point x="1675" y="1356" type="line"/>
			<point x="1835" y="1403" type="line"/>
			<point x="1843" y="1430" type="line"/>
			<point x="1435" y="1430" type="line"/>
			<point x="1428" y="1403" type="line"/>
			<point x="1599" y="1353" type="line"/>
			<point x="1369" y="594" type="line" smooth="yes"/>
			<point x="1285" y="318"/>
			<point x="1160" y="211"/>
			<point x="924" y="211" type="curve" smooth="yes"/>
			<point x="641" y="211"/>
			<point x="552" y="339"/>
		</contour>
		<contour>
			<point x="712" y="-259" type="curve" smooth="yes"/>
			<point x="712" y="-195"/>
			<point x="728" y="-145"/>
			<point x="850" y="-8" type="curve" smooth="yes"/>
			<point x="943" y="97" type="line"/>
			<point x="909" y="97" type="line"/>
			<point x="765" y="-33" type="line" smooth="yes"/>
			<point x="568" y="-211"/>
			<point x="546" y="-271"/>
			<point x="546" y="-348" type="curve" smooth="yes"/>
			<point x="546" y="-416"/>
			<point x="584" y="-465"/>
			<point x="682" y="-465" type="curve" smooth="yes"/>
			<point x="753" y="-465"/>
			<point x="819" y="-439"/>
			<point x="942" y="-304" type="curve"/>
			<point x="935" y="-292" type="line"/>
			<point x="889" y="-323"/>
			<point x="855" y="-337"/>
			<point x="796" y="-337" type="curve" smooth="yes"/>
			<point x="737" y="-337"/>
			<point x="712" y="-308"/>
		</contour>
	</outline>
</glyph>
<glyph name="uogonek" format="2">
	<unicode hex="0173"/>
	<advance width="1287"/>
	<outline>
		<contour>
			<point x="1262" y="366" type="curve"/>
			<point x="1252" y="374" type="line"/>
			<point x="1071" y="165"/>
			<point x="952" y="162"/>
			<point x="850" y="158" type="curve"/>
			<point x="986" y="86" type="line"/>
			<point x="1302" y="1024" type="line"/>
			<point x="913" y="1024" type="line"/>
			<point x="727" y="456" type="line"/>
			<point x="650" y="282"/>
			<point x="604" y="233"/>
			<point x="551" y="233" type="curve" smooth="yes"/>
			<point x="516" y="233"/>
			<point x="491" y="251"/>
			<point x="491" y="292" type="curve" smooth="yes"/>
			<point x="491" y="317"/>
			<point x="502" y="352"/>
			<point x="532" y="430" type="curve" smooth="yes"/>
			<point x="683" y="828" type="line" smooth="yes"/>
			<point x="741" y="980"/>
			<point x="692" y="1040"/>
			<point x="546" y="1040" type="curve" smooth="yes"/>
			<point x="379" y="1040"/>
			<point x="194" y="941"/>
			<point x="39" y="682" type="curve"/>
			<point x="53" y="671" type="line"/>
			<point x="187" y="823"/>
			<point x="240" y="841"/>
			<point x="405" y="832" type="curve"/>
			<point x="328" y="936" type="line"/>
			<point x="114" y="332" type="line" smooth="yes"/>
			<point x="97" y="284"/>
			<point x="88" y="218"/>
			<point x="88" y="170" type="curve" smooth="yes"/>
			<point x="88" y="54"/>
			<point x="131" y="-30"/>
			<point x="301" y="-30" type="curve" smooth="yes"/>
			<point x="462" y="-30"/>
			<point x="616" y="104"/>
			<point x="774" y="489" type="curve"/>
			<point x="767" y="513" type="line"/>
			<point x="662" y="130" type="line" smooth="yes"/>
			<point x="633" y="24"/>
			<point x="675" y="-30"/>
			<point x="751" y="-30" type="curve" smooth="yes"/>
			<point x="848" y="-30"/>
			<point x="952" y="11"/>
			<point x="1056" y="104" type="curve"/>
			<point x="1048" y="109" type="line"/>
			<point x="971" y="31" type="line" smooth="yes"/>
			<point x="761" y="-181"/>
			<point x="675" y="-236"/>
			<point x="675" y="-330" type="curve" smooth="yes"/>
			<point x="675" y="-398"/>
			<point x="713" y="-465"/>
			<point x="811" y="-465" type="curve" smooth="yes"/>
			<point x="882" y="-465"/>
			<point x="948" y="-439"/>
			<point x="1071" y="-304" type="curve"/>
			<point x="1064" y="-292" type="line"/>
			<point x="1018" y="-323"/>
			<point x="984" y="-337"/>
			<point x="925" y="-337" type="curve" smooth="yes"/>
			<point x="866" y="-337"/>
			<point x="841" y="-308"/>
			<point x="841" y="-259" type="curve" smooth="yes"/>
			<point x="841" y="-195"/>
			<point x="859" y="-137"/>
			<point x="1040" y="77" type="curve" smooth="yes"/>
			<point x="1101" y="148" type="line" smooth="yes"/>
			<point x="1170" y="230"/>
			<point x="1218" y="299"/>
		</contour>
	</outline>
</glyph>
<glyph name="uni018F" format="2">
	<unicode hex="018F"/>
	<advance width="1460"/>
	<outline>
		<contour>
			<point x="94" y="570" type="line"/>
			<point x="84" y="515"/>
			<point x="79" y="464"/>
			<point x="79" y="416" type="curve" smooth="yes"/>
			<point x="79" y="135"/>
			<point x="246" y="-30"/>
			<point x="596" y="-30" type="curve" smooth="yes"/>
			<point x="1098" y="-30"/>
			<point x="1478" y="443"/>
			<point x="1478" y="925" type="curve" smooth="yes"/>
			<point x="1478" y="1272"/>
			<point x="1263" y="1460"/>
			<point x="917" y="1460" type="curve" smooth="yes"/>
			<point x="654" y="1460"/>
			<point x="407" y="1350"/>
			<point x="169" y="999" type="curve"/>
			<point x="199" y="965" type="line"/>
			<point x="390" y="1126"/>
			<point x="550" y="1163"/>
			<point x="709" y="1163" type="curve" smooth="yes"/>
			<point x="960" y="1163"/>
			<point x="1092" y="1057"/>
			<point x="1092" y="800" type="curve" smooth="yes"/>
			<point x="1092" y="385"/>
			<point x="892" y="54"/>
			<point x="635" y="54" type="curve" smooth="yes"/>
			<point x="514" y="54"/>
			<point x="440" y="138"/>
			<point x="440" y="325" type="curve" smooth="yes"/>
			<point x="440" y="388"/>
			<point x="448" y="462"/>
			<point x="466" y="548" type="curve"/>
			<point x="291" y="470" type="line"/>
			<point x="1082" y="470" type="line"/>
			<point x="1112" y="570" type="line"/>
		</contour>
	</outline>
</glyph>
<glyph name="Ohorn" format="2">
	<unicode hex="01A0"/>
	<advance width="1593"/>
	<outline>
		<contour>
			<point x="513" y="257" type="curve" smooth="yes"/>
			<point x="513" y="615"/>
			<point x="779" y="1376"/>
			<point x="1088" y="1376" type="curve" smooth="yes"/>
			<point x="1166" y="1376"/>
			<point x="1204" y="1318"/>
			<point x="1204" y="1173" type="curve" smooth="yes"/>
			<point x="1204" y="815"/>
			<point x="938" y="54"/>
			<point x="629" y="54" type="curve" smooth="yes"/>
			<point x="551" y="54"/>
			<point x="513" y="112"/>
		</contour>
		<contour>
			<point x="1620" y="928" type="curve" smooth="yes"/>
			<point x="1620" y="1116"/>
			<point x="1555" y="1273"/>
			<point x="1416" y="1368" type="curve"/>
			<point x="1416" y="1355" type="line"/>
			<point x="1704" y="1308"/>
			<point x="1857" y="1429"/>
			<point x="1857" y="1633" type="curve" smooth="yes"/>
			<point x="1857" y="1712"/>
			<point x="1816" y="1774"/>
			<point x="1731" y="1774" type="curve" smooth="yes"/>
			<point x="1662" y="1774"/>
			<point x="1606" y="1731"/>
			<point x="1606" y="1685" type="curve" smooth="yes"/>
			<point x="1606" y="1667"/>
			<point x="1650" y="1611"/>
			<point x="1650" y="1552" type="curve" smooth="yes"/>
			<point x="1650" y="1464"/>
			<point x="1579" y="1411"/>
			<point x="1452" y="1411" type="curve" smooth="yes"/>
			<point x="1324" y="1411"/>
			<point x="1219" y="1460"/>
			<point x="1067" y="1460" type="curve" smooth="yes"/>
			<point x="483" y="1460"/>
			<point x="97" y="942"/>
			<point x="97" y="502" type="curve" smooth="yes"/>
			<point x="97" y="193"/>
			<point x="271" y="-30"/>
			<point x="650" y="-30" type="curve" smooth="yes"/>
			<point x="1234" y="-30"/>
			<point x="1620" y="488"/>
		</contour>
	</outline>
	<anchor name="UCtop" x="1109" y="1430"/>
	<anchor name="bottom" x="601" y="0"/>
</glyph>
<glyph name="ohorn" format="2">
	<unicode hex="01A1"/>
	<advance width="1175"/>
	<outline>
		<contour>
			<point x="405" y="43" type="curve" smooth="yes"/>
			<point x="377" y="43"/>
			<point x="363" y="56"/>
			<point x="363" y="106" type="curve" smooth="yes"/>
			<point x="363" y="415"/>
			<point x="599" y="981"/>
			<point x="754" y="981" type="curve" smooth="yes"/>
			<point x="782" y="981"/>
			<point x="796" y="968"/>
			<point x="796" y="918" type="curve" smooth="yes"/>
			<point x="796" y="609"/>
			<point x="560" y="43"/>
		</contour>
		<contour>
			<point x="1126" y="656" type="curve" smooth="yes"/>
			<point x="1126" y="796"/>
			<point x="1084" y="895"/>
			<point x="991" y="973" type="curve"/>
			<point x="991" y="959" type="line"/>
			<point x="1223" y="937"/>
			<point x="1373" y="1041"/>
			<point x="1373" y="1227" type="curve" smooth="yes"/>
			<point x="1373" y="1306"/>
			<point x="1332" y="1368"/>
			<point x="1247" y="1368" type="curve" smooth="yes"/>
			<point x="1178" y="1368"/>
			<point x="1122" y="1325"/>
			<point x="1122" y="1279" type="curve" smooth="yes"/>
			<point x="1122" y="1261"/>
			<point x="1166" y="1205"/>
			<point x="1166" y="1146" type="curve" smooth="yes"/>
			<point x="1166" y="1062"/>
			<point x="1113" y="1016"/>
			<point x="1002" y="1016" type="curve" smooth="yes"/>
			<point x="916" y="1016"/>
			<point x="842" y="1054"/>
			<point x="721" y="1054" type="curve" smooth="yes"/>
			<point x="347" y="1054"/>
			<point x="33" y="738"/>
			<point x="33" y="368" type="curve" smooth="yes"/>
			<point x="33" y="127"/>
			<point x="172" y="-30"/>
			<point x="438" y="-30" type="curve" smooth="yes"/>
			<point x="812" y="-30"/>
			<point x="1126" y="286"/>
		</contour>
	</outline>
	<anchor name="top" x="746" y="1024"/>
	<anchor name="bottom" x="402" y="0"/>
</glyph>
<glyph name="Uhorn" format="2">
  <advance width="1619"/>
  <unicode hex="01AF"/>
  <anchor x="1176.0" y="1430" name="UCtop"/>
  <anchor x="718.0" y="0" name="bottom"/>
  <outline>
    <contour>
      <point x="624.0" y="574.0" type="curve" smooth="yes"/>
      <point x="862.0" y="1349.0" type="line"/>
      <point x="1023.0" y="1403.0" type="line"/>
      <point x="1030.0" y="1430.0" type="line"/>
      <point x="275.0" y="1430.0" type="line"/>
      <point x="268.0" y="1403.0" type="line"/>
      <point x="404.0" y="1353.0" type="line"/>
      <point x="189.0" y="656.0" type="line" smooth="yes"/>
      <point x="62.0" y="244.0"/>
      <point x="208.0" y="-30.0"/>
      <point x="766.0" y="-30.0" type="curve" smooth="yes"/>
      <point x="1105.0" y="-30.0"/>
      <point x="1298.0" y="111.0"/>
      <point x="1425.0" y="530.0" type="curve" smooth="yes"/>
      <point x="1675.0" y="1355.0" type="line"/>
      <point x="1974.0" y="1348.0"/>
      <point x="2071.0" y="1474.0"/>
      <point x="2071.0" y="1633.0" type="curve" smooth="yes"/>
      <point x="2071.0" y="1712.0"/>
      <point x="2030.0" y="1774.0"/>
      <point x="1945.0" y="1774.0" type="curve" smooth="yes"/>
      <point x="1876.0" y="1774.0"/>
      <point x="1820.0" y="1731.0"/>
      <point x="1820.0" y="1685.0" type="curve" smooth="yes"/>
      <point x="1820.0" y="1667.0"/>
      <point x="1864.0" y="1611.0"/>
      <point x="1864.0" y="1552.0" type="curve" smooth="yes"/>
      <point x="1864.0" y="1464.0"/>
      <point x="1826.0" y="1430.0"/>
      <point x="1714.0" y="1430.0" type="curve" smooth="yes"/>
      <point x="1435.0" y="1430.0" type="line"/>
      <point x="1428.0" y="1403.0" type="line"/>
      <point x="1599.0" y="1353.0" type="line"/>
      <point x="1369.0" y="594.0" type="line" smooth="yes"/>
      <point x="1285.0" y="318.0"/>
      <point x="1160.0" y="211.0"/>
      <point x="924.0" y="211.0" type="curve" smooth="yes"/>
      <point x="641.0" y="211.0"/>
      <point x="552.0" y="339.0"/>
    </contour>
  </outline>
</glyph>
<glyph name="uhorn" format="2">
	<unicode hex="01B0"/>
	<advance width="1316"/>
	<outline>
		<contour>
			<point x="662" y="130" type="line" smooth="yes"/>
			<point x="633" y="24"/>
			<point x="675" y="-30"/>
			<point x="751" y="-30" type="curve" smooth="yes"/>
			<point x="914" y="-30"/>
			<point x="1096" y="85"/>
			<point x="1262" y="366" type="curve"/>
			<point x="1252" y="374" type="line"/>
			<point x="1071" y="165"/>
			<point x="952" y="162"/>
			<point x="850" y="158" type="curve"/>
			<point x="986" y="86" type="line"/>
			<point x="1302" y="1024" type="line"/>
			<point x="913" y="1024" type="line"/>
			<point x="727" y="456" type="line"/>
			<point x="650" y="282"/>
			<point x="604" y="233"/>
			<point x="551" y="233" type="curve" smooth="yes"/>
			<point x="516" y="233"/>
			<point x="491" y="251"/>
			<point x="491" y="292" type="curve" smooth="yes"/>
			<point x="491" y="317"/>
			<point x="502" y="352"/>
			<point x="532" y="430" type="curve" smooth="yes"/>
			<point x="683" y="828" type="line" smooth="yes"/>
			<point x="741" y="980"/>
			<point x="692" y="1040"/>
			<point x="546" y="1040" type="curve" smooth="yes"/>
			<point x="379" y="1040"/>
			<point x="194" y="941"/>
			<point x="39" y="682" type="curve"/>
			<point x="53" y="671" type="line"/>
			<point x="187" y="823"/>
			<point x="240" y="841"/>
			<point x="405" y="832" type="curve"/>
			<point x="328" y="936" type="line"/>
			<point x="114" y="332" type="line" smooth="yes"/>
			<point x="97" y="284"/>
			<point x="88" y="218"/>
			<point x="88" y="170" type="curve" smooth="yes"/>
			<point x="88" y="54"/>
			<point x="131" y="-30"/>
			<point x="301" y="-30" type="curve" smooth="yes"/>
			<point x="462" y="-30"/>
			<point x="616" y="104"/>
			<point x="774" y="489" type="curve"/>
			<point x="767" y="513" type="line"/>
		</contour>
		<contour>
			<point x="1567" y="1227" type="curve" smooth="yes"/>
			<point x="1567" y="1306"/>
			<point x="1526" y="1368"/>
			<point x="1441" y="1368" type="curve" smooth="yes"/>
			<point x="1372" y="1368"/>
			<point x="1316" y="1325"/>
			<point x="1316" y="1279" type="curve" smooth="yes"/>
			<point x="1316" y="1261"/>
			<point x="1360" y="1205"/>
			<point x="1360" y="1146" type="curve" smooth="yes"/>
			<point x="1360" y="1067"/>
			<point x="1318" y="1024"/>
			<point x="1220" y="1024" type="curve" smooth="yes"/>
			<point x="1086" y="1024" type="line"/>
			<point x="1065" y="964" type="line"/>
			<point x="1216" y="964" type="line" smooth="yes"/>
			<point x="1470" y="964"/>
			<point x="1567" y="1070"/>
		</contour>
	</outline>
	<anchor name="top" x="828" y="1024"/>
	<anchor name="bottom" x="494" y="0"/>
</glyph>
<glyph name="uni01EA" format="2">
	<unicode hex="01EA"/>
	<advance width="1594"/>
	<outline>
		<contour>
			<point x="513" y="257" type="curve" smooth="yes"/>
			<point x="513" y="615"/>
			<point x="779" y="1376"/>
			<point x="1088" y="1376" type="curve" smooth="yes"/>
			<point x="1166" y="1376"/>
			<point x="1204" y="1318"/>
			<point x="1204" y="1173" type="curve" smooth="yes"/>
			<point x="1204" y="815"/>
			<point x="938" y="54"/>
			<point x="629" y="54" type="curve" smooth="yes"/>
			<point x="551" y="54"/>
			<point x="513" y="112"/>
		</contour>
		<contour>
			<point x="1620" y="928" type="curve" smooth="yes"/>
			<point x="1620" y="1237"/>
			<point x="1446" y="1460"/>
			<point x="1067" y="1460" type="curve" smooth="yes"/>
			<point x="483" y="1460"/>
			<point x="97" y="942"/>
			<point x="97" y="502" type="curve" smooth="yes"/>
			<point x="97" y="193"/>
			<point x="271" y="-30"/>
			<point x="650" y="-30" type="curve" smooth="yes"/>
			<point x="1234" y="-30"/>
			<point x="1620" y="488"/>
		</contour>
		<contour>
			<point x="477" y="-259" type="curve" smooth="yes"/>
			<point x="477" y="-195"/>
			<point x="500" y="-143"/>
			<point x="653" y="-11" type="curve" smooth="yes"/>
			<point x="681" y="14" type="line"/>
			<point x="630" y="14" type="line"/>
			<point x="562" y="-36" type="line" smooth="yes"/>
			<point x="329" y="-208"/>
			<point x="311" y="-271"/>
			<point x="311" y="-348" type="curve" smooth="yes"/>
			<point x="311" y="-416"/>
			<point x="349" y="-465"/>
			<point x="447" y="-465" type="curve" smooth="yes"/>
			<point x="518" y="-465"/>
			<point x="584" y="-439"/>
			<point x="707" y="-304" type="curve"/>
			<point x="700" y="-292" type="line"/>
			<point x="654" y="-323"/>
			<point x="620" y="-337"/>
			<point x="561" y="-337" type="curve" smooth="yes"/>
			<point x="502" y="-337"/>
			<point x="477" y="-308"/>
		</contour>
	</outline>
</glyph>
<glyph name="uni01EB" format="2">
  <advance width="1160"/>
  <unicode hex="01EB"/>
  <outline>
    <contour>
      <point x="721.0" y="1054.0" type="curve" smooth="yes"/>
      <point x="347.0" y="1054.0"/>
      <point x="33.0" y="738.0"/>
      <point x="33.0" y="368.0" type="curve" smooth="yes"/>
      <point x="33.0" y="127.0"/>
      <point x="172.0" y="-30.0"/>
      <point x="438.0" y="-30.0" type="curve" smooth="yes"/>
      <point x="812.0" y="-30.0"/>
      <point x="1126.0" y="286.0"/>
      <point x="1126.0" y="656.0" type="curve" smooth="yes"/>
      <point x="1126.0" y="897.0"/>
      <point x="987.0" y="1054.0"/>
    </contour>
    <contour>
      <point x="405.0" y="43.0" type="curve" smooth="yes"/>
      <point x="377.0" y="43.0"/>
      <point x="363.0" y="56.0"/>
      <point x="363.0" y="106.0" type="curve" smooth="yes"/>
      <point x="363.0" y="415.0"/>
      <point x="599.0" y="981.0"/>
      <point x="754.0" y="981.0" type="curve" smooth="yes"/>
      <point x="782.0" y="981.0"/>
      <point x="796.0" y="968.0"/>
      <point x="796.0" y="918.0" type="curve" smooth="yes"/>
      <point x="796.0" y="609.0"/>
      <point x="560.0" y="43.0"/>
    </contour>
    <contour>
      <point x="427.0" y="-11.0" type="curve" smooth="yes"/>
      <point x="559.0" y="97.0" type="line"/>
      <point x="525.0" y="97.0" type="line"/>
      <point x="335.0" y="-36.0" type="line" smooth="yes"/>
      <point x="90.0" y="-208.0"/>
      <point x="69.0" y="-271.0"/>
      <point x="69.0" y="-348.0" type="curve" smooth="yes"/>
      <point x="69.0" y="-416.0"/>
      <point x="107.0" y="-465.0"/>
      <point x="205.0" y="-465.0" type="curve" smooth="yes"/>
      <point x="276.0" y="-465.0"/>
      <point x="342.0" y="-439.0"/>
      <point x="465.0" y="-304.0" type="curve"/>
      <point x="458.0" y="-292.0" type="line"/>
      <point x="412.0" y="-323.0"/>
      <point x="378.0" y="-337.0"/>
      <point x="319.0" y="-337.0" type="curve" smooth="yes"/>
      <point x="260.0" y="-337.0"/>
      <point x="235.0" y="-308.0"/>
      <point x="235.0" y="-259.0" type="curve" smooth="yes"/>
      <point x="235.0" y="-195.0"/>
      <point x="266.0" y="-143.0"/>
    </contour>
  </outline>
</glyph>
